#N canvas 1 81 778 420 12;
#X obj 45 20 r \$1-ctl;
#X obj 99 98 tgl 15 0 empty empty empty 17 7 0 10 -262144 -1 -1 0 1
;
#X obj 45 68 route \$2;
#X obj 46 188 line~;
#X obj 45 99 sel 1;
#X obj 46 212 pow~ 5;
#X obj 243 49 loadbang;
#X obj 243 73 f \$2;
#X obj 243 97 * 7;
#X obj 178 123 +;
#X obj 178 147 + 49;
#X obj 178 174 mtof;
#X obj 178 251 osc~;
#X obj 178 275 *~;
#X obj 178 299 outlet~;
#X obj 511 166 table \$0-keys 10;
#X obj 397 199 s \$0-keys;
#X obj 395 102 unpack f f;
#X obj 395 126 t f f;
#X obj 469 175 *;
#X obj 397 175 pack f f;
#X obj 363 242 array max \$0-keys 0 8;
#X obj 363 79 t b a;
#X obj 427 149 + 1;
#X floatatom 363 266 5 0 0 0 - - -;
#X obj 45 44 route corde key bend, f 25;
#X obj 178 212 *~;
#X msg 233 194 1 \$1;
#X obj 233 218 -;
#X msg 233 242 \$1 50;
#X obj 233 266 line~;
#X obj 526 22 route knob;
#X obj 526 46 route 1;
#X obj 45 131 f 3000;
#X obj 526 70 pow 2;
#X obj 526 94 * 4000;
#X obj 526 118 + 100;
#X floatatom 602 136 5 0 0 0 - - -;
#X msg 45 164 1 \, 0 \$1;
#X connect 0 0 25 0;
#X connect 2 0 1 0;
#X connect 2 0 4 0;
#X connect 3 0 5 0;
#X connect 4 0 33 0;
#X connect 5 0 13 1;
#X connect 6 0 7 0;
#X connect 7 0 8 0;
#X connect 8 0 9 1;
#X connect 9 0 10 0;
#X connect 10 0 11 0;
#X connect 11 0 26 0;
#X connect 12 0 13 0;
#X connect 13 0 14 0;
#X connect 17 0 18 0;
#X connect 17 1 19 1;
#X connect 18 0 20 0;
#X connect 18 1 23 0;
#X connect 19 0 20 1;
#X connect 20 0 16 0;
#X connect 21 0 24 0;
#X connect 21 0 9 0;
#X connect 22 0 21 0;
#X connect 22 1 17 0;
#X connect 23 0 19 0;
#X connect 25 0 2 0;
#X connect 25 1 22 0;
#X connect 25 2 27 0;
#X connect 25 3 31 0;
#X connect 26 0 12 0;
#X connect 27 0 28 0;
#X connect 28 0 29 0;
#X connect 29 0 30 0;
#X connect 30 0 26 1;
#X connect 31 0 32 0;
#X connect 32 0 34 0;
#X connect 33 0 38 0;
#X connect 34 0 35 0;
#X connect 35 0 36 0;
#X connect 36 0 33 1;
#X connect 36 0 37 0;
#X connect 38 0 3 0;
