#N canvas 590 84 775 500 12;
#X declare -path GuitareFW;
#X obj 266 36 declare -path GuitareFW;
#X obj 45 62 drv \$1;
#X obj 24 201 route 0 1 2;
#X floatatom 24 225 5 0 0 0 - - -;
#X floatatom 64 226 5 0 0 0 - - -;
#X floatatom 104 227 5 0 0 0 - - -;
#X floatatom 119 202 5 0 0 0 - - -;
#X obj 162 242 tgl 15 0 empty empty empty 17 7 0 10 -262144 -1 -1 0
1;
#X obj 186 242 tgl 15 0 empty empty empty 17 7 0 10 -262144 -1 -1 0
1;
#X obj 213 244 tgl 15 0 empty empty empty 17 7 0 10 -262144 -1 -1 0
1;
#X obj 237 244 tgl 15 0 empty empty empty 17 7 0 10 -262144 -1 -1 0
1;
#X obj 162 212 route 0 1 2 3 4 5;
#X obj 259 244 tgl 15 0 empty empty empty 17 7 0 10 -262144 -1 -1 0
1;
#X obj 283 244 tgl 15 0 empty empty empty 17 7 0 10 -262144 -1 -1 0
1;
#X obj 310 244 tgl 15 0 empty empty empty 17 7 0 10 -262144 -1 -1 0
1;
#X obj 332 244 tgl 15 0 empty empty empty 17 7 0 10 -262144 -1 -1 0
1;
#X obj 356 244 tgl 15 0 empty empty empty 17 7 0 10 -262144 -1 -1 0
1;
#X obj 394 214 hradio 15 1 0 3 empty empty empty 0 -8 0 10 -262144
-1 -1 1;
#X obj 24 177 route knob bend key corde switch euler, f 68;
#X obj 311 216 route 0 1 2;
#X obj 97 305 corde \$0 0;
#X obj 186 305 corde \$0 1;
#X obj 272 304 corde \$0 2;
#X obj 113 368 *~;
#X obj 42 265 pow 2;
#X msg 42 289 \$1 20;
#X obj 42 313 line~;
#X obj 83 411 throw~ outL;
#X obj 360 304 corde \$0 3;
#X obj 60 119 s Guitare-ctl;
#X obj 24 151 spigot;
#X obj 81 152 tgl 15 0 empty empty empty 17 7 0 10 -262144 -1 -1 0
1;
#X obj 107 151 switch~;
#X obj 175 117 s \$0-ctl;
#X obj 172 411 throw~ outR;
#X floatatom 467 250 5 0 0 0 - - -;
#X floatatom 507 251 5 0 0 0 - - -;
#X floatatom 547 252 5 0 0 0 - - -;
#X obj 467 226 unpack f f f;
#X obj 328 111 print;
#X connect 1 0 29 0;
#X connect 1 0 30 0;
#X connect 1 0 33 0;
#X connect 2 0 3 0;
#X connect 2 0 24 0;
#X connect 2 1 4 0;
#X connect 2 2 5 0;
#X connect 11 0 7 0;
#X connect 11 1 8 0;
#X connect 11 2 9 0;
#X connect 11 3 10 0;
#X connect 11 4 12 0;
#X connect 11 5 13 0;
#X connect 18 0 2 0;
#X connect 18 1 6 0;
#X connect 18 2 11 0;
#X connect 18 3 19 0;
#X connect 18 4 17 0;
#X connect 18 5 38 0;
#X connect 19 0 14 0;
#X connect 19 1 15 0;
#X connect 19 2 16 0;
#X connect 20 0 23 1;
#X connect 21 0 23 1;
#X connect 22 0 23 1;
#X connect 23 0 27 0;
#X connect 23 0 34 0;
#X connect 24 0 25 0;
#X connect 25 0 26 0;
#X connect 26 0 23 0;
#X connect 28 0 23 1;
#X connect 30 0 18 0;
#X connect 31 0 30 1;
#X connect 31 0 32 0;
#X connect 38 0 35 0;
#X connect 38 1 36 0;
#X connect 38 2 37 0;
#X coords 0 -1 1 1 120 65 1 40 40;
