#N canvas 478 86 852 617 12;
#X obj 71 152 spigot;
#X obj 192 42 tgl 15 0 empty empty empty 17 7 0 10 -262144 -1 -1 1
1;
#X obj 253 162 switch~;
#X obj 170 188 s \$0-ctl;
#X obj 145 586 throw~ outR;
#X obj 48 191 spigot;
#X obj 100 192 tgl 15 0 empty empty empty 17 7 0 10 -262144 -1 -1 1
1;
#X obj 321 272 pow 2;
#X msg 321 320 \$1 20;
#X obj 321 344 line~;
#X obj 90 370 *~;
#X obj 111 505 rev1~, f 10;
#X obj 186 523 loadbang;
#X obj 382 284 pow 2;
#X msg 382 332 \$1 20;
#X obj 382 356 line~;
#X obj 109 401 *~;
#X obj 52 588 throw~ outL;
#X obj 91 547 +~;
#X msg 169 163 run \$1;
#X floatatom 68 296 5 0 0 0 - - -;
#X floatatom 108 297 5 0 0 0 - - -;
#X floatatom 148 298 5 0 0 0 - - -;
#X obj 68 272 unpack f f f, f 15;
#X obj 106 42 hsl 80 15 0 1 0 1 empty empty volume 5 8 0 10 -258113
-1 -257985 3100 1;
#X obj 106 61 hsl 80 15 0 1 0 1 empty empty reverb 5 8 0 10 -4034 -1
-258113 0 1;
#X obj 111 424 delwrite~ \$0-del 1000;
#X obj 115 457 delread~ \$0-del 250;
#X obj 110 482 lop~ 1000;
#X obj 321 296 * 1;
#X msg 257 556 10;
#X obj 382 308 * 0.5;
#X msg 186 546 60;
#X obj 106 81 hsl 80 15 0 1 0 1 \$0-transpo \$0-transpo transpo 5 8
0 10 -204800 -1 -258113 4500 1;
#X obj 48 115 r SimpleA-ctl;
#X obj 48 214 route on euler acc;
#X floatatom 193 295 5 0 0 0 - - -;
#X floatatom 455 148 5 0 0 0 - - -;
#X floatatom 273 297 5 0 0 0 - - -;
#X obj 193 271 unpack f f f, f 15;
#N canvas 45 196 530 418 shaker 0;
#X obj 130 38 r \$0-ctl;
#X obj 130 86 unpack f f f;
#X floatatom 172 120 5 0 0 0 - - -;
#X obj 130 62 route acc;
#X obj 350 51 noise~;
#X obj 283 169 /~;
#X obj 283 193 clip~ -1 1;
#X obj 248 262 outlet~;
#X obj 348 126 +~;
#X floatatom 443 90 5 0 0 0 - - -;
#X obj 349 76 hip~ 50;
#X obj 349 101 lop~ 60;
#X obj 284 24 sig~ 0.001;
#X obj 404 128 * 0.001;
#X connect 0 0 3 0;
#X connect 1 1 2 0;
#X connect 3 0 1 0;
#X connect 4 0 10 0;
#X connect 5 0 6 0;
#X connect 6 0 7 0;
#X connect 8 0 5 1;
#X connect 9 0 13 0;
#X connect 10 0 11 0;
#X connect 11 0 8 0;
#X connect 12 0 5 0;
#X connect 13 0 8 1;
#X restore 91 340 pd shaker;
#X obj 460 338 osc~;
#X obj 529 299 clip 0 1;
#X obj 459 309 line~;
#X obj 529 235 / 1000;
#X obj 465 214 f;
#X floatatom 584 336 5 0 0 0 - - -;
#X obj 459 453 *~;
#X obj 531 373 line~;
#X floatatom 512 179 5 0 0 0 - - -;
#X msg 531 349 \$1 5;
#X obj 459 421 hip~ 5;
#X obj 529 272 f;
#X obj 458 251 / 15;
#X msg 459 285 \$1 10;
#X obj 626 300 tgl 15 0 empty empty empty 17 7 0 10 -262144 -1 -1 1
1;
#X obj 614 138 tgl 15 0 empty empty empty 17 7 0 10 -262144 -1 -1 0
1;
#X floatatom 637 191 5 0 0 0 - - -;
#X obj 600 284 bng 15 250 50 0 empty empty empty 17 7 0 10 -262144
-1 -1;
#X obj 459 379 *~;
#X obj 628 355 line~;
#X obj 610 256 metro 10;
#X floatatom 459 182 5 0 0 0 - - -;
#X msg 628 331 \$1 0.1;
#X obj 714 313 >~ 0;
#X obj 715 344 lop~ 500;
#X obj 714 289 osc~ 50;
#X connect 0 0 3 0;
#X connect 1 0 0 1;
#X connect 1 0 2 0;
#X connect 1 0 19 0;
#X connect 5 0 35 0;
#X connect 6 0 5 1;
#X connect 7 0 29 0;
#X connect 8 0 9 0;
#X connect 9 0 10 1;
#X connect 10 0 16 0;
#X connect 10 0 18 0;
#X connect 11 0 18 0;
#X connect 12 0 32 0;
#X connect 13 0 31 0;
#X connect 14 0 15 0;
#X connect 15 0 16 1;
#X connect 16 0 26 0;
#X connect 18 0 17 0;
#X connect 18 0 4 0;
#X connect 19 0 3 0;
#X connect 23 0 20 0;
#X connect 23 1 21 0;
#X connect 23 2 22 0;
#X connect 24 0 7 0;
#X connect 25 0 13 0;
#X connect 27 0 28 0;
#X connect 28 0 11 0;
#X connect 29 0 8 0;
#X connect 30 0 11 1;
#X connect 31 0 14 0;
#X connect 32 0 11 1;
#X connect 34 0 0 0;
#X connect 34 0 5 0;
#X connect 35 1 23 0;
#X connect 35 2 39 0;
#X connect 37 0 62 0;
#X connect 39 0 36 0;
#X connect 39 1 37 0;
#X connect 39 2 38 0;
#X connect 41 0 59 0;
#X connect 42 0 46 0;
#X connect 42 0 50 0;
#X connect 43 0 41 0;
#X connect 44 0 52 0;
#X connect 45 0 44 0;
#X connect 45 0 53 0;
#X connect 47 0 10 0;
#X connect 48 0 47 1;
#X connect 50 0 48 0;
#X connect 51 0 47 0;
#X connect 52 0 42 0;
#X connect 53 0 54 0;
#X connect 53 0 49 0;
#X connect 54 0 43 0;
#X connect 55 0 63 0;
#X connect 56 0 57 0;
#X connect 56 0 61 0;
#X connect 59 0 51 0;
#X connect 61 0 55 0;
#X connect 62 0 45 0;
#X connect 63 0 60 0;
#X connect 64 0 65 0;
#X connect 65 0 59 1;
#X connect 66 0 64 0;
#X coords 0 -1 1 1 110 85 1 100 20;
