#N canvas 557 102 625 503 12;
#X obj 48 155 spigot;
#X obj 192 42 tgl 15 0 empty empty empty 17 7 0 10 -262144 -1 -1 1
1;
#X obj 48 188 s \$0-ctl;
#X msg 192 119 run \$1;
#X obj 47 242 route on euler key;
#X obj 48 115 r Pedales-ctl;
#X obj 247 23 loadbang;
#X msg 247 47 1;
#X obj 129 316 route 0 1 2 3;
#X msg 129 267 \$2 \$1;
#X obj 129 291 route 1;
#X obj 124 468 s SYNCER;
#X obj 124 443 list trim;
#X obj 124 419 list prepend set-state SEQ;
#X msg 282 368 play 1;
#X msg 142 370 nextChord;
#X msg 66 371 prevChord;
#X msg 222 369 play 0;
#X obj 47 217 r \$0-ctl;
#X obj 367 298 route 4 5 6 7, f 20;
#X obj 367 411 +;
#X obj 367 440 s /BPM;
#X msg 367 365 -5;
#X msg 401 368 5;
#X floatatom 426 444 5 0 0 0 - - -;
#X obj 405 411 r /BPM;
#X msg 440 368 prevPart;
#X msg 516 367 nextPart;
#X obj 229 482 bng 15 250 50 0 empty empty empty 17 7 0 10 -262144
-1 -1;
#X obj 282 224 print;
#X connect 0 0 2 0;
#X connect 1 0 0 1;
#X connect 1 0 3 0;
#X connect 3 0 2 0;
#X connect 4 2 9 0;
#X connect 5 0 0 0;
#X connect 6 0 7 0;
#X connect 7 0 1 0;
#X connect 8 0 16 0;
#X connect 8 1 15 0;
#X connect 8 2 17 0;
#X connect 8 3 14 0;
#X connect 9 0 10 0;
#X connect 10 0 8 0;
#X connect 10 0 19 0;
#X connect 12 0 11 0;
#X connect 12 0 28 0;
#X connect 13 0 12 0;
#X connect 14 0 13 0;
#X connect 15 0 13 0;
#X connect 16 0 13 0;
#X connect 17 0 13 0;
#X connect 18 0 4 0;
#X connect 19 0 22 0;
#X connect 19 1 23 0;
#X connect 19 2 26 0;
#X connect 19 3 27 0;
#X connect 20 0 21 0;
#X connect 22 0 20 0;
#X connect 23 0 20 0;
#X connect 25 0 20 1;
#X connect 25 0 24 0;
#X connect 26 0 13 0;
#X connect 27 0 13 0;
#X coords 0 -1 1 1 110 45 1 100 20;
