#N canvas 138 119 446 559 12;
#X declare -path zexy -lib zexy;
#X declare -path Interfaces -path quaternion -path Instruments -path
.;
#X declare -path domoTools/domonet -path domoTools/gammabs -path song
-path moonlib;
#X obj 17 12 cnv 15 320 40 empty empty Domozic_Esch 20 20 2 40 -233017
-66577 0;
#X obj 19 61 Arduino/driver ardDev;
#N canvas 395 90 828 389 Master 0;
#X obj 151 23 declare -path zexy -lib zexy;
#X obj 151 50 declare -path Interfaces -path quaternion -path Instruments
-path ., f 70;
#X obj 154 78 declare -path domoTools/domonet -path domoTools/gammabs
-path song -path moonlib;
#X obj 375 141 domonet Domozech;
#X obj 384 195 loadbang;
#X msg 384 219 2741;
#X obj 384 243 s /GAMME;
#X msg 465 220 145;
#X obj 465 244 s /CHORD;
#X obj 676 129 GAMMEKBV /DODECA;
#X obj 538 245 s /DODECA;
#X obj 544 269 r /DODECA;
#X floatatom 544 293 5 0 0 0 - - -;
#X msg 538 221 4095;
#X obj 686 27 loadbang;
#X msg 686 51 \; pd dsp 1;
#X obj 62 177 outchan outL 1;
#X obj 62 198 outchan outR 2;
#X obj 62 224 outchan out3 3;
#X obj 62 245 outchan out4 4;
#X obj 62 266 outchan out5 5;
#X connect 4 0 5 0;
#X connect 4 0 7 0;
#X connect 4 0 13 0;
#X connect 5 0 6 0;
#X connect 7 0 8 0;
#X connect 11 0 12 0;
#X connect 13 0 10 0;
#X connect 14 0 15 0;
#X coords 0 0 1 1 85 60 0;
#X restore 346 24 pd Master;
#X obj 18 201 Flute/flute 2;
#X obj 16 131 Guitare/guitare 1;
#X obj 18 272 Violon/violon 3;
#X obj 18 343 Simple/simple 4 A;
#X obj 19 413 Simple/simple 5 B;
#X obj 193 398 Shaker1/main;
#X obj 20 483 Pedales/pedales 6;
#X obj 193 497 Pedales1/main;
#X obj 193 154 Violon1/main 3;
#X obj 192 199 Guitare1/main 4;
#X obj 194 293 Clarinette1/main 5;
#X obj 193 70 REC-16;
#N canvas 403 103 857 150 Rec_patch 0;
#X text 35 21 violon;
#X obj 33 66 throw~ REC-1;
#X obj 34 39 r~ dac3;
#X obj 137 39 r~ dac4;
#X text 138 21 guitare;
#X text 236 16 flute;
#X obj 235 34 r~ dac5;
#X obj 137 67 throw~ REC-2;
#X obj 236 64 throw~ REC-3;
#X obj 338 38 adc~ 6;
#X text 339 20 PCsecu;
#X obj 337 65 throw~ REC-4;
#X text 436 21 Tupper;
#X obj 435 39 adc~ 7;
#X obj 434 66 throw~ REC-5;
#X obj 529 65 throw~ REC-6;
#X obj 530 38 adc~ 8;
#X text 527 19 Aspicolor;
#X obj 622 66 throw~ REC-7;
#X obj 623 39 adc~ 9;
#X text 620 20 Harpiro;
#X text 717 20 Micro;
#X obj 720 39 adc~ 10;
#X obj 719 66 throw~ REC-8;
#X connect 2 0 1 0;
#X connect 3 0 7 0;
#X connect 6 0 8 0;
#X connect 9 0 11 0;
#X connect 13 0 14 0;
#X connect 16 0 15 0;
#X connect 19 0 18 0;
#X connect 22 0 23 0;
#X restore 346 47 pd Rec_patch;
