#N canvas 145 120 418 559 12;
#X declare -path zexy -lib zexy;
#X declare -path Interfaces -path quaternion -path Instruments -path
.;
#X declare -path domoTools/domonet -path domoTools/gammabs -path song
-path moonlib;
#X obj 17 12 cnv 15 320 40 empty empty Domozic_Esch 20 20 2 40 -233017
-66577 0;
#X obj 19 61 Arduino/driver ardDev;
#N canvas 395 90 864 542 Master 0;
#X obj 47 170 catch~ outL;
#X obj 46 230 z~ 64;
#X obj 91 230 limiter~;
#X obj 46 254 *~, f 7;
#X obj 47 194 *~ 1;
#X obj 45 286 dac~ 1;
#X obj 184 285 dac~ 2;
#X obj 185 231 z~ 64;
#X obj 230 231 limiter~;
#X obj 185 255 *~, f 7;
#X obj 186 195 *~ 1;
#X obj 186 171 catch~ outR;
#X obj 151 23 declare -path zexy -lib zexy;
#X obj 151 50 declare -path Interfaces -path quaternion -path Instruments
-path ., f 70;
#X obj 154 78 declare -path domoTools/domonet -path domoTools/gammabs
-path song -path moonlib;
#X obj 375 141 domonet Domozech;
#X obj 384 195 loadbang;
#X msg 384 219 2741;
#X obj 384 243 s /GAMME;
#X msg 465 220 145;
#X obj 465 244 s /CHORD;
#X obj 676 129 GAMMEKBV /DODECA;
#X obj 538 245 s /DODECA;
#X obj 544 269 r /DODECA;
#X floatatom 544 293 5 0 0 0 - - -;
#X msg 538 221 4095;
#X obj 686 27 loadbang;
#X msg 686 51 \; pd dsp 1;
#X obj 44 394 z~ 64;
#X obj 89 394 limiter~;
#X obj 44 418 *~, f 7;
#X obj 45 358 *~ 1;
#X obj 183 395 z~ 64;
#X obj 228 395 limiter~;
#X obj 183 419 *~, f 7;
#X obj 184 359 *~ 1;
#X obj 45 334 catch~ out3;
#X obj 184 335 catch~ out4;
#X obj 43 450 dac~ 3;
#X obj 182 449 dac~ 4;
#X obj 294 394 z~ 64;
#X obj 339 394 limiter~;
#X obj 294 418 *~, f 7;
#X obj 295 358 *~ 1;
#X obj 295 334 catch~ out5;
#X obj 293 448 dac~ 5;
#X connect 0 0 4 0;
#X connect 1 0 3 0;
#X connect 2 0 3 1;
#X connect 3 0 5 0;
#X connect 4 0 1 0;
#X connect 4 0 2 0;
#X connect 7 0 9 0;
#X connect 8 0 9 1;
#X connect 9 0 6 0;
#X connect 10 0 7 0;
#X connect 10 0 8 0;
#X connect 11 0 10 0;
#X connect 16 0 17 0;
#X connect 16 0 19 0;
#X connect 16 0 25 0;
#X connect 17 0 18 0;
#X connect 19 0 20 0;
#X connect 23 0 24 0;
#X connect 25 0 22 0;
#X connect 26 0 27 0;
#X connect 28 0 30 0;
#X connect 29 0 30 1;
#X connect 30 0 38 0;
#X connect 31 0 28 0;
#X connect 31 0 29 0;
#X connect 32 0 34 0;
#X connect 33 0 34 1;
#X connect 34 0 39 0;
#X connect 35 0 32 0;
#X connect 35 0 33 0;
#X connect 36 0 31 0;
#X connect 37 0 35 0;
#X connect 40 0 42 0;
#X connect 41 0 42 1;
#X connect 42 0 45 0;
#X connect 43 0 40 0;
#X connect 43 0 41 0;
#X connect 44 0 43 0;
#X coords 0 0 1 1 85 60 0;
#X restore 232 117 pd Master;
#X obj 18 201 Flute/flute 2;
#X obj 16 131 Guitare/guitare 1;
#X obj 18 272 Violon/violon 3;
#X obj 18 343 Simple/simple 4 A;
#X obj 19 413 Simple/simple 5 B;
#X obj 193 398 Shaker1/main;
#X obj 20 483 Pedales/pedales 6;
#X obj 193 497 Pedales1/main;
#X obj 193 154 Violon1/main 3;
#X obj 192 199 Guitare1/main 4;
#X obj 194 293 Clarinette1/main 5;
