#N canvas 125 304 472 407 12;
#X declare -path zexy -lib zexy;
#X declare -path Interfaces -path quaternion -path Instruments;
#X obj 17 12 cnv 15 320 40 empty empty Domozic_Esch 20 20 2 40 -233017
-66577 0;
#X obj 19 61 Arduino/driver ardDev;
#N canvas 1 81 688 322 Master 0;
#X obj 50 170 catch~ outL;
#X obj 49 230 z~ 64;
#X obj 94 230 limiter~;
#X obj 49 254 *~, f 7;
#X obj 50 194 *~ 1;
#X obj 48 286 dac~ 1;
#X obj 187 285 dac~ 2;
#X obj 188 231 z~ 64;
#X obj 233 231 limiter~;
#X obj 188 255 *~, f 7;
#X obj 189 195 *~ 1;
#X obj 189 171 catch~ outR;
#X obj 154 23 declare -path zexy -lib zexy;
#X obj 154 50 declare -path Interfaces -path quaternion -path Instruments
;
#X connect 0 0 4 0;
#X connect 1 0 3 0;
#X connect 2 0 3 1;
#X connect 3 0 5 0;
#X connect 4 0 1 0;
#X connect 4 0 2 0;
#X connect 7 0 9 0;
#X connect 8 0 9 1;
#X connect 9 0 6 0;
#X connect 10 0 7 0;
#X connect 10 0 8 0;
#X connect 11 0 10 0;
#X coords 0 322 1 321 85 60 0;
#X restore 232 117 pd Master;
#X obj 18 201 Flute/flute 2;
#X obj 16 131 Guitare/guitare 1;
#X obj 18 272 Violon/violon 3;
#X obj 193 154 Violon1/main;
