#N canvas 1 81 450 300 12;
#X obj 83 146 z~ 64;
#X obj 128 146 limiter~;
#X obj 83 170 *~, f 7;
#X obj 84 110 *~ 1;
#X obj 84 86 catch~ \$1;
#X obj 82 202 dac~ \$2;
#X obj 147 204 s~ dac\$2;
#X connect 0 0 2 0;
#X connect 1 0 2 1;
#X connect 2 0 5 0;
#X connect 2 0 6 0;
#X connect 3 0 0 0;
#X connect 3 0 1 0;
#X connect 4 0 3 0;
