#N canvas 669 125 658 486 10;
#X declare -path hcs -path iemlib;
#X obj 6 5 cnv 15 181 76 empty empty REC-16 2 10 0 14 -260097 -1 0
;
#X obj 123 7 bng 30 250 50 0 load-REC16-snd load-REC16-rcv load 3 10
0 10 -1 -203904 -257985;
#X obj 9 23 tgl 30 0 REC16-snd REC16-rcv REC 6 15 0 10 -250685 -250685
-241291 0 1;
#N canvas 1725 367 338 278 color_rec 0;
#X obj 23 100 sel 0 1;
#X obj 23 174 s REC16-rcv;
#X msg 46 125 color 13 13 15;
#X msg 23 150 color 19 19 15;
#X obj 122 28 metro 400;
#X obj 23 44 t f f;
#X obj 122 51 i;
#X obj 151 51 + 1;
#X obj 122 72 mod 2;
#X obj 157 118 sel 0 1;
#X obj 157 192 s REC16-rcv;
#X msg 157 168 color 9 9 13;
#X msg 180 143 color 13 13 15;
#X obj 23 17 inlet;
#X connect 0 0 3 0;
#X connect 0 1 2 0;
#X connect 2 0 1 0;
#X connect 3 0 1 0;
#X connect 4 0 6 0;
#X connect 5 0 0 0;
#X connect 5 1 4 0;
#X connect 6 0 7 0;
#X connect 6 0 8 0;
#X connect 7 0 6 1;
#X connect 8 0 9 0;
#X connect 9 0 11 0;
#X connect 9 1 12 0;
#X connect 11 0 10 0;
#X connect 12 0 10 0;
#X connect 13 0 5 0;
#X restore 469 306 pd color_rec;
#X msg 446 233 open \$1;
#X msg 423 255 start;
#X msg 373 158 stop;
#X obj 423 102 split_path;
#X obj 423 82 getdir;
#X obj 459 154 savepanel;
#X obj 423 122 makesymbol %s/REC;
#X obj 400 61 sel 0 1;
#N canvas 59 344 505 244 writesf~ 0;
#X obj 19 18 inlet;
#X obj 63 17 catch~ REC-1;
#X obj 82 38 catch~ REC-2;
#X obj 97 60 catch~ REC-3;
#X obj 117 80 catch~ REC-4;
#X obj 140 101 catch~ REC-5;
#X obj 159 122 catch~ REC-6;
#X obj 174 144 catch~ REC-7;
#X obj 194 164 catch~ REC-8;
#X obj 240 15 catch~ REC-9;
#X obj 260 36 catch~ REC-10;
#X obj 275 58 catch~ REC-11;
#X obj 295 78 catch~ REC-12;
#X obj 318 99 catch~ REC-13;
#X obj 337 120 catch~ REC-14;
#X obj 352 142 catch~ REC-15;
#X obj 372 162 catch~ REC-16;
#X obj 62 190 writesf~ 16, f 48;
#N canvas 12 376 1053 292 vu 0;
#X obj 20 19 inlet~;
#X obj 20 40 env~;
#X obj 20 82 - 100;
#X obj 20 61 * 1.2;
#X obj 20 103 s \$0-VU-1;
#X obj 23 244 r \$0-vu-on;
#X obj 23 265 switch~;
#N canvas 688 238 253 152 \$0-VUS 0;
#X obj 9 17 vu 10 120 \$0-VU-1 1 -1 -8 0 10 -66577 -1 0 0;
#X obj 23 17 vu 10 120 \$0-VU-2 2 -1 -8 0 10 -66577 -1 0 0;
#X obj 37 17 vu 10 120 \$0-VU-3 3 -1 -8 0 10 -66577 -1 0 0;
#X obj 51 17 vu 10 120 \$0-VU-4 4 -1 -8 0 10 -66577 -1 0 0;
#X obj 65 17 vu 10 120 \$0-VU-5 5 -1 -8 0 10 -66577 -1 0 0;
#X obj 79 17 vu 10 120 \$0-VU-6 6 -1 -8 0 10 -66577 -1 0 0;
#X obj 93 17 vu 10 120 \$0-VU-7 7 -1 -8 0 10 -66577 -1 0 0;
#X obj 107 17 vu 10 120 \$0-VU-8 8 -1 -8 0 10 -66577 -1 0 0;
#X obj 121 17 vu 10 120 \$0-VU-9 9 -1 -8 0 10 -66577 -1 0 0;
#X obj 135 17 vu 10 120 \$0-VU-10 10 -1 -8 0 10 -66577 -1 0 0;
#X obj 149 17 vu 10 120 \$0-VU-11 11 -1 -8 0 10 -66577 -1 0 0;
#X obj 163 17 vu 10 120 \$0-VU-12 12 -1 -8 0 10 -66577 -1 0 0;
#X obj 177 17 vu 10 120 \$0-VU-13 13 -1 -8 0 10 -66577 -1 0 0;
#X obj 191 17 vu 10 120 \$0-VU-14 14 -1 -8 0 10 -66577 -1 0 0;
#X obj 205 17 vu 10 120 \$0-VU-15 15 -1 -8 0 10 -66577 -1 0 0;
#X obj 219 17 vu 10 120 \$0-VU-16 16 -1 -8 0 10 -66577 -1 0 0;
#X obj 80 236 pdcontrol;
#X obj 80 173 loadbang;
#X obj 80 194 metro 1000;
#X msg 80 215 isvisible;
#X obj 80 281 s \$0-vu-on;
#X obj 80 259 change;
#X connect 16 0 21 0;
#X connect 17 0 18 0;
#X connect 18 0 19 0;
#X connect 19 0 16 0;
#X connect 21 0 20 0;
#X restore 23 149 pd \$0-VUS;
#X obj 23 172 r \$0-show-vus;
#X msg 23 193 vis 1;
#X obj 23 214 s pd-\$0-VUS;
#X obj 81 19 inlet~;
#X obj 81 40 env~;
#X obj 81 82 - 100;
#X obj 81 61 * 1.2;
#X obj 144 20 inlet~;
#X obj 144 41 env~;
#X obj 144 83 - 100;
#X obj 144 62 * 1.2;
#X obj 205 20 inlet~;
#X obj 205 41 env~;
#X obj 205 83 - 100;
#X obj 205 62 * 1.2;
#X obj 268 20 inlet~;
#X obj 268 41 env~;
#X obj 268 83 - 100;
#X obj 268 62 * 1.2;
#X obj 329 20 inlet~;
#X obj 329 41 env~;
#X obj 329 83 - 100;
#X obj 329 62 * 1.2;
#X obj 392 21 inlet~;
#X obj 392 42 env~;
#X obj 392 84 - 100;
#X obj 392 63 * 1.2;
#X obj 453 21 inlet~;
#X obj 453 42 env~;
#X obj 453 84 - 100;
#X obj 453 63 * 1.2;
#X obj 515 21 inlet~;
#X obj 515 42 env~;
#X obj 515 84 - 100;
#X obj 515 63 * 1.2;
#X obj 576 21 inlet~;
#X obj 576 42 env~;
#X obj 576 84 - 100;
#X obj 576 63 * 1.2;
#X obj 639 22 inlet~;
#X obj 639 43 env~;
#X obj 639 85 - 100;
#X obj 639 64 * 1.2;
#X obj 700 22 inlet~;
#X obj 700 43 env~;
#X obj 700 85 - 100;
#X obj 700 64 * 1.2;
#X obj 763 22 inlet~;
#X obj 763 43 env~;
#X obj 763 85 - 100;
#X obj 763 64 * 1.2;
#X obj 824 22 inlet~;
#X obj 824 43 env~;
#X obj 824 85 - 100;
#X obj 824 64 * 1.2;
#X obj 887 23 inlet~;
#X obj 887 44 env~;
#X obj 887 86 - 100;
#X obj 887 65 * 1.2;
#X obj 948 23 inlet~;
#X obj 948 44 env~;
#X obj 948 86 - 100;
#X obj 948 65 * 1.2;
#X obj 81 103 s \$0-VU-2;
#X obj 144 104 s \$0-VU-3;
#X obj 205 104 s \$0-VU-4;
#X obj 268 104 s \$0-VU-5;
#X obj 329 104 s \$0-VU-6;
#X obj 392 105 s \$0-VU-7;
#X obj 453 105 s \$0-VU-8;
#X obj 514 105 s \$0-VU-9;
#X obj 576 105 s \$0-VU-10;
#X obj 639 106 s \$0-VU-11;
#X obj 700 106 s \$0-VU-12;
#X obj 763 106 s \$0-VU-13;
#X obj 824 106 s \$0-VU-14;
#X obj 887 107 s \$0-VU-15;
#X obj 948 107 s \$0-VU-16;
#X obj 74 265 tgl 15 0 empty empty empty 17 7 0 10 -262144 -1 -1 0
1;
#X connect 0 0 1 0;
#X connect 1 0 3 0;
#X connect 2 0 4 0;
#X connect 3 0 2 0;
#X connect 5 0 6 0;
#X connect 5 0 86 0;
#X connect 8 0 9 0;
#X connect 9 0 10 0;
#X connect 11 0 12 0;
#X connect 12 0 14 0;
#X connect 13 0 71 0;
#X connect 14 0 13 0;
#X connect 15 0 16 0;
#X connect 16 0 18 0;
#X connect 17 0 72 0;
#X connect 18 0 17 0;
#X connect 19 0 20 0;
#X connect 20 0 22 0;
#X connect 21 0 73 0;
#X connect 22 0 21 0;
#X connect 23 0 24 0;
#X connect 24 0 26 0;
#X connect 25 0 74 0;
#X connect 26 0 25 0;
#X connect 27 0 28 0;
#X connect 28 0 30 0;
#X connect 29 0 75 0;
#X connect 30 0 29 0;
#X connect 31 0 32 0;
#X connect 32 0 34 0;
#X connect 33 0 76 0;
#X connect 34 0 33 0;
#X connect 35 0 36 0;
#X connect 36 0 38 0;
#X connect 37 0 77 0;
#X connect 38 0 37 0;
#X connect 39 0 40 0;
#X connect 40 0 42 0;
#X connect 41 0 78 0;
#X connect 42 0 41 0;
#X connect 43 0 44 0;
#X connect 44 0 46 0;
#X connect 45 0 79 0;
#X connect 46 0 45 0;
#X connect 47 0 48 0;
#X connect 48 0 50 0;
#X connect 49 0 80 0;
#X connect 50 0 49 0;
#X connect 51 0 52 0;
#X connect 52 0 54 0;
#X connect 53 0 81 0;
#X connect 54 0 53 0;
#X connect 55 0 56 0;
#X connect 56 0 58 0;
#X connect 57 0 82 0;
#X connect 58 0 57 0;
#X connect 59 0 60 0;
#X connect 60 0 62 0;
#X connect 61 0 83 0;
#X connect 62 0 61 0;
#X connect 63 0 64 0;
#X connect 64 0 66 0;
#X connect 65 0 84 0;
#X connect 66 0 65 0;
#X connect 67 0 68 0;
#X connect 68 0 70 0;
#X connect 69 0 85 0;
#X connect 70 0 69 0;
#X restore 51 218 pd vu;
#X f 47;
#X connect 0 0 17 0;
#X connect 1 0 17 0;
#X connect 1 0 18 0;
#X connect 2 0 17 1;
#X connect 2 0 18 1;
#X connect 3 0 17 2;
#X connect 3 0 18 2;
#X connect 4 0 17 3;
#X connect 4 0 18 3;
#X connect 5 0 17 4;
#X connect 5 0 18 4;
#X connect 6 0 17 5;
#X connect 6 0 18 5;
#X connect 7 0 17 6;
#X connect 7 0 18 6;
#X connect 8 0 17 7;
#X connect 8 0 18 7;
#X connect 9 0 17 8;
#X connect 9 0 18 8;
#X connect 10 0 17 9;
#X connect 10 0 18 9;
#X connect 11 0 17 10;
#X connect 11 0 18 10;
#X connect 12 0 17 11;
#X connect 12 0 18 11;
#X connect 13 0 17 12;
#X connect 13 0 18 12;
#X connect 14 0 17 13;
#X connect 14 0 18 13;
#X connect 15 0 17 14;
#X connect 15 0 18 14;
#X connect 16 0 17 15;
#X connect 16 0 18 15;
#X restore 423 277 pd writesf~;
#N canvas 762 337 493 376 readsf~ 0;
#X obj 21 17 inlet;
#X obj 21 38 readsf~ 16, f 40;
#X obj 35 271 mull~ 0 10;
#X obj 121 271 mull~ 0 10;
#X obj 20 61 /~ 1.41421;
#X obj 38 81 /~ 1.41421;
#X obj 55 101 /~ 1.41421;
#X obj 72 121 /~ 1.41421;
#X obj 298 70 outlet;
#X obj 86 141 /~ 1.41421;
#X obj 104 161 /~ 1.41421;
#X obj 116 181 /~ 1.41421;
#X obj 138 201 /~ 1.41421;
#X obj 301 227 r vol-readsf-snd;
#X obj 34 299 outlet~;
#X obj 121 302 outlet~;
#X connect 0 0 1 0;
#X connect 1 0 4 0;
#X connect 1 1 5 0;
#X connect 1 2 6 0;
#X connect 1 3 7 0;
#X connect 1 4 9 0;
#X connect 1 5 10 0;
#X connect 1 6 11 0;
#X connect 1 7 12 0;
#X connect 1 8 2 0;
#X connect 1 9 3 0;
#X connect 1 10 2 0;
#X connect 1 11 3 0;
#X connect 1 12 2 0;
#X connect 1 13 3 0;
#X connect 1 14 2 0;
#X connect 1 15 3 0;
#X connect 1 16 8 0;
#X connect 2 0 14 0;
#X connect 3 0 15 0;
#X connect 4 0 2 0;
#X connect 4 0 3 0;
#X connect 5 0 2 0;
#X connect 5 0 3 0;
#X connect 6 0 2 0;
#X connect 6 0 3 0;
#X connect 7 0 3 0;
#X connect 7 0 2 0;
#X connect 9 0 2 0;
#X connect 9 0 3 0;
#X connect 10 0 2 0;
#X connect 10 0 3 0;
#X connect 11 0 2 0;
#X connect 11 0 3 0;
#X connect 12 0 2 0;
#X connect 12 0 3 0;
#X connect 13 0 3 1;
#X connect 13 0 2 1;
#X restore 42 275 pd readsf~;
#X msg 51 248 open \$1;
#X msg 10 182 0;
#X msg 42 204 1;
#X obj 259 108 split_path;
#X obj 259 88 getdir;
#X obj 259 128 makesymbol %s/REC;
#X obj 259 149 openpanel;
#X symbolatom 259 208 10 0 0 0 - - -;
#X obj 259 228 split_path;
#X symbolatom 7 62 0 0 0 0 - - -;
#N canvas 2516 316 338 278 color_play 0;
#X obj 23 100 sel 0 1;
#X obj 122 35 metro 400;
#X obj 23 44 t f f;
#X obj 122 58 i;
#X obj 151 58 + 1;
#X obj 122 79 mod 2;
#X obj 157 118 sel 0 1;
#X msg 157 168 color 9 9 13;
#X obj 24 174 s playREC16-rcv;
#X obj 157 192 s playREC16-rcv;
#X msg 46 125 color 16 16 15;
#X msg 180 143 color 16 16 15;
#X msg 23 150 color 22 229 15;
#X obj 23 11 r playREC16-snd;
#X connect 0 0 12 0;
#X connect 0 1 10 0;
#X connect 1 0 3 0;
#X connect 2 0 0 0;
#X connect 2 1 1 0;
#X connect 3 0 4 0;
#X connect 3 0 5 0;
#X connect 4 0 3 1;
#X connect 5 0 6 0;
#X connect 6 0 7 0;
#X connect 6 1 11 0;
#X connect 7 0 9 0;
#X connect 10 0 8 0;
#X connect 11 0 9 0;
#X connect 12 0 8 0;
#X connect 13 0 2 0;
#X restore 416 28 pd color_play;
#X obj 155 7 tgl 30 0 playREC16-snd playREC16-rcv play 3 10 0 10 -1
-250685 -241291 0 1;
#X obj 23 156 sel 0 1;
#X obj 42 182 t b b;
#X msg 227 92 0;
#X obj 423 191 t b s b;
#X msg 469 212 1;
#X obj 373 105 t b b;
#X msg 387 133 0;
#X obj 259 171 t b s;
#X msg 226 133 1, f 2;
#X obj 233 13 declare -path hcs -path iemlib;
#X obj 64 28 bng 15 250 50 0 \$0-show-vus empty VUS 0 -7 0 10 -4034
-1 -1;
#X obj 275 354 date, f 12;
#X obj 356 355 time, f 9;
#X obj 275 331 t b b, f 14;
#X symbolatom 275 417 0 0 0 0 - - -;
#X obj 275 310 t b s, f 25;
#X obj 275 375 pack f f f f f f s, f 25;
#X msg 275 396 symbol \$7/\$1-\$2-\$3_\$4h_\$5mn_\$6sec.wav;
#X obj 275 454 print REC-16_to;
#X obj 12 356 throw~ outL;
#X obj 114 355 throw~ outR;
#X obj 126 40 hsl 60 15 0 127 0 0 vol-readsf-snd vol-readsf-rcv play_vol
10 8 0 10 -4032 -1 -4160 0 1;
#X connect 1 0 18 0;
#X connect 2 0 11 0;
#X connect 4 0 12 0;
#X connect 5 0 12 0;
#X connect 6 0 12 0;
#X connect 7 0 10 0;
#X connect 8 0 7 0;
#X connect 10 0 41 0;
#X connect 11 0 31 0;
#X connect 11 1 8 0;
#X connect 13 0 45 0;
#X connect 13 1 46 0;
#X connect 13 2 28 0;
#X connect 14 0 13 0;
#X connect 15 0 13 0;
#X connect 16 0 13 0;
#X connect 17 0 19 0;
#X connect 18 0 17 0;
#X connect 19 0 20 0;
#X connect 20 0 33 0;
#X connect 21 0 14 0;
#X connect 21 0 22 0;
#X connect 22 1 23 0;
#X connect 25 0 26 0;
#X connect 26 0 15 0;
#X connect 26 1 27 0;
#X connect 27 0 16 0;
#X connect 27 1 21 0;
#X connect 28 0 25 0;
#X connect 29 0 5 0;
#X connect 29 1 4 0;
#X connect 29 1 21 0;
#X connect 29 2 30 0;
#X connect 30 0 3 0;
#X connect 31 0 6 0;
#X connect 31 1 32 0;
#X connect 32 0 3 0;
#X connect 33 0 34 0;
#X connect 33 1 21 0;
#X connect 34 0 25 0;
#X connect 37 0 42 0;
#X connect 37 1 42 1;
#X connect 37 2 42 2;
#X connect 38 0 42 3;
#X connect 38 1 42 4;
#X connect 38 2 42 5;
#X connect 39 0 37 0;
#X connect 39 1 38 0;
#X connect 40 0 29 0;
#X connect 40 0 44 0;
#X connect 41 0 39 0;
#X connect 41 1 42 6;
#X connect 42 0 43 0;
#X connect 43 0 40 0;
#X coords 0 -1 1 1 180 75 1 5 5;
