#N canvas 346 141 1155 623 12;
#X declare -path Fraise;
#X obj 44 29 declare -path Fraise;
#X obj 42 66 pied/pied 0 51515;
#X obj 42 148 fruit/fruit 1 monFruit 20 monFirmware;
#X obj 353 17 fruit/receive monFruit;
#X obj 353 68 analog/parse;
#X obj 353 148 route 0 1 2 3 4 5, f 57;
#X floatatom 325 190 8 0 0 0 - - -;
#X floatatom 398 210 8 0 0 0 - - -;
#X floatatom 485 222 8 0 0 0 - - -;
#X floatatom 563 325 8 0 0 0 - - -;
#X floatatom 475 191 8 0 0 0 - - -;
#X floatatom 687 224 8 0 0 0 - - -;
#X floatatom 325 257 5 0 0 0 - - -;
#X obj 325 322 mtof;
#X floatatom 331 344 8 0 0 0 - - -;
#X obj 325 393 hip~ 70;
#X obj 326 477 *~ 0.1;
#X obj 340 515 dac~;
#X obj 757 574 fruit/send monFruit;
#X msg 847 515 L\$1;
#X obj 922 574 print;
#X obj 847 482 tgl 15 0 empty empty empty 17 7 0 10 -262144 -1 -1 0
1;
#X obj 630 354 * -1;
#X obj 630 378 + 1;
#X obj 630 402 * 100;
#X obj 630 330 maxlib/scale 0.24 0.27 0 1;
#X obj 618 18 route i;
#X floatatom 513 80 5 0 0 0 - - -;
#X obj 513 103 mod 128;
#X obj 618 49 t b b;
#X obj 617 80 timer;
#X floatatom 617 104 5 0 0 0 - - -;
#X obj 707 60 mavg 10;
#X msg 707 84 1000 \$1;
#X obj 707 108 /;
#X floatatom 771 140 5 0 0 0 - - -;
#X obj 708 11 / 2;
#X obj 708 35 s bow;
#X floatatom 764 20 5 0 0 0 - - -;
#X obj 246 24 print;
#X floatatom 578 58 5 0 0 0 - - -;
#X obj 444 362 - 0.04;
#X obj 444 410 clip 0 1;
#X floatatom 374 465 5 0 0 0 - - -;
#X obj 444 386 * 16;
#X obj 428 452 s blow;
#X obj 456 256 - 0.67;
#X obj 456 304 clip 0 1;
#X obj 456 328 s bend;
#X floatatom 512 253 5 0 0 0 - - -;
#X obj 456 280 * 5;
#X obj 637 464 tgl 15 0 empty empty empty 17 7 0 10 -262144 -1 -1 0
1;
#X obj 585 514 *~;
#X obj 545 489 noise~;
#X obj 585 538 *~ 0.1;
#X obj 585 562 dac~;
#X obj 542 362 * -1;
#X obj 542 434 clip 0 1;
#X obj 682 479 s touch;
#X obj 542 410 * 40;
#X floatatom 507 461 5 0 0 0 - - -;
#X obj 622 431 > 0.5;
#X floatatom 274 246 5 0 0 0 - - -;
#X obj 180 210 - 0.041;
#X obj 180 258 clip 0 1;
#X obj 325 213 * 2000;
#X obj 325 291 - 20;
#X obj 29 395 unpack f f f, f 28;
#X floatatom 29 416 5 0 0 0 - - -;
#X floatatom 121 429 5 0 0 0 - - -;
#X obj 28 325 r EULER;
#X floatatom 191 427 5 0 0 0 - - -;
#X obj 28 374 spigot 1;
#X obj 28 350 route 2;
#X floatatom 52 530 5 0 0 0 - - -;
#X floatatom 483 537 5 0 0 0 - - -;
#X floatatom 341 540 5 0 0 0 - - -;
#X floatatom 183 626 5 0 0 0 - - -;
#X obj 92 531 / 360;
#X obj 90 504 + 180;
#X floatatom 330 606 5 0 0 0 - - -;
#X obj 266 497 / 45;
#X obj 267 526 clip 0 1;
#X obj 185 572 * 80;
#X obj 185 593 + 20;
#X obj 99 599 adjust 5;
#X obj 267 469 + 0;
#X obj 183 452 * -1;
#X obj 183 476 + 60;
#X floatatom 142 519 5 0 0 0 - - -;
#X obj 183 500 * 1;
#X obj 181 530 + 30;
#X obj 253 426 i;
#X floatatom 124 315 5 0 0 0 - - -;
#X obj 164 284 pow 2;
#X obj 187 335 * 0.3;
#X obj 328 436 bob~, f 8;
#X msg 66 276 \$1 30;
#X obj 66 300 line~;
#X obj 325 369 moonlib/ssaw~;
#X obj 66 228 * 2000;
#X obj 180 234 * 50;
#X obj 229 364 moonlib/ssaw~;
#X msg 266 292 0;
#X msg 396 330 0.25;
#X obj 66 252 + 200;
#X obj 387 399 sig~ 2;
#X obj 542 386 + 0.25;
#X obj 640 252 hsl 128 15 0 1 0 0 empty empty empty -2 -8 0 10 -262144
-1 -1 2620 1;
#X obj 353 108 analog/normalize 5;
#X obj 799 230 < 0.6;
#X obj 799 254 change;
#X obj 800 285 tgl 15 0 empty empty empty 17 7 0 10 -262144 -1 -1 1
1;
#X obj 234 56 route S;
#X obj 289 165 tgl 15 0 empty empty empty 17 7 0 10 -262144 -1 -1 0
1;
#X obj 294 114 change;
#X obj 317 150 bng 15 250 50 0 empty empty empty 17 7 0 10 -262144
-1 -1;
#X floatatom 233 81 7 0 0 0 - - -;
#X obj 680 439 < 0.26;
#X obj 235 106 < 800;
#X obj 883 17 fruit/receive monFruit;
#X obj 883 41 route present;
#X obj 883 65 sel 1;
#X msg 883 89 20000 \, 0 20;
#X obj 883 113 line~;
#X obj 883 137 osc~;
#X obj 883 161 hip~ 20;
#X obj 883 185 *~ 0.1;
#X obj 883 209 dac~;
#X obj 980 140 bng 15 250 50 0 empty empty empty 17 7 0 10 -262144
-1 -1;
#X msg 827 400 0;
#X connect 3 0 4 0;
#X connect 3 0 113 0;
#X connect 4 0 109 0;
#X connect 4 1 26 0;
#X connect 5 0 6 0;
#X connect 5 0 41 0;
#X connect 5 1 7 0;
#X connect 5 1 46 0;
#X connect 5 2 10 0;
#X connect 5 2 108 0;
#X connect 5 2 110 0;
#X connect 5 3 9 0;
#X connect 5 3 25 0;
#X connect 5 3 56 0;
#X connect 5 3 118 0;
#X connect 5 5 11 0;
#X connect 6 0 63 0;
#X connect 6 0 65 0;
#X connect 12 0 66 0;
#X connect 13 0 14 0;
#X connect 13 0 102 0;
#X connect 14 0 99 0;
#X connect 15 0 96 0;
#X connect 16 0 17 0;
#X connect 19 0 20 0;
#X connect 19 0 18 1;
#X connect 21 0 19 0;
#X connect 22 0 23 0;
#X connect 23 0 24 0;
#X connect 25 0 22 0;
#X connect 26 0 29 0;
#X connect 26 0 36 0;
#X connect 26 0 40 0;
#X connect 27 0 28 0;
#X connect 29 0 30 0;
#X connect 29 1 30 1;
#X connect 30 0 31 0;
#X connect 30 0 32 0;
#X connect 32 0 33 0;
#X connect 33 0 34 0;
#X connect 34 0 35 0;
#X connect 36 0 37 0;
#X connect 36 0 38 0;
#X connect 41 0 44 0;
#X connect 42 0 43 0;
#X connect 42 0 45 0;
#X connect 44 0 42 0;
#X connect 46 0 50 0;
#X connect 47 0 48 0;
#X connect 47 0 49 0;
#X connect 50 0 47 0;
#X connect 52 0 54 0;
#X connect 53 0 52 0;
#X connect 54 0 55 0;
#X connect 56 0 107 0;
#X connect 57 0 60 0;
#X connect 57 0 61 0;
#X connect 59 0 57 0;
#X connect 63 0 101 0;
#X connect 64 0 94 0;
#X connect 64 0 95 0;
#X connect 65 0 62 0;
#X connect 66 0 13 0;
#X connect 67 0 68 0;
#X connect 67 1 69 0;
#X connect 67 1 79 0;
#X connect 67 2 71 0;
#X connect 67 2 86 0;
#X connect 67 2 87 0;
#X connect 70 0 73 0;
#X connect 72 0 67 0;
#X connect 73 0 72 0;
#X connect 79 0 78 0;
#X connect 81 0 82 0;
#X connect 82 0 80 0;
#X connect 82 0 83 0;
#X connect 83 0 84 0;
#X connect 84 0 77 0;
#X connect 86 0 81 0;
#X connect 87 0 88 0;
#X connect 88 0 89 0;
#X connect 88 0 90 0;
#X connect 90 0 91 0;
#X connect 91 0 92 0;
#X connect 92 0 13 0;
#X connect 94 0 100 0;
#X connect 95 0 16 1;
#X connect 95 0 75 0;
#X connect 96 0 16 0;
#X connect 97 0 98 0;
#X connect 98 0 96 1;
#X connect 99 0 15 0;
#X connect 100 0 105 0;
#X connect 101 0 64 0;
#X connect 102 0 15 0;
#X connect 103 0 102 1;
#X connect 103 0 104 0;
#X connect 104 0 99 1;
#X connect 105 0 97 0;
#X connect 105 0 93 0;
#X connect 106 0 96 2;
#X connect 107 0 59 0;
#X connect 109 0 5 0;
#X connect 110 0 111 0;
#X connect 111 0 112 0;
#X connect 113 0 117 0;
#X connect 115 0 114 0;
#X connect 115 0 116 0;
#X connect 117 0 119 0;
#X connect 118 0 51 0;
#X connect 119 0 115 0;
#X connect 120 0 121 0;
#X connect 121 0 122 0;
#X connect 121 0 129 0;
#X connect 122 0 123 0;
#X connect 123 0 124 0;
#X connect 124 0 125 0;
#X connect 125 0 126 0;
#X connect 126 0 127 0;
#X connect 127 0 128 0;
#X connect 130 0 19 0;
