#N canvas 230 126 1364 772 12;
#X declare -path Fraise;
#X obj 490 557 dac~;
#X obj 436 504 *~ 0.01;
#X floatatom 435 434 5 0 0 0 - - -;
#X obj 495 379 hsl 128 15 0 5000 0 0 empty empty empty -2 -8 0 10 -262144
-1 -1 0 1;
#X floatatom 569 490 8 0 0 0 - - -;
#X obj 569 511 osc~ 440;
#X obj 569 466 * 11;
#X obj 569 535 *~ 0.002;
#X obj 22 237 analog/parse;
#X obj 22 262 route 0 1 2 3;
#X floatatom 22 371 8 0 0 0 - - -;
#X floatatom 40 345 8 0 0 0 - - -;
#X floatatom 59 319 8 0 0 0 - - -;
#X floatatom 78 293 8 0 0 0 - - -;
#X obj 22 207 fruit/receive fruit1;
#X text 114 235 Analog capture on connector K1 \, K2 \, K3 and K5.
;
#X text 109 250 (K4 \, K11 and K12 cannot be analog inputs on Versa1)
;
#X msg 128 527 L\$1;
#X obj 128 504 tgl 15 0 empty empty set_LED 18 7 0 10 -4034 -1 -1 0
1;
#X obj 219 468 tgl 15 0 empty empty empty 17 7 0 10 -262144 -1 -1 0
1;
#X msg 270 443 20;
#X floatatom 270 465 5 2 1000 0 - - -;
#X msg 300 442 100;
#X obj 219 487 metro 100;
#X obj 21 38 pied/pied 0 41424;
#X obj 22 399 spigot;
#X obj 80 384 tgl 15 0 empty empty empty 17 7 0 10 -257985 -1 -1 0
1;
#X text 102 382 <- switch this on \, then touch the pins of connector
K1 to drive the led on., f 30;
#X obj 22 474 > 500;
#X obj 23 553 fruit/send fruit1;
#X obj 19 141 fruit/fruit 1 fruit1 10 example1-Versa2;
#X obj 21 16 declare -path Fraise;
#X obj 198 297 / 8192;
#X obj 198 321 * 5;
#X floatatom 198 345 5 0 0 1 Volts - -;
#X obj 316 297 / 8192;
#X obj 316 321 * 5;
#X floatatom 316 345 5 0 0 1 Volts - -;
#X obj 422 341 * 5000;
#X obj 436 480 phasor~ 440;
#X obj 668 518 *~ 0.2;
#X obj 428 402 max 0;
#X obj 422 371 - 1000;
#X obj 604 357 dac~;
#X obj 604 297 *~ 0.01;
#X floatatom 601 174 5 0 0 0 - - -;
#X obj 661 119 hsl 128 15 0 5000 0 0 empty empty empty -2 -8 0 10 -262144
-1 -1 8700 1;
#X floatatom 701 204 8 0 0 0 - - -;
#X obj 701 225 osc~ 440;
#X obj 594 142 max 0;
#X obj 588 111 - 1000;
#X obj 589 81 * 5000;
#X obj 602 220 phasor~ 0;
#X obj 471 153 mtof;
#X obj 699 285 delwrite~ echo2 1000;
#X obj 685 426 delwrite~ echo 1000;
#X obj 680 470 delread~ echo 200;
#X obj 847 318 delread~ echo2 500;
#X obj 529 228 phasor~ 0;
#X obj 454 227 phasor~ 0;
#X obj 454 206 * 1.02;
#X obj 529 206 * 0.97;
#X obj 471 129 + 20;
#X obj 471 105 * 70;
#X obj 837 63 metro 1000;
#X obj 836 110 tgl 15 0 empty empty empty 17 7 0 10 -262144 -1 -1 1
1;
#X msg 837 87 1;
#X msg 872 110 0;
#X obj 836 130 * 0.01;
#X obj 839 25 tgl 15 0 empty empty empty 17 7 0 10 -262144 -1 -1 1
1;
#X obj 835 366 *~ 0.2;
#X obj 701 180 * 0.5;
#X obj 701 249 *~ 2;
#X obj 872 86 del 125;
#X msg 896 16 250;
#X floatatom 979 132 5 0 0 0 - - -;
#X obj 969 224 print;
#X msg 947 178 hello\$1;
#X floatatom 1027 67 5 0 0 0 - - -;
#X floatatom 1028 160 5 0 0 0 - - -;
#X obj 1027 90 * 10;
#X obj 1027 114 + 3;
#X obj 726 58 metro 1000;
#X obj 728 20 tgl 15 0 empty empty empty 17 7 0 10 -262144 -1 -1 1
1;
#X msg 785 11 250;
#X obj 741 96 bng 15 250 50 0 empty empty empty 17 7 0 10 -262144 -1
-1;
#X msg 936 5 125;
#X obj 931 46 * 0.5;
#X connect 1 0 0 0;
#X connect 1 0 55 0;
#X connect 2 0 6 0;
#X connect 2 0 39 0;
#X connect 3 0 2 0;
#X connect 4 0 5 0;
#X connect 5 0 7 0;
#X connect 6 0 4 0;
#X connect 8 0 9 0;
#X connect 9 0 10 0;
#X connect 9 1 11 0;
#X connect 9 2 12 0;
#X connect 9 3 13 0;
#X connect 10 0 25 0;
#X connect 10 0 32 0;
#X connect 11 0 35 0;
#X connect 14 0 8 0;
#X connect 17 0 29 1;
#X connect 18 0 17 0;
#X connect 19 0 23 0;
#X connect 20 0 21 0;
#X connect 21 0 23 1;
#X connect 22 0 21 0;
#X connect 23 0 18 0;
#X connect 25 0 28 0;
#X connect 26 0 25 1;
#X connect 28 0 18 0;
#X connect 32 0 33 0;
#X connect 32 0 63 0;
#X connect 33 0 34 0;
#X connect 35 0 36 0;
#X connect 36 0 37 0;
#X connect 37 0 38 0;
#X connect 38 0 42 0;
#X connect 39 0 1 0;
#X connect 40 0 0 0;
#X connect 41 0 2 0;
#X connect 42 0 41 0;
#X connect 44 0 43 0;
#X connect 44 0 54 0;
#X connect 45 0 52 0;
#X connect 45 0 60 0;
#X connect 45 0 61 0;
#X connect 45 0 71 0;
#X connect 46 0 45 0;
#X connect 47 0 48 0;
#X connect 48 0 72 0;
#X connect 49 0 45 0;
#X connect 50 0 49 0;
#X connect 51 0 50 0;
#X connect 52 0 44 0;
#X connect 53 0 45 0;
#X connect 56 0 40 0;
#X connect 57 0 70 0;
#X connect 58 0 44 0;
#X connect 59 0 44 0;
#X connect 60 0 59 0;
#X connect 61 0 58 0;
#X connect 62 0 53 0;
#X connect 63 0 62 0;
#X connect 64 0 66 0;
#X connect 64 0 73 0;
#X connect 65 0 68 0;
#X connect 66 0 65 0;
#X connect 67 0 65 0;
#X connect 68 0 44 1;
#X connect 69 0 64 0;
#X connect 70 0 43 0;
#X connect 71 0 47 0;
#X connect 72 0 44 0;
#X connect 73 0 67 0;
#X connect 74 0 64 1;
#X connect 74 0 87 0;
#X connect 75 0 77 0;
#X connect 77 0 76 0;
#X connect 78 0 80 0;
#X connect 80 0 81 0;
#X connect 81 0 79 0;
#X connect 82 0 85 0;
#X connect 83 0 82 0;
#X connect 84 0 82 1;
#X connect 86 0 87 0;
#X connect 86 0 64 1;
#X connect 87 0 73 1;
