#N canvas 182 99 520 300 12;
#X declare -path creb;
#X obj 75 21 inlet;
#X obj 75 45 sel 0 1;
#X obj 68 163 osc~;
#X obj 189 34 loadbang;
#X obj 189 58 f \$1;
#X obj 189 130 mtof;
#X obj 68 187 *~;
#X obj 268 10 declare -path creb;
#X obj 111 162 ead~ 1 800;
#X obj 68 211 outlet~;
#X obj 189 106 + 60;
#X obj 189 82 * 3;
#X connect 0 0 1 0;
#X connect 1 1 8 0;
#X connect 2 0 6 0;
#X connect 3 0 4 0;
#X connect 4 0 11 0;
#X connect 5 0 2 0;
#X connect 6 0 9 0;
#X connect 8 0 6 1;
#X connect 10 0 5 0;
#X connect 11 0 10 0;
