#N canvas 456 180 1199 623 12;
#X declare -path Fraise;
#X declare -path creb -lib creb;
#X obj 44 29 declare -path Fraise;
#X obj 42 66 pied/pied 0 51515;
#X obj 353 68 analog/parse;
#X obj 922 574 print;
#X obj 42 148 fruit/fruit 1 guitare1 20 guitareFW;
#X floatatom 356 199 5 0 0 0 - - -;
#X obj 353 17 fruit/receive guitare1;
#X floatatom 401 199 5 0 0 0 - - -;
#X floatatom 442 199 5 0 0 0 - - -;
#X floatatom 489 199 5 0 0 0 - - -;
#X obj 353 148 route 0 1 2 3 4 5 6 7 8, f 59;
#X floatatom 593 363 5 0 0 0 - - -;
#X floatatom 580 201 5 0 0 0 - - -;
#X floatatom 621 201 5 0 0 0 - - -;
#X floatatom 668 201 5 0 0 0 - - -;
#X floatatom 711 201 5 0 0 0 - - -;
#X obj 353 108 analog/normalize 3;
#X obj 243 254 - 0.87;
#X obj 243 278 * -2;
#X floatatom 243 302 5 0 0 0 - - -;
#X obj 333 232 < 0.8;
#X obj 333 256 change;
#X msg 333 280 0 \$1;
#X obj 386 232 < 0.8;
#X obj 386 256 change;
#X obj 439 232 < 0.8;
#X obj 439 256 change;
#X obj 492 232 < 0.8;
#X obj 492 256 change;
#X obj 544 233 < 0.8;
#X obj 544 257 change;
#X obj 597 233 < 0.8;
#X obj 597 257 change;
#X obj 650 233 < 0.8;
#X obj 650 257 change;
#X obj 703 233 < 0.8;
#X obj 703 257 change;
#X obj 754 236 < 0.8;
#X obj 754 260 change;
#X msg 386 280 1 \$1;
#X msg 439 280 2 \$1;
#X msg 492 280 3 \$1;
#X msg 544 281 4 \$1;
#X msg 597 281 5 \$1;
#X msg 650 281 6 \$1;
#X msg 703 281 7 \$1;
#X msg 754 284 8 \$1;
#X obj 422 333 t a;
#X obj 422 369 clone guitare-corde 9;
#X obj 537 19 declare -path creb -lib creb;
#X obj 410 428 dac~;
#X obj 55 245 loadbang;
#X msg 55 269 \; pd dsp 1;
#X obj 422 393 *~ 0.2;
#X obj 648 85 f;
#X msg 646 58 0.7;
#X floatatom 727 51 5 0 0 0 - - -;
#X connect 2 0 16 0;
#X connect 6 0 2 0;
#X connect 10 0 5 0;
#X connect 10 0 20 0;
#X connect 10 1 7 0;
#X connect 10 1 23 0;
#X connect 10 2 8 0;
#X connect 10 2 25 0;
#X connect 10 3 9 0;
#X connect 10 3 27 0;
#X connect 10 4 11 0;
#X connect 10 4 29 0;
#X connect 10 5 12 0;
#X connect 10 5 31 0;
#X connect 10 6 13 0;
#X connect 10 6 33 0;
#X connect 10 7 14 0;
#X connect 10 7 35 0;
#X connect 10 8 15 0;
#X connect 10 8 37 0;
#X connect 16 0 10 0;
#X connect 17 0 18 0;
#X connect 18 0 19 0;
#X connect 20 0 21 0;
#X connect 21 0 22 0;
#X connect 22 0 47 0;
#X connect 23 0 24 0;
#X connect 24 0 39 0;
#X connect 25 0 26 0;
#X connect 26 0 40 0;
#X connect 27 0 28 0;
#X connect 28 0 41 0;
#X connect 29 0 30 0;
#X connect 30 0 42 0;
#X connect 31 0 32 0;
#X connect 32 0 43 0;
#X connect 33 0 34 0;
#X connect 34 0 44 0;
#X connect 35 0 36 0;
#X connect 36 0 45 0;
#X connect 37 0 38 0;
#X connect 38 0 46 0;
#X connect 39 0 47 0;
#X connect 40 0 47 0;
#X connect 41 0 47 0;
#X connect 42 0 47 0;
#X connect 43 0 47 0;
#X connect 44 0 47 0;
#X connect 45 0 47 0;
#X connect 46 0 47 0;
#X connect 47 0 48 0;
#X connect 48 0 53 0;
#X connect 51 0 52 0;
#X connect 53 0 50 0;
#X connect 53 0 50 1;
#X connect 54 0 20 1;
#X connect 54 0 37 1;
#X connect 54 0 35 1;
#X connect 54 0 33 1;
#X connect 54 0 31 1;
#X connect 54 0 29 1;
#X connect 54 0 27 1;
#X connect 54 0 25 1;
#X connect 54 0 23 1;
#X connect 55 0 54 0;
#X connect 56 0 54 0;
