#N canvas 568 84 755 658 12;
#X declare -path ../quaternion;
#X obj 15 21 r fromArduinoDriver;
#X obj 14 146 route 0;
#X obj 60 73 loadbang;
#X obj 60 97 f \$1;
#X obj 60 121 + 48;
#X obj 39 74 bng 15 250 50 0 empty empty empty 17 7 0 10 -262144 -1
-1;
#X obj 14 232 * 2;
#X obj 14 280 * 3.3;
#X floatatom 7 579 5 0 0 1 V - -;
#X obj 14 201 change;
#X obj 301 204 getint;
#X obj 355 204 getint;
#X obj 410 204 getint;
#X obj 479 204 getint;
#X obj 534 204 getint;
#X obj 589 204 getint;
#X obj 644 204 getint;
#X obj 301 228 pack f f f, f 16;
#X obj 479 275 pack f f f f, f 24;
#X obj 479 299 toEuler;
#X obj 479 354 unpack f f f;
#X floatatom 571 394 5 0 0 0 - - -;
#X floatatom 473 397 5 0 0 0 - - -;
#X obj 479 239 / 16384;
#X obj 534 239 / 16384;
#X obj 589 239 / 16384;
#X obj 644 239 / 16384;
#X obj 479 321 rad2deg3;
#X floatatom 521 398 5 0 0 0 - - -;
#X obj 14 338 t b f b, f 15;
#X obj 14 313 spigot 1;
#X obj 14 362 del 250;
#X msg 14 386 1;
#X msg 117 361 0;
#X floatatom 729 245 5 0 0 0 - - -;
#X obj 141 407 t b b;
#X obj 141 431 del 250;
#X msg 141 455 0;
#X msg 173 455 1;
#X obj 104 137 nbx 5 20 -1e+37 1e+37 0 0 empty empty %battery 0 -8
0 14 -262144 -1 -1 0 256;
#X obj 141 509 * 15;
#X msg 141 532 color \$1 22 22;
#X obj 40 464 * 100;
#X obj 40 520 i;
#X obj 40 544 change;
#X obj 40 416 - 3.4;
#X obj 40 440 / 0.7;
#X obj 40 492 clip 0 100;
#X obj 168 321 loadbang;
#X obj 141 480 change -1;
#X obj 301 252 s accel\$1;
#X obj 644 400 s euler\$1;
#X obj 383 563 s sensor\$1;
#X obj 627 436 list prepend \$1;
#X obj 627 460 s EULER;
#X obj 262 562 list prepend \$1;
#X obj 262 586 s SENSOR_ON;
#X obj 326 294 list prepend \$1;
#X obj 326 318 s ACCEL;
#X obj 627 364 spigot 1;
#X obj 262 522 spigot 1;
#X obj 186 126 tgl 30 0 empty empty mute 3 15 0 10 -257985 -1 -45076
0 1;
#X obj 186 164 == 0;
#X floatatom 126 590 7 0 0 0 - - -;
#X obj 14 256 / 256;
#X obj 14 170 getchr;
#X floatatom 273 142 5 0 0 0 - - -;
#X floatatom 314 142 5 0 0 0 - - -;
#X floatatom 356 141 5 0 0 0 - - -;
#X floatatom 397 141 5 0 0 0 - - -;
#X floatatom 439 140 5 0 0 0 - - -;
#X floatatom 481 140 5 0 0 0 - - -;
#X floatatom 522 139 5 0 0 0 - - -;
#X floatatom 564 139 5 0 0 0 - - -;
#X floatatom 606 139 5 0 0 0 - - -;
#X obj 273 108 unpack f f f f f f f f f, f 48;
#X obj 329 60 declare -path ../quaternion;
#X connect 0 0 1 0;
#X connect 1 0 35 0;
#X connect 1 0 65 0;
#X connect 2 0 3 0;
#X connect 3 0 4 0;
#X connect 4 0 1 1;
#X connect 5 0 3 0;
#X connect 6 0 64 0;
#X connect 7 0 30 0;
#X connect 9 0 6 0;
#X connect 10 0 17 0;
#X connect 10 1 11 0;
#X connect 11 0 17 1;
#X connect 11 1 12 0;
#X connect 12 0 17 2;
#X connect 12 1 13 0;
#X connect 13 0 23 0;
#X connect 13 1 14 0;
#X connect 14 0 24 0;
#X connect 14 1 15 0;
#X connect 15 0 25 0;
#X connect 15 1 16 0;
#X connect 16 0 26 0;
#X connect 17 0 50 0;
#X connect 17 0 57 0;
#X connect 18 0 19 0;
#X connect 19 0 27 0;
#X connect 20 0 22 0;
#X connect 20 1 28 0;
#X connect 20 2 21 0;
#X connect 23 0 18 0;
#X connect 24 0 18 1;
#X connect 25 0 18 2;
#X connect 26 0 18 3;
#X connect 27 0 20 0;
#X connect 27 0 59 0;
#X connect 29 0 31 0;
#X connect 29 1 8 0;
#X connect 29 1 45 0;
#X connect 29 2 33 0;
#X connect 30 0 29 0;
#X connect 31 0 32 0;
#X connect 32 0 30 1;
#X connect 33 0 30 1;
#X connect 35 0 36 0;
#X connect 35 1 38 0;
#X connect 36 0 37 0;
#X connect 37 0 49 0;
#X connect 38 0 49 0;
#X connect 40 0 41 0;
#X connect 41 0 39 0;
#X connect 42 0 47 0;
#X connect 43 0 44 0;
#X connect 44 0 39 0;
#X connect 45 0 46 0;
#X connect 46 0 42 0;
#X connect 47 0 43 0;
#X connect 48 0 37 0;
#X connect 49 0 40 0;
#X connect 49 0 60 0;
#X connect 53 0 54 0;
#X connect 55 0 56 0;
#X connect 57 0 58 0;
#X connect 59 0 51 0;
#X connect 59 0 53 0;
#X connect 60 0 52 0;
#X connect 60 0 55 0;
#X connect 61 0 62 0;
#X connect 62 0 59 1;
#X connect 62 0 60 1;
#X connect 64 0 7 0;
#X connect 65 0 9 0;
#X connect 65 1 75 0;
#X connect 75 0 66 0;
#X connect 75 1 67 0;
#X connect 75 2 68 0;
#X connect 75 3 69 0;
#X connect 75 4 70 0;
#X connect 75 5 71 0;
#X connect 75 6 72 0;
#X connect 75 7 73 0;
#X connect 75 8 74 0;
#X coords 0 -1 1 1 120 60 1 100 100;
