#N canvas 455 307 732 436 12;
#X declare -path ViolonFW;
#X obj 42 62 drv \$1;
#X obj 24 201 route 0 1 2, f 15;
#X floatatom 24 225 5 0 0 0 - - -;
#X floatatom 64 226 5 0 0 0 - - -;
#X floatatom 104 227 5 0 0 0 - - -;
#X obj 148 235 tgl 15 0 empty empty empty 17 7 0 10 -262144 -1 -1 0
1;
#X obj 172 235 tgl 15 0 empty empty empty 17 7 0 10 -262144 -1 -1 0
1;
#X obj 190 235 tgl 15 0 empty empty empty 17 7 0 10 -262144 -1 -1 0
1;
#X obj 208 235 tgl 15 0 empty empty empty 17 7 0 10 -262144 -1 -1 0
1;
#X obj 226 235 tgl 15 0 empty empty empty 17 7 0 10 -262144 -1 -1 0
1;
#X obj 244 236 tgl 15 0 empty empty empty 17 7 0 10 -262144 -1 -1 0
1;
#X obj 172 17 declare -path ViolonFW;
#X obj 296 236 tgl 15 0 empty empty empty 17 7 0 10 -262144 -1 -1 0
1;
#X obj 320 236 tgl 15 0 empty empty empty 17 7 0 10 -262144 -1 -1 0
1;
#X obj 345 237 tgl 15 0 empty empty empty 17 7 0 10 -262144 -1 -1 0
1;
#X obj 263 235 tgl 15 0 empty empty empty 17 7 0 10 -262144 -1 -1 0
1;
#X obj 384 206 tgl 15 0 empty empty empty 17 7 0 10 -262144 -1 -1 0
1;
#X obj 148 205 route 0 1 2 3 4 5 6;
#X obj 296 206 route 0 1 2;
#X obj 407 207 route 0 1 2, f 15;
#X floatatom 407 231 5 0 0 0 - - -;
#X floatatom 447 232 5 0 0 0 - - -;
#X floatatom 487 233 5 0 0 0 - - -;
#X obj 24 177 route knob manche pizz switch corde euler, f 100;
#X floatatom 569 231 5 0 0 0 - - -;
#X floatatom 609 232 5 0 0 0 - - -;
#X floatatom 649 233 5 0 0 0 - - -;
#X obj 569 207 unpack f f f, f 15;
#X obj 49 110 s Violon-ctl;
#X obj 24 151 spigot;
#X obj 71 131 tgl 15 0 empty empty empty 17 7 0 10 -262144 -1 -1 0
1;
#X obj 79 153 switch~;
#X connect 0 0 28 0;
#X connect 0 0 29 0;
#X connect 1 0 2 0;
#X connect 1 1 3 0;
#X connect 1 2 4 0;
#X connect 17 0 5 0;
#X connect 17 1 6 0;
#X connect 17 2 7 0;
#X connect 17 3 8 0;
#X connect 17 4 9 0;
#X connect 17 5 10 0;
#X connect 17 6 15 0;
#X connect 18 0 12 0;
#X connect 18 1 13 0;
#X connect 18 2 14 0;
#X connect 19 0 20 0;
#X connect 19 1 21 0;
#X connect 19 2 22 0;
#X connect 23 0 1 0;
#X connect 23 1 17 0;
#X connect 23 2 18 0;
#X connect 23 3 16 0;
#X connect 23 4 19 0;
#X connect 23 5 27 0;
#X connect 27 0 24 0;
#X connect 27 1 25 0;
#X connect 27 2 26 0;
#X connect 29 0 23 0;
#X connect 30 0 29 1;
#X connect 30 0 31 0;
#X coords 0 -1 1 1 120 65 1 40 40;
