#N canvas 555 81 780 658 12;
#X declare -path quaternion;
#X obj 15 21 r fromArduinoDriver;
#X obj 14 146 route 0;
#X obj 60 73 loadbang;
#X obj 60 97 f \$1;
#X obj 60 121 + 48;
#X obj 39 74 bng 15 250 50 0 empty empty empty 17 7 0 10 -262144 -1
-1;
#X obj 14 232 * 2;
#X obj 14 280 * 3.3;
#X floatatom 7 579 5 0 0 1 V - -;
#X obj 14 201 change;
#X obj 71 170 getint;
#X obj 125 170 getint;
#X obj 180 170 getint;
#X obj 249 170 getint;
#X obj 304 170 getint;
#X obj 359 170 getint;
#X obj 414 170 getint;
#X obj 71 194 pack f f f, f 16;
#X obj 249 241 pack f f f f, f 24;
#X obj 249 265 toEuler;
#X obj 249 331 unpack f f f;
#X floatatom 341 371 5 0 0 0 - - -;
#X floatatom 243 374 5 0 0 0 - - -;
#X obj 249 205 / 16384;
#X obj 304 205 / 16384;
#X obj 359 205 / 16384;
#X obj 414 205 / 16384;
#X obj 249 298 rad2deg3;
#X floatatom 291 375 5 0 0 0 - - -;
#X obj 14 338 t b f b, f 15;
#X obj 14 313 spigot 1;
#X obj 14 362 del 250;
#X msg 14 386 1;
#X msg 117 361 0;
#X floatatom 550 294 5 0 0 0 - - -;
#X obj 141 407 t b b;
#X obj 141 431 del 250;
#X msg 141 455 0;
#X msg 173 455 1;
#X obj 101 118 nbx 3 20 -1e+37 1e+37 0 0 empty empty %batt 55 12 0
14 -241291 -1 -1 85 256;
#X obj 141 509 * 15;
#X msg 141 532 color \$1 22 22;
#X obj 40 464 * 100;
#X obj 40 520 i;
#X obj 40 544 change;
#X obj 40 416 - 3.4;
#X obj 49 439 / 0.7;
#X obj 40 492 clip 0 100;
#X obj 168 321 loadbang;
#X obj 141 480 change -1;
#X obj 71 218 s accel\$1;
#X obj 96 260 list prepend \$1;
#X obj 96 284 s ACCEL;
#X obj 14 170 getchr;
#X obj 14 256 / 256;
#X obj 518 221 unpack f f f f;
#X floatatom 558 268 5 0 0 0 - - -;
#X obj 483 170 getint;
#X floatatom 467 249 5 0 0 0 - - -;
#X msg 297 488 on \$1;
#X msg 361 484 euler \$1 \$2 \$3;
#X obj 297 533 outlet;
#X obj 518 328 change;
#X obj 518 352 * -1;
#X obj 518 376 + 255;
#N canvas 654 104 546 300 key 0;
#X obj 53 16 inlet;
#X obj 53 40 t f f f f f f f f, f 53;
#X obj 53 64 & 1;
#X obj 53 88 change;
#X msg 53 146 0 \$1;
#X obj 105 87 change;
#X obj 158 89 change;
#X obj 210 88 change;
#X obj 263 90 change;
#X obj 315 89 change;
#X obj 368 91 change;
#X obj 420 90 change;
#X obj 104 63 & 2;
#X obj 158 65 & 4;
#X obj 210 64 & 8;
#X obj 263 66 & 16;
#X obj 315 65 & 32;
#X obj 368 67 & 64;
#X obj 420 66 & 128;
#X msg 105 145 1 \$1;
#X msg 158 147 2 \$1;
#X msg 210 145 3 \$1;
#X msg 263 148 4 \$1;
#X msg 368 149 6 \$1;
#X obj 53 226 outlet;
#X obj 53 117 != 0;
#X obj 105 116 != 0;
#X obj 158 118 != 0;
#X obj 210 116 != 0;
#X obj 263 119 != 0;
#X obj 314 118 != 0;
#X obj 368 120 != 0;
#X obj 420 119 != 0;
#X msg 420 148 5 \$1;
#X msg 314 147 7 \$1;
#X connect 0 0 1 0;
#X connect 1 0 2 0;
#X connect 1 1 12 0;
#X connect 1 2 13 0;
#X connect 1 3 14 0;
#X connect 1 4 15 0;
#X connect 1 5 16 0;
#X connect 1 6 17 0;
#X connect 1 7 18 0;
#X connect 2 0 3 0;
#X connect 3 0 25 0;
#X connect 4 0 24 0;
#X connect 5 0 26 0;
#X connect 6 0 27 0;
#X connect 7 0 28 0;
#X connect 8 0 29 0;
#X connect 9 0 30 0;
#X connect 10 0 31 0;
#X connect 11 0 32 0;
#X connect 12 0 5 0;
#X connect 13 0 6 0;
#X connect 14 0 7 0;
#X connect 15 0 8 0;
#X connect 16 0 9 0;
#X connect 17 0 10 0;
#X connect 18 0 11 0;
#X connect 19 0 24 0;
#X connect 20 0 24 0;
#X connect 21 0 24 0;
#X connect 22 0 24 0;
#X connect 23 0 24 0;
#X connect 25 0 4 0;
#X connect 26 0 19 0;
#X connect 27 0 20 0;
#X connect 28 0 21 0;
#X connect 29 0 22 0;
#X connect 30 0 34 0;
#X connect 31 0 23 0;
#X connect 32 0 33 0;
#X connect 33 0 24 0;
#X connect 34 0 24 0;
#X restore 566 459 pd key;
#X msg 566 483 key \$1 \$2;
#X msg 481 482 souffle \$1;
#X obj 206 576 print;
#X obj 329 60 declare -path quaternion;
#X floatatom 379 413 5 0 0 0 - - -;
#X obj 410 337 / 960;
#X obj 410 361 clip 0 1;
#X obj 410 385 change;
#X obj 410 313 - 65;
#X connect 0 0 1 0;
#X connect 1 0 35 0;
#X connect 1 0 53 0;
#X connect 2 0 3 0;
#X connect 3 0 4 0;
#X connect 4 0 1 1;
#X connect 5 0 3 0;
#X connect 6 0 54 0;
#X connect 7 0 30 0;
#X connect 9 0 6 0;
#X connect 10 0 17 0;
#X connect 10 1 11 0;
#X connect 11 0 17 1;
#X connect 11 1 12 0;
#X connect 12 0 17 2;
#X connect 13 0 23 0;
#X connect 13 1 14 0;
#X connect 14 0 24 0;
#X connect 14 1 15 0;
#X connect 15 0 25 0;
#X connect 15 1 16 0;
#X connect 16 0 26 0;
#X connect 16 1 57 0;
#X connect 17 0 50 0;
#X connect 17 0 51 0;
#X connect 18 0 19 0;
#X connect 19 0 27 0;
#X connect 20 0 22 0;
#X connect 20 1 28 0;
#X connect 20 2 21 0;
#X connect 23 0 18 0;
#X connect 24 0 18 1;
#X connect 25 0 18 2;
#X connect 26 0 18 3;
#X connect 27 0 60 0;
#X connect 29 0 31 0;
#X connect 29 1 8 0;
#X connect 29 1 45 0;
#X connect 29 2 33 0;
#X connect 30 0 29 0;
#X connect 31 0 32 0;
#X connect 32 0 30 1;
#X connect 33 0 30 1;
#X connect 35 0 36 0;
#X connect 35 1 38 0;
#X connect 36 0 37 0;
#X connect 37 0 49 0;
#X connect 38 0 49 0;
#X connect 40 0 41 0;
#X connect 41 0 39 0;
#X connect 42 0 47 0;
#X connect 43 0 44 0;
#X connect 44 0 39 0;
#X connect 45 0 46 0;
#X connect 46 0 42 0;
#X connect 47 0 43 0;
#X connect 48 0 37 0;
#X connect 49 0 40 0;
#X connect 49 0 59 0;
#X connect 51 0 52 0;
#X connect 53 0 9 0;
#X connect 53 1 13 0;
#X connect 54 0 7 0;
#X connect 55 0 34 0;
#X connect 55 0 62 0;
#X connect 55 1 56 0;
#X connect 57 0 58 0;
#X connect 57 0 74 0;
#X connect 57 1 55 0;
#X connect 59 0 61 0;
#X connect 60 0 61 0;
#X connect 62 0 63 0;
#X connect 63 0 64 0;
#X connect 64 0 65 0;
#X connect 65 0 66 0;
#X connect 66 0 61 0;
#X connect 67 0 61 0;
#X connect 71 0 72 0;
#X connect 72 0 73 0;
#X connect 72 0 70 0;
#X connect 73 0 67 0;
#X connect 74 0 71 0;
#X coords 0 -1 1 1 100 40 1 100 100;
