#N canvas 455 409 732 436 12;
#X declare -path ViolonFW;
#X obj 42 62 drv \$1;
#X obj 24 201 route 0 1 2, f 15;
#X floatatom 24 225 5 0 0 0 - - -;
#X floatatom 64 226 5 0 0 0 - - -;
#X floatatom 104 227 5 0 0 0 - - -;
#X obj 148 235 tgl 15 0 empty empty empty 17 7 0 10 -262144 -1 -1 0
1;
#X obj 172 235 tgl 15 0 empty empty empty 17 7 0 10 -262144 -1 -1 0
1;
#X obj 190 235 tgl 15 0 empty empty empty 17 7 0 10 -262144 -1 -1 0
1;
#X obj 208 235 tgl 15 0 empty empty empty 17 7 0 10 -262144 -1 -1 0
1;
#X obj 226 235 tgl 15 0 empty empty empty 17 7 0 10 -262144 -1 -1 0
1;
#X obj 244 236 tgl 15 0 empty empty empty 17 7 0 10 -262144 -1 -1 0
1;
#X obj 97 305 corde \$0 0;
#X obj 186 305 corde \$0 1;
#X obj 272 304 corde \$0 2;
#X obj 39 148 s \$0-ctl;
#X obj 113 368 *~;
#X obj 42 265 pow 2;
#X msg 42 289 \$1 20;
#X obj 42 313 line~;
#X obj 113 392 throw~ outL;
#X obj 172 17 declare -path ViolonFW;
#X obj 296 236 tgl 15 0 empty empty empty 17 7 0 10 -262144 -1 -1 0
1;
#X obj 320 236 tgl 15 0 empty empty empty 17 7 0 10 -262144 -1 -1 0
1;
#X obj 345 237 tgl 15 0 empty empty empty 17 7 0 10 -262144 -1 -1 0
1;
#X obj 263 235 tgl 15 0 empty empty empty 17 7 0 10 -262144 -1 -1 0
1;
#X obj 384 206 tgl 15 0 empty empty empty 17 7 0 10 -262144 -1 -1 0
1;
#X obj 148 205 route 0 1 2 3 4 5 6;
#X obj 296 206 route 0 1 2;
#X obj 407 207 route 0 1 2, f 15;
#X floatatom 407 231 5 0 0 0 - - -;
#X floatatom 447 232 5 0 0 0 - - -;
#X floatatom 487 233 5 0 0 0 - - -;
#X obj 24 177 route knob manche pizz switch corde euler, f 100;
#X floatatom 569 231 5 0 0 0 - - -;
#X floatatom 609 232 5 0 0 0 - - -;
#X floatatom 649 233 5 0 0 0 - - -;
#X obj 569 207 unpack f f f, f 15;
#X connect 0 0 14 0;
#X connect 0 0 32 0;
#X connect 1 0 2 0;
#X connect 1 0 16 0;
#X connect 1 1 3 0;
#X connect 1 2 4 0;
#X connect 11 0 15 1;
#X connect 12 0 15 1;
#X connect 13 0 15 1;
#X connect 15 0 19 0;
#X connect 16 0 17 0;
#X connect 17 0 18 0;
#X connect 18 0 15 0;
#X connect 26 0 5 0;
#X connect 26 1 6 0;
#X connect 26 2 7 0;
#X connect 26 3 8 0;
#X connect 26 4 9 0;
#X connect 26 5 10 0;
#X connect 26 6 24 0;
#X connect 27 0 21 0;
#X connect 27 1 22 0;
#X connect 27 2 23 0;
#X connect 28 0 29 0;
#X connect 28 1 30 0;
#X connect 28 2 31 0;
#X connect 32 0 1 0;
#X connect 32 1 26 0;
#X connect 32 2 27 0;
#X connect 32 3 25 0;
#X connect 32 4 28 0;
#X connect 32 5 36 0;
#X connect 36 0 33 0;
#X connect 36 1 34 0;
#X connect 36 2 35 0;
#X coords 0 -1 1 1 120 65 1 40 40;
