#N canvas 590 84 775 500 12;
#X declare -path SimpleFW;
#X obj 24 151 spigot;
#X obj 81 152 tgl 15 0 empty empty empty 17 7 0 10 -262144 -1 -1 1
1;
#X obj 107 151 switch~;
#X obj 175 117 s \$0-ctl;
#X floatatom 42 269 5 0 0 0 - - -;
#X floatatom 82 270 5 0 0 0 - - -;
#X floatatom 122 271 5 0 0 0 - - -;
#X obj 42 245 unpack f f f;
#X obj 328 111 print;
#X obj 266 36 declare -path SimpleFW;
#X obj 45 62 drv \$1;
#X obj 60 119 s Simple\$2-ctl;
#X obj 24 175 route euler acc;
#X floatatom 184 273 5 0 0 0 - - -;
#X floatatom 224 274 5 0 0 0 - - -;
#X floatatom 264 275 5 0 0 0 - - -;
#X obj 184 249 unpack f f f;
#X connect 0 0 12 0;
#X connect 1 0 0 1;
#X connect 1 0 2 0;
#X connect 7 0 4 0;
#X connect 7 1 5 0;
#X connect 7 2 6 0;
#X connect 10 0 0 0;
#X connect 10 0 3 0;
#X connect 10 0 11 0;
#X connect 12 0 7 0;
#X connect 12 1 16 0;
#X connect 16 0 13 0;
#X connect 16 1 14 0;
#X connect 16 2 15 0;
#X coords 0 -1 1 1 120 65 1 40 40;
