#N canvas 461 146 688 552 12;
#X declare -path FluteFW;
#X declare -path iemlib -lib iemlib;
#X obj 319 14 declare -path FluteFW;
#X obj 43 62 drv \$1;
#X obj 25 156 route on euler souffle key;
#X floatatom 112 206 5 0 0 0 - - -;
#X obj 215 211 unpack f f;
#X floatatom 215 235 5 0 0 0 - - -;
#X floatatom 282 236 5 0 0 0 - - -;
#X obj 343 436 moonlib/ssaw~;
#X obj 489 147 table \$0-keys 10;
#X obj 377 292 s \$0-keys;
#X obj 375 195 unpack f f;
#X obj 375 219 t f f;
#X obj 449 268 *;
#X obj 377 268 pack f f;
#X obj 343 335 array max \$0-keys 0 8;
#X obj 343 172 t b a;
#X obj 343 359 * 2;
#X obj 343 383 + 60;
#X obj 343 407 mtof;
#X obj 136 280 - 45;
#X obj 136 307 / 1000;
#X obj 136 334 clip 0 1;
#X obj 136 358 pow 2;
#X obj 343 460 *~;
#X msg 136 382 \$1 20;
#X obj 136 406 line~;
#X obj 343 508 throw~ outL;
#X obj 407 242 + 1;
#X obj 328 41 declare -path iemlib -lib iemlib;
#X obj 525 373 noise~;
#X obj 525 396 lp4_cheb~ 500;
#X obj 418 384 * 4;
#X floatatom 12 263 5 0 0 0 - - -;
#X floatatom 52 264 5 0 0 0 - - -;
#X floatatom 92 265 5 0 0 0 - - -;
#X obj 12 239 unpack f f f, f 15;
#X obj 25 133 spigot 0;
#X obj 172 121 s Flute-ctl;
#X obj 84 113 tgl 15 0 empty empty empty 17 7 0 10 -262144 -1 -1 1
1;
#X obj 94 134 switch~;
#X obj 429 508 throw~ outR;
#X obj 343 484 *~ 0.3;
#X connect 1 0 36 0;
#X connect 1 0 37 0;
#X connect 2 1 35 0;
#X connect 2 2 3 0;
#X connect 2 2 19 0;
#X connect 2 3 4 0;
#X connect 2 3 15 0;
#X connect 4 0 5 0;
#X connect 4 1 6 0;
#X connect 7 0 23 0;
#X connect 10 0 11 0;
#X connect 10 1 12 1;
#X connect 11 0 13 0;
#X connect 11 1 27 0;
#X connect 12 0 13 1;
#X connect 13 0 9 0;
#X connect 14 0 16 0;
#X connect 15 0 14 0;
#X connect 15 1 10 0;
#X connect 16 0 17 0;
#X connect 17 0 18 0;
#X connect 18 0 7 0;
#X connect 18 0 31 0;
#X connect 19 0 20 0;
#X connect 20 0 21 0;
#X connect 21 0 22 0;
#X connect 22 0 24 0;
#X connect 23 0 41 0;
#X connect 24 0 25 0;
#X connect 25 0 23 1;
#X connect 27 0 12 0;
#X connect 29 0 30 0;
#X connect 30 0 23 0;
#X connect 31 0 30 1;
#X connect 35 0 32 0;
#X connect 35 1 33 0;
#X connect 35 2 34 0;
#X connect 36 0 2 0;
#X connect 38 0 36 1;
#X connect 38 0 39 0;
#X connect 41 0 26 0;
#X connect 41 0 40 0;
#X coords 0 -1 1 1 120 65 1 40 40;
