#N canvas 1 81 780 617 12;
#X obj 71 152 spigot;
#X obj 192 42 tgl 15 0 empty empty empty 17 7 0 10 -262144 -1 -1 1
1;
#X obj 253 162 switch~;
#X obj 170 188 s \$0-ctl;
#X obj 195 585 throw~ outR;
#X obj 504 288 r \$0-ctl;
#X obj 652 425 table \$0-keys 10;
#X obj 538 458 s \$0-keys;
#X obj 536 361 unpack f f;
#X obj 536 385 t f f;
#X obj 610 434 *;
#X obj 538 434 pack f f;
#X obj 504 501 array max \$0-keys 0 8;
#X obj 504 338 t b a;
#X obj 568 408 + 1;
#X obj 504 525 s \$0-mancheNote;
#X obj 48 191 spigot;
#X obj 100 192 tgl 15 0 empty empty empty 17 7 0 10 -262144 -1 -1 0
1;
#X obj 321 272 pow 2;
#X msg 321 320 \$1 20;
#X obj 321 344 line~;
#X obj 90 370 *~;
#X obj 111 505 rev1~, f 10;
#X obj 186 523 loadbang;
#X obj 382 284 pow 2;
#X msg 382 332 \$1 20;
#X obj 382 356 line~;
#X obj 109 401 *~;
#X obj 91 547 +~;
#X msg 169 163 run \$1;
#X obj 48 115 r Flute-ctl;
#X obj 48 214 route on euler souffle key;
#X floatatom 136 246 5 0 0 0 - - -;
#X obj 195 247 unpack f f;
#X floatatom 195 271 5 0 0 0 - - -;
#X floatatom 262 272 5 0 0 0 - - -;
#X floatatom 68 296 5 0 0 0 - - -;
#X floatatom 108 297 5 0 0 0 - - -;
#X floatatom 148 298 5 0 0 0 - - -;
#X obj 68 272 unpack f f f, f 15;
#X obj 106 42 hsl 80 15 0 1 0 1 empty empty volume 5 8 0 10 -258113
-1 -257985 3300 1;
#X obj 106 61 hsl 80 15 0 1 0 1 empty empty reverb 5 8 0 10 -4034 -1
-258113 4200 1;
#X obj 90 346 tube_anche 0 \$0;
#X obj 504 312 route key;
#X floatatom 484 559 5 0 0 0 - - -;
#X obj 111 424 delwrite~ \$0-del 1000;
#X obj 115 457 delread~ \$0-del 250;
#X obj 110 482 lop~ 1000;
#X msg 257 556 10;
#X obj 382 308 * 0.5;
#X msg 186 546 60;
#X obj 106 81 hsl 80 15 0 1 0 1 \$0-transpo \$0-transpo transpo 5 8
0 10 -204800 -1 -258113 4400 1;
#X obj 321 296 * 0.1;
#X obj 91 585 throw~ out\$1;
#X obj 247 23 loadbang;
#X msg 247 47 1;
#X obj 322 447 rem tube_anche2 0 \$0-;
#X connect 0 0 3 0;
#X connect 1 0 0 1;
#X connect 1 0 2 0;
#X connect 1 0 29 0;
#X connect 5 0 43 0;
#X connect 8 0 9 0;
#X connect 8 1 10 1;
#X connect 9 0 11 0;
#X connect 9 1 14 0;
#X connect 10 0 11 1;
#X connect 11 0 7 0;
#X connect 12 0 15 0;
#X connect 12 0 44 0;
#X connect 13 0 12 0;
#X connect 13 1 8 0;
#X connect 14 0 10 0;
#X connect 16 0 31 0;
#X connect 17 0 16 1;
#X connect 18 0 52 0;
#X connect 19 0 20 0;
#X connect 20 0 21 1;
#X connect 21 0 27 0;
#X connect 21 0 28 0;
#X connect 22 0 28 0;
#X connect 23 0 50 0;
#X connect 24 0 49 0;
#X connect 25 0 26 0;
#X connect 26 0 27 1;
#X connect 27 0 45 0;
#X connect 28 0 53 0;
#X connect 29 0 3 0;
#X connect 30 0 0 0;
#X connect 30 0 16 0;
#X connect 31 1 39 0;
#X connect 31 2 32 0;
#X connect 31 3 33 0;
#X connect 33 0 34 0;
#X connect 33 1 35 0;
#X connect 39 0 36 0;
#X connect 39 1 37 0;
#X connect 39 2 38 0;
#X connect 40 0 18 0;
#X connect 41 0 24 0;
#X connect 42 0 21 0;
#X connect 43 0 13 0;
#X connect 46 0 47 0;
#X connect 47 0 22 0;
#X connect 48 0 22 1;
#X connect 49 0 25 0;
#X connect 50 0 22 1;
#X connect 52 0 19 0;
#X connect 54 0 55 0;
#X connect 55 0 1 0;
#X coords 0 -1 1 1 110 85 1 100 20;
