#N canvas 649 81 814 662 10;
#X declare -path cyclone -lib cyclone;
#X declare -path iemlib -lib iemlib;
#X declare -path creb -lib creb;
#X obj 193 589 mull~ 0 50;
#X msg 312 518 1000;
#X msg 311 537 3000;
#X msg 311 556 5000;
#X msg 311 575 8000;
#X obj 194 563 lop~ 5000;
#X obj 49 534 hsl 128 15 0.08 8 1 0 empty empty empty -2 -6 0 8 -262144
-1 -1 0 1;
#X obj 97 589 *~ 8;
#X obj 161 297 mtof;
#X obj 193 489 mull~ 1;
#X obj 354 572 hsl 128 15 0 1 0 1 empty empty empty -2 -8 0 10 -262144
-1 -1 4500 1;
#X obj 350 593 pow 2;
#X obj 194 613 hip~ 100;
#X obj 480 287 hsl 128 15 0 1 0 0 empty empty blow -2 -8 0 10 -262144
-1 -1 0 1;
#X obj 311 317 hsl 128 15 0 1 0 0 empty empty string_pos -2 -8 0 10
-262144 -1 -1 0 1;
#X obj 505 415 hsl 128 15 0 1 0 1 empty empty caisse -2 -8 0 10 -262144
-1 -1 0 1;
#X obj 233 244 hsl 128 15 10 1000 1 1 empty empty sustain -2 -8 0 10
-262144 -1 -1 8100 1;
#X obj 97 567 lop~ 600;
#X obj 192 515 z~ 64;
#X obj 193 540 *~;
#X obj 194 460 hip~ 30;
#X obj 237 516 limiter~ 5;
#X obj 30 40 declare -path cyclone -lib cyclone;
#X obj 30 18 declare -path iemlib -lib iemlib;
#X obj 30 62 declare -path creb -lib creb;
#X obj 445 368 hsl 128 15 0 1 0 1 empty empty force -2 -8 0 10 -262144
-1 -1 900 1;
#X obj 576 84 unpack f f f, f 28;
#X floatatom 553 112 5 0 0 0 - - -;
#X floatatom 664 108 5 0 0 0 - - -;
#X obj 193 634 outlet~;
#X obj 520 43 r \$2-ctl;
#X obj 259 14 r \$2-mancheNote;
#X obj 259 150 +;
#X obj 315 116 t b f;
#X obj 315 92 * 40;
#X obj 161 214 +, f 17;
#X floatatom 392 199 5 0 0 0 - - -;
#X obj 259 196 gammeRound /GAMME 30;
#X obj 365 114 sel 0 1;
#X msg 365 137 set /DODECA;
#X msg 384 159 set /GAMME;
#X obj 520 64 route souffle euler;
#X floatatom 505 136 5 0 0 0 - - -;
#X obj 259 171 + 30.1238;
#X obj 259 37 * 2.1237;
#X obj 318 68 hsl 128 15 0 1 0 0 empty empty transpo -2 -8 0 10 -262144
-1 -1 0 1;
#X floatatom 739 107 5 0 0 0 - - -;
#X obj 648 139 - 90;
#X obj 648 160 / 60;
#X obj 648 181 clip 0 1;
#X obj 315 35 r \$2-transpo;
#X msg 161 376 1000 \$1;
#X obj 161 398 /;
#X obj 230 329 max 1;
#X obj 230 349 t b f;
#X obj 230 371 /;
#X msg 230 393 0.01 \$1;
#X obj 171 342 init 440;
#X obj 171 324 bng 15 250 50 0 empty empty empty 0 -6 0 8 -262144 -1
-1;
#X floatatom 240 285 5 0 0 0 - - -;
#X obj 242 265 init 15;
#X obj 240 304 * 10;
#N canvas 795 249 273 372 detune 0;
#X obj 108 37 inlet;
#X obj 38 329 outlet;
#X obj 39 39 r \$2-ctl;
#X obj 64 193 cos;
#X obj 39 84 metro 10;
#X obj 39 106 f, f 12;
#X obj 39 127 * 0.2;
#X obj 39 148 +;
#X obj 67 148 * 0.8;
#X obj 38 215 t f f;
#X obj 66 258 +;
#X obj 38 282 -;
#X obj 38 305 * 0.4;
#X obj 38 171 / 1.5;
#X obj 94 258 * 0.8;
#X obj 66 237 * 0.2;
#X obj 39 59 route run;
#X obj 11 54 tgl 15 0 empty empty empty 17 7 0 10 -262144 -1 -1 1 1
;
#X connect 0 0 5 1;
#X connect 2 0 16 0;
#X connect 3 0 9 0;
#X connect 4 0 5 0;
#X connect 5 0 6 0;
#X connect 6 0 7 0;
#X connect 7 0 8 0;
#X connect 7 0 13 0;
#X connect 8 0 7 1;
#X connect 9 0 11 0;
#X connect 9 1 15 0;
#X connect 10 0 11 1;
#X connect 10 0 14 0;
#X connect 11 0 12 0;
#X connect 12 0 1 0;
#X connect 13 0 9 0;
#X connect 14 0 10 1;
#X connect 15 0 10 0;
#X connect 16 0 4 0;
#X connect 17 0 4 0;
#X restore 161 195 pd detune;
#N canvas 1 162 274 273 attack 0;
#X obj 33 17 inlet;
#X obj 71 69 b;
#X obj 82 42 bng 15 250 50 0 empty empty empty 0 -6 0 8 -262144 -1
-1;
#X floatatom 103 67 5 0 0 0 - - -;
#X floatatom 95 114 5 0 0 0 - - -;
#X obj 88 152 lop~ 100;
#X obj 71 93 ead~ 2 0.2;
#X obj 70 204 outlet~;
#X connect 0 0 1 0;
#X connect 1 0 6 0;
#X connect 2 0 1 0;
#X connect 3 0 6 1;
#X connect 4 0 6 2;
#X connect 5 0 7 0;
#X connect 6 0 5 0;
#X connect 6 0 7 0;
#X restore 646 285 pd attack;
#X obj 286 368 pow 3;
#X obj 286 408 + 1;
#X obj 286 387 * 30;
#N canvas 1 81 469 483 souffle 0;
#X obj 33 17 inlet;
#X obj 59 289 outlet~;
#X obj 57 150 line~;
#X msg 57 130 \$1 5;
#X obj 59 256 *~ 5;
#X obj 58 203 hip~ 2;
#X obj 130 234 *~;
#X obj 145 148 noise~;
#X obj 145 190 +~ 1;
#X obj 58 226 lop~ 10;
#X obj 145 169 *~ 1;
#X floatatom 195 160 5 0 0 0 - - -;
#X obj 57 173 lop~ 10;
#X obj 57 106 / 100;
#X connect 0 0 13 0;
#X connect 2 0 12 0;
#X connect 3 0 2 0;
#X connect 4 0 1 0;
#X connect 5 0 9 0;
#X connect 6 0 1 0;
#X connect 7 0 10 0;
#X connect 8 0 6 1;
#X connect 9 0 4 0;
#X connect 10 0 8 0;
#X connect 11 0 10 1;
#X connect 12 0 5 0;
#X connect 12 0 6 0;
#X connect 13 0 3 0;
#X restore 453 319 pd souffle;
#X obj 439 396 pow 2;
#N canvas 97 100 799 643 tube 1;
#X obj 56 442 outlet~;
#X obj 129 392 delwrite~ \$0-corde 100;
#X floatatom 261 219 5 0 0 0 - - -;
#X obj 531 608 outlet~;
#X floatatom 349 116 5 0 0 0 - - -;
#X floatatom 245 119 5 0 0 0 - - -;
#X floatatom 292 256 5 0 0 0 - - -;
#X obj 79 99 vd~ \$0-corde 100;
#X obj 210 91 vd~ \$0-corde 100;
#X obj 210 151 lop~ 8000;
#X obj 191 67 / 3;
#X obj 191 39 t b f;
#X obj 35 66 line~;
#X msg 35 46 \$1 5;
#X obj 210 123 *~ 4;
#X obj 209 219 *~ 1;
#X msg 513 198 0;
#X obj 331 610 delwrite~ \$0-caisse 100;
#X obj 209 247 lop~ 20000;
#X msg 289 142 8000;
#X obj 632 307 delread~ \$0-caisse 3.21211;
#X obj 644 331 delread~ \$0-caisse 0.53143;
#X obj 55 420 lp4_butt~ 18000;
#X obj 623 402 *~ 0.3;
#X obj 663 353 delread~ \$0-caisse 11.743;
#X obj 667 284 unpack f f f f;
#X msg 690 377 0.1;
#X msg 721 378 0.2;
#X msg 753 377 0.3;
#X msg 783 377 0.33;
#X msg 662 378 0;
#X msg 308 214 20000;
#X msg 309 235 5000;
#X msg 667 205 3.21121 0.53143 0.757 0.2;
#X obj 128 358 lop~ 12000;
#X obj 24 155 /;
#X obj 24 176 min 20000;
#X obj 622 360 +~ 0;
#X obj 54 391 hip~ 15;
#X obj 193 337 f;
#X obj 697 177 loadbang;
#X obj 150 149 lop~ 100;
#X msg 676 227 5.21121 0.63143 7.757 0.1;
#X floatatom 845 356 5 0 0 0 - - -;
#X floatatom 831 335 5 0 0 0 - - -;
#X floatatom 819 310 5 0 0 0 - - -;
#X obj 869 304 bng 15 250 50 0 empty empty empty 0 -6 0 8 -262144 -1
-1;
#X msg 686 249 7.21121 0.93143 14.757 0.1;
#N canvas 66 179 283 224 caisse 0;
#X obj 52 113 maxlib/scale 0 1 0.53143 0.93143;
#X obj 78 23 hsl 128 15 0 1 0 0 empty empty empty -2 -6 0 8 -262144
-1 -1 0 1;
#X obj 78 93 maxlib/scale 0 1 0.757 14.757 1;
#X obj 26 136 maxlib/scale 0 1 3.2113 7.211 1;
#X obj 26 53 t f f;
#X obj 105 69 maxlib/scale 0 1 0.2 0.1;
#X obj 26 23 inlet;
#X obj 26 166 pack f f f f;
#X obj 26 190 outlet;
#X connect 0 0 7 1;
#X connect 1 0 4 0;
#X connect 2 0 7 2;
#X connect 3 0 7 0;
#X connect 4 0 3 0;
#X connect 4 1 0 0;
#X connect 4 1 2 0;
#X connect 4 1 5 0;
#X connect 5 0 7 3;
#X connect 6 0 4 0;
#X connect 7 0 8 0;
#X restore 789 150 pd caisse;
#X obj 656 14 inlet caisee;
#X obj 128 310 clip~ -10 10;
#X obj 209 273 bp~ 800 0.1;
#X obj 235 68 line~;
#X floatatom 460 102 5 0 0 0 - - -;
#X msg 235 48 \$1 5;
#X floatatom 36 107 5 0 0 0 - - -;
#X obj 210 183 fexpr~ if ( ($y+$x) >= $f3 \, 0 \, $y+$x2 );
#X msg 24 135 50000 \$1;
#X obj 97 174 *~ -1;
#X obj 24 10 inlet note;
#X obj 105 12 inlet sustain;
#X obj 238 6 inlet string_pos;
#X obj 390 9 inlet~ excit;
#X obj 482 11 inlet~ blow;
#X obj 565 12 inlet force;
#X obj 40 585 block~ 8 1 2;
#X obj 127 229 *~ 0;
#X obj 476 325 ac;
#X floatatom 576 106 5 0 0 0 - - -;
#N canvas 403 126 450 300 eqution_tube 1;
#X text 78 32 Pb(t): pression bouche;
#X text 79 48 Pt(t): pression tube(niveau bouche);
#X text 80 67 O(t): ouverture levres;
#X text 80 97 T: periode résonance tube;
#X text 80 83 F= force rappel levres;
#X text 44 125 O = fonction(Pb \, Pt \, F): O = k.max((Pb-Pt) - F \,
0);
#X restore 530 433 pd eqution_tube;
#X connect 2 0 15 1;
#X connect 5 0 14 1;
#X connect 6 0 18 1;
#X connect 7 0 38 0;
#X connect 7 0 58 0;
#X connect 8 0 14 0;
#X connect 9 0 56 0;
#X connect 10 0 54 0;
#X connect 11 0 10 0;
#X connect 11 1 10 1;
#X connect 12 0 7 0;
#X connect 13 0 12 0;
#X connect 14 0 9 0;
#X connect 14 0 41 0;
#X connect 15 0 18 0;
#X connect 16 0 56 2;
#X connect 18 0 3 0;
#X connect 18 0 51 0;
#X connect 19 0 9 1;
#X connect 20 0 37 0;
#X connect 21 0 37 0;
#X connect 22 0 0 0;
#X connect 24 0 37 0;
#X connect 25 0 20 0;
#X connect 25 1 21 0;
#X connect 25 2 24 0;
#X connect 25 3 23 1;
#X connect 26 0 23 1;
#X connect 27 0 23 1;
#X connect 28 0 23 1;
#X connect 29 0 23 1;
#X connect 30 0 23 1;
#X connect 31 0 6 0;
#X connect 32 0 6 0;
#X connect 33 0 25 0;
#X connect 34 0 1 0;
#X connect 34 0 17 0;
#X connect 35 0 36 0;
#X connect 36 0 39 0;
#X connect 36 0 18 1;
#X connect 37 0 23 0;
#X connect 38 0 22 0;
#X connect 39 0 34 1;
#X connect 40 0 33 0;
#X connect 41 0 56 0;
#X connect 42 0 25 0;
#X connect 43 0 24 0;
#X connect 44 0 21 0;
#X connect 45 0 20 0;
#X connect 46 0 45 0;
#X connect 46 0 44 0;
#X connect 46 0 43 0;
#X connect 47 0 25 0;
#X connect 48 0 25 0;
#X connect 49 0 48 0;
#X connect 50 0 34 0;
#X connect 51 0 17 0;
#X connect 51 0 50 0;
#X connect 52 0 8 0;
#X connect 53 0 56 2;
#X connect 54 0 52 0;
#X connect 55 0 57 0;
#X connect 56 0 15 0;
#X connect 57 0 35 0;
#X connect 58 0 66 0;
#X connect 59 0 10 0;
#X connect 59 0 13 0;
#X connect 59 0 57 0;
#X connect 60 0 66 1;
#X connect 61 0 11 0;
#X connect 62 0 17 0;
#X connect 62 0 14 0;
#X connect 62 0 50 0;
#X connect 63 0 56 1;
#X connect 63 0 67 0;
#X connect 64 0 56 2;
#X connect 64 0 68 0;
#X connect 66 0 50 0;
#X restore 194 438 pd tube;
#X f 49;
#X floatatom 203 125 5 0 0 0 - - -;
#X obj 44 377 osc~;
#X obj 439 491 mull~ 0 50;
#X obj 600 474 hsl 128 15 0 1 0 1 empty empty empty -2 -8 0 10 -262144
-1 -1 0 1;
#X obj 596 495 pow 2;
#X floatatom 80 233 5 0 0 0 - - -;
#X obj 648 254 bng 15 250 50 0 empty empty empty 17 7 0 10 -262144
-1 -1;
#X obj 439 416 * 10;
#X floatatom 340 386 5 0 0 0 - - -;
#X obj 231 412 pow;
#X connect 0 0 12 0;
#X connect 1 0 5 1;
#X connect 2 0 5 1;
#X connect 3 0 5 1;
#X connect 4 0 5 1;
#X connect 5 0 0 0;
#X connect 6 0 7 1;
#X connect 7 0 0 0;
#X connect 8 0 51 0;
#X connect 8 0 71 0;
#X connect 9 0 18 0;
#X connect 9 0 21 0;
#X connect 10 0 11 0;
#X connect 11 0 0 1;
#X connect 12 0 29 0;
#X connect 13 0 67 0;
#X connect 14 0 64 0;
#X connect 15 0 69 6;
#X connect 16 0 53 0;
#X connect 17 0 7 0;
#X connect 18 0 19 0;
#X connect 19 0 5 0;
#X connect 19 0 17 0;
#X connect 20 0 9 0;
#X connect 21 0 19 1;
#X connect 25 0 68 0;
#X connect 26 0 27 0;
#X connect 26 0 62 0;
#X connect 26 1 28 0;
#X connect 26 1 47 0;
#X connect 26 2 46 0;
#X connect 30 0 41 0;
#X connect 31 0 44 0;
#X connect 32 0 43 0;
#X connect 33 0 32 0;
#X connect 33 1 32 1;
#X connect 34 0 33 0;
#X connect 35 0 8 0;
#X connect 36 0 37 1;
#X connect 37 0 35 1;
#X connect 38 0 39 0;
#X connect 38 1 40 0;
#X connect 39 0 37 0;
#X connect 40 0 37 0;
#X connect 41 0 42 0;
#X connect 41 0 67 0;
#X connect 41 1 26 0;
#X connect 43 0 37 0;
#X connect 44 0 32 0;
#X connect 45 0 34 0;
#X connect 47 0 48 0;
#X connect 48 0 49 0;
#X connect 49 0 14 0;
#X connect 50 0 45 0;
#X connect 51 0 52 0;
#X connect 52 0 55 0;
#X connect 52 0 69 0;
#X connect 53 0 54 0;
#X connect 54 0 55 0;
#X connect 54 1 55 1;
#X connect 55 0 56 0;
#X connect 56 0 79 0;
#X connect 57 0 51 0;
#X connect 58 0 57 0;
#X connect 59 0 61 0;
#X connect 60 0 59 0;
#X connect 61 0 53 0;
#X connect 62 0 35 0;
#X connect 63 0 69 3;
#X connect 64 0 66 0;
#X connect 65 0 69 2;
#X connect 65 0 78 0;
#X connect 66 0 65 0;
#X connect 67 0 69 4;
#X connect 68 0 77 0;
#X connect 69 0 20 0;
#X connect 70 0 32 0;
#X connect 71 0 72 0;
#X connect 72 0 29 0;
#X connect 73 0 74 0;
#X connect 74 0 72 1;
#X connect 76 0 63 0;
#X connect 77 0 69 5;
#X connect 79 0 69 1;
