#N canvas 28 81 1119 662 10;
#X declare -path cyclone -lib cyclone;
#X declare -path iemlib -lib iemlib;
#X declare -path creb -lib creb;
#X obj 53 171 * 100;
#X obj 53 191 + 18;
#X obj 180 458 mull~ 0 50;
#X msg 322 388 1000;
#X msg 321 407 3000;
#X msg 321 426 5000;
#X msg 321 445 8000;
#X obj 181 432 lop~ 5000;
#X obj 38 478 hsl 128 15 0.08 8 1 0 empty empty empty -2 -6 0 8 -262144
-1 -1 0 1;
#X obj 84 458 *~ 8;
#X floatatom 30 335 5 0 0 0 - - -;
#X obj 711 488 mtof;
#X obj 180 358 mull~ 1;
#X obj 397 350 hsl 128 15 0 1 0 1 empty empty empty -2 -8 0 10 -262144
-1 -1 10300 1;
#X obj 393 371 pow 2;
#X obj 181 489 hip~ 100;
#X obj 257 128 hsl 128 15 0 1 0 0 empty empty blow -2 -8 0 10 -262144
-1 -1 0 1;
#X floatatom 220 80 5 0 0 0 - - -;
#X obj 226 55 hsl 128 15 0 1 0 0 empty empty string_pos -2 -8 0 10
-262144 -1 -1 3080 1;
#X obj 341 230 hsl 128 15 0 1 0 1 empty empty caisse -2 -8 0 10 -262144
-1 -1 8336 1;
#X obj 36 134 hsl 128 15 10 1000 1 1 empty empty sustain -2 -8 0 10
-262144 -1 -1 9800 1;
#X obj 84 436 lop~ 600;
#X obj 179 384 z~ 64;
#X obj 180 409 *~;
#X obj 181 329 hip~ 30;
#X obj 224 385 limiter~ 5;
#X obj 429 421 declare -path cyclone -lib cyclone;
#X obj 429 399 declare -path iemlib -lib iemlib;
#X obj 429 443 declare -path creb -lib creb;
#X obj 467 560 osc~;
#X obj 467 585 *~ 0.02;
#X obj 472 539 * 1;
#X obj 304 196 hsl 128 15 0 1 0 1 empty empty force -2 -8 0 10 -262144
-1 -1 3200 1;
#X obj 784 87 unpack f f f, f 28;
#X floatatom 765 139 5 0 0 0 - - -;
#X floatatom 876 121 5 0 0 0 - - -;
#X floatatom 950 234 5 0 0 0 - - -;
#X obj 180 528 outlet~;
#X obj 599 4 r \$2-ctl;
#X obj 857 143 moses 0;
#X obj 857 165 + 180;
#X obj 898 165 - 180;
#X obj 857 228 clip 0 1;
#X obj 949 121 / 40;
#X obj 949 205 clip 0 1;
#X obj 949 156 + 0.7;
#X obj 755 260 r \$2-mancheNote;
#X obj 768 315 +;
#X obj 868 295 loadbang;
#X obj 868 316 f \$1;
#X obj 933 294 r \$2-ctl;
#X obj 933 336 route 2;
#X obj 768 381 +;
#X obj 790 351 t b f;
#X obj 868 337 * 7;
#X obj 838 374 * 40;
#X obj 888 499 cos;
#X obj 990 361 metro 10;
#X obj 863 412 f;
#X obj 863 433 * 0.2;
#X obj 863 454 +;
#X obj 891 454 * 0.8;
#X floatatom 840 628 8 0 0 0 - - -;
#X obj 862 521 t f f;
#X obj 890 564 +;
#X obj 862 588 -;
#X obj 711 464 +;
#X obj 803 516 * 0.4;
#X obj 862 477 / 1.5;
#X obj 918 564 * 0.8;
#X obj 890 543 * 0.2;
#X obj 660 73 route \$1;
#X obj 857 207 + 1;
#X obj 857 186 / 30;
#X obj 933 314 route knob run;
#X floatatom 762 509 5 0 0 0 - - -;
#X obj 717 431 gammeRound /GAMME 30;
#X obj 566 278 sel 0 1;
#X obj 813 292 + 1;
#X msg 566 301 set /DODECA;
#X msg 604 321 set /GAMME;
#X floatatom 724 343 5 0 0 0 - - -;
#N canvas 544 159 809 584 tube-dsp 0;
#X obj 142 566 outlet~;
#X obj 135 310 pow;
#X obj 311 560 outlet~;
#X msg 55 224 1000 \$1;
#X obj 55 300 /;
#X obj 137 171 max 1;
#X obj 137 194 t b f;
#X obj 135 266 /;
#X msg 135 288 0.01 \$1;
#X obj 18 155 init 440;
#N canvas 36 100 799 643 corde 0;
#X obj 56 442 outlet~;
#X obj 129 392 delwrite~ \$0-corde 100;
#X obj 127 229 *~ 0;
#X obj 141 13 inlet;
#X obj 366 51 inlet~;
#X floatatom 261 219 5 0 0 0 - - -;
#X obj 264 314 outlet~;
#X floatatom 349 116 5 0 0 0 - - -;
#X floatatom 248 129 5 0 0 0 - - -;
#X floatatom 307 225 5 0 0 0 - - -;
#X obj 547 55 inlet;
#X obj 79 99 vd~ \$0-corde 100;
#X obj 210 91 vd~ \$0-corde 100;
#X obj 210 151 lop~ 8000;
#X obj 210 47 / 3;
#X obj 238 6 inlet;
#X obj 192 13 t b f;
#X obj 35 66 line~;
#X msg 35 46 \$1 5;
#X obj 210 123 *~ 4;
#X obj 209 219 *~ 1;
#X msg 513 198 0;
#X obj 331 610 delwrite~ \$0-caisse 100;
#X obj 209 247 lop~ 20000;
#X msg 289 142 8000;
#X obj 21 318 hip~ 1000;
#X obj 365 467 delread~ \$0-caisse 3.21211;
#X obj 377 491 delread~ \$0-caisse 0.53143;
#X obj 245 571 lop~ 4000;
#X obj 55 420 lp4_butt~ 18000;
#X obj 356 562 *~ 0.3;
#X obj 396 513 delread~ \$0-caisse 11.743;
#X obj 400 444 unpack f f f f;
#X msg 423 537 0.1;
#X msg 454 538 0.2;
#X msg 486 537 0.3;
#X msg 516 537 0.33;
#X msg 395 538 0;
#X msg 307 243 20000;
#X msg 340 243 5000;
#X msg 400 365 3.21121 0.53143 0.757 0.2;
#X obj 128 358 lop~ 12000;
#X obj 24 155 /;
#X obj 24 176 min 20000;
#X obj 403 317 line~;
#X obj 244 547 *~;
#X obj 355 520 +~ 0;
#X msg 403 298 \$1 20;
#X obj 54 391 hip~ 15;
#X obj 193 337 f;
#X obj 430 337 loadbang;
#X obj 131 157 lop~ 100;
#X msg 409 387 5.21121 0.63143 7.757 0.1;
#X floatatom 578 516 5 0 0 0 - - -;
#X floatatom 564 495 5 0 0 0 - - -;
#X floatatom 552 470 5 0 0 0 - - -;
#X obj 602 464 bng 15 250 50 0 empty empty empty 0 -6 0 8 -262144 -1
-1;
#X msg 419 409 7.21121 0.93143 14.757 0.1;
#N canvas 66 152 283 224 caisse 0;
#X obj 52 113 maxlib/scale 0 1 0.53143 0.93143;
#X obj 78 23 hsl 128 15 0 1 0 0 empty empty empty -2 -6 0 8 -262144
-1 -1 0 1;
#X obj 78 93 maxlib/scale 0 1 0.757 14.757 1;
#X obj 26 136 maxlib/scale 0 1 3.2113 7.211 1;
#X obj 26 53 t f f;
#X obj 105 69 maxlib/scale 0 1 0.2 0.1;
#X obj 26 23 inlet;
#X obj 26 166 pack f f f f;
#X obj 26 190 outlet;
#X connect 0 0 7 1;
#X connect 1 0 4 0;
#X connect 2 0 7 2;
#X connect 3 0 7 0;
#X connect 4 0 3 0;
#X connect 4 1 0 0;
#X connect 4 1 2 0;
#X connect 4 1 5 0;
#X connect 5 0 7 3;
#X connect 6 0 4 0;
#X connect 7 0 8 0;
#X restore 522 310 pd caisse;
#X obj 590 55 inlet caisee;
#X obj 128 310 clip~ -10 10;
#X obj 310 272 bp~ 800 0.25;
#X obj 209 273 bp~ 800 0.1;
#X obj 251 60 line~;
#X floatatom 460 102 5 0 0 0 - - -;
#X msg 251 40 \$1 5;
#X obj 479 53 inlet~;
#X obj 503 25 block~ 8 1 2;
#X obj 80 12 inlet;
#X floatatom 277 353 5 0 0 0 - - -;
#X floatatom 91 66 5 0 0 0 - - -;
#X obj 692 54 inlet~ exc;
#X obj 210 183 fexpr~ if ( ($y+$x) >= $f3 \, 0 \, $y+$x2 );
#X msg 24 135 50000 \$1;
#X obj 97 174 *~ -1;
#X connect 2 0 60 0;
#X connect 3 0 2 1;
#X connect 4 0 22 0;
#X connect 4 0 19 0;
#X connect 4 0 60 0;
#X connect 5 0 20 1;
#X connect 8 0 19 1;
#X connect 9 0 23 1;
#X connect 10 0 47 0;
#X connect 10 0 72 2;
#X connect 11 0 48 0;
#X connect 11 0 74 0;
#X connect 12 0 19 0;
#X connect 13 0 72 0;
#X connect 14 0 65 0;
#X connect 15 0 16 0;
#X connect 16 0 14 0;
#X connect 16 1 14 1;
#X connect 17 0 11 0;
#X connect 18 0 17 0;
#X connect 19 0 13 0;
#X connect 19 0 51 0;
#X connect 20 0 23 0;
#X connect 21 0 72 2;
#X connect 23 0 6 0;
#X connect 23 0 62 0;
#X connect 24 0 13 1;
#X connect 25 0 19 0;
#X connect 25 0 48 0;
#X connect 26 0 46 0;
#X connect 27 0 46 0;
#X connect 29 0 0 0;
#X connect 30 0 22 0;
#X connect 31 0 46 0;
#X connect 32 0 26 0;
#X connect 32 1 27 0;
#X connect 32 2 31 0;
#X connect 32 3 30 1;
#X connect 33 0 30 1;
#X connect 34 0 30 1;
#X connect 35 0 30 1;
#X connect 36 0 30 1;
#X connect 37 0 30 1;
#X connect 38 0 9 0;
#X connect 39 0 9 0;
#X connect 40 0 32 0;
#X connect 41 0 1 0;
#X connect 41 0 22 0;
#X connect 42 0 43 0;
#X connect 43 0 49 0;
#X connect 43 0 23 1;
#X connect 44 0 45 1;
#X connect 45 0 28 0;
#X connect 46 0 30 0;
#X connect 46 0 45 0;
#X connect 47 0 44 0;
#X connect 48 0 29 0;
#X connect 49 0 41 1;
#X connect 49 0 28 1;
#X connect 50 0 40 0;
#X connect 51 0 72 0;
#X connect 52 0 32 0;
#X connect 53 0 31 0;
#X connect 54 0 27 0;
#X connect 55 0 26 0;
#X connect 56 0 55 0;
#X connect 56 0 54 0;
#X connect 56 0 53 0;
#X connect 57 0 32 0;
#X connect 58 0 32 0;
#X connect 59 0 58 0;
#X connect 60 0 41 0;
#X connect 62 0 22 0;
#X connect 62 0 60 0;
#X connect 63 0 12 0;
#X connect 64 0 72 2;
#X connect 65 0 63 0;
#X connect 66 0 72 1;
#X connect 68 0 14 0;
#X connect 68 0 18 0;
#X connect 68 0 73 0;
#X connect 69 0 73 0;
#X connect 72 0 20 0;
#X connect 73 0 42 0;
#X connect 74 0 2 0;
#X restore 175 528 pd corde;
#X f 25;
#X obj 236 256 b;
#X obj 247 229 bng 15 250 50 0 empty empty empty 0 -6 0 8 -262144 -1
-1;
#X obj 18 137 bng 15 250 50 0 empty empty empty 0 -6 0 8 -262144 -1
-1;
#X floatatom 166 118 5 0 0 0 - - -;
#X obj 465 50 hsl 128 15 0 127 0 0 empty empty empty -2 -6 0 8 -262144
-1 -1 0 1;
#X obj 168 98 init 15;
#X obj 381 203 pow 2;
#X obj 233 129 pow 3;
#X obj 233 169 + 1;
#X obj 233 148 * 30;
#X obj 166 137 * 10;
#X obj 28 38 inlet note;
#X obj 422 85 hsl 128 15 0 1 0 0 empty empty empty -2 -6 0 8 -262144
-1 -1 0 1;
#X obj 435 174 hsl 128 15 0 1 0 0 empty empty empty -2 -6 0 8 -262144
-1 -1 0 1;
#X obj 433 198 pow 2;
#X obj 660 15 inlet caisse;
#X floatatom 250 198 5 0 0 0 - - -;
#X obj 476 302 tgl 15 0 empty empty empty 17 7 0 10 -262144 -1 -1 0
1;
#X obj 466 338 metro 600;
#X obj 120 30 inlet sustain;
#X obj 554 476 print;
#X obj 277 392 line~;
#X msg 277 372 \$1 5;
#X floatatom 364 169 5 0 0 0 - - -;
#X obj 452 17 inlet bow_speed;
#X obj 558 22 inlet force;
#X obj 135 361 * 1;
#X floatatom 268 254 5 0 0 0 - - -;
#X floatatom 302 307 5 0 0 0 - - -;
#X obj 176 352 lop~ 100;
#X obj 236 280 ead~ 2 0.2;
#X obj 712 45 inlet pizz;
#X obj 714 71 sel 0;
#X obj 382 239 * 10;
#X obj 231 13 inlet string_pos;
#X floatatom 532 280 5 0 0 0 - - -;
#X obj 347 11 inlet blow;
#X obj 641 168 tgl 15 0 empty empty empty 17 7 0 10 -262144 -1 -1 0
1;
#X obj 631 204 metro 600;
#X obj 631 238 tgl 15 0 empty empty empty 17 7 0 10 -262144 -1 -1 0
1;
#X obj 264 496 *~ 5;
#X obj 261 448 hip~ 2;
#X obj 493 461 *~;
#X obj 508 375 noise~;
#X obj 508 417 +~ 1;
#X obj 258 471 lop~ 10;
#X obj 508 396 *~ 1;
#X floatatom 558 387 5 0 0 0 - - -;
#X obj 271 419 lop~ 10;
#X floatatom 609 336 8 0 0 0 - - -;
#X obj 588 302 / 100;
#X floatatom 627 394 5 0 0 0 - - -;
#X obj 627 414 / 100;
#X obj 681 299 clip 0 0.3333;
#X obj 681 320 * 3;
#X floatatom 681 353 5 0 0 0 - - -;
#X obj 565 239 pow 1;
#X connect 1 0 37 0;
#X connect 3 0 4 0;
#X connect 4 0 7 0;
#X connect 4 0 10 0;
#X connect 5 0 6 0;
#X connect 6 0 7 0;
#X connect 6 1 7 1;
#X connect 7 0 8 0;
#X connect 8 0 1 0;
#X connect 9 0 3 0;
#X connect 10 0 0 0;
#X connect 10 1 2 0;
#X connect 11 0 41 0;
#X connect 12 0 11 0;
#X connect 13 0 9 0;
#X connect 14 0 21 0;
#X connect 16 0 14 0;
#X connect 17 0 44 0;
#X connect 18 0 20 0;
#X connect 19 0 10 2;
#X connect 19 0 27 0;
#X connect 20 0 19 0;
#X connect 21 0 5 0;
#X connect 22 0 3 0;
#X connect 23 0 18 0;
#X connect 24 0 25 0;
#X connect 25 0 44 0;
#X connect 26 0 10 6;
#X connect 28 0 29 0;
#X connect 29 0 12 0;
#X connect 30 0 5 0;
#X connect 32 0 59 0;
#X connect 33 0 32 0;
#X connect 36 0 17 0;
#X connect 37 0 10 1;
#X connect 38 0 41 1;
#X connect 39 0 41 2;
#X connect 40 0 10 3;
#X connect 41 0 10 3;
#X connect 41 0 40 0;
#X connect 42 0 43 0;
#X connect 43 0 12 0;
#X connect 44 0 10 5;
#X connect 45 0 18 0;
#X connect 47 0 67 0;
#X connect 48 0 49 0;
#X connect 49 0 50 0;
#X connect 50 0 61 0;
#X connect 51 0 10 4;
#X connect 52 0 56 0;
#X connect 53 0 10 4;
#X connect 54 0 57 0;
#X connect 55 0 53 1;
#X connect 56 0 51 0;
#X connect 57 0 55 0;
#X connect 58 0 57 1;
#X connect 59 0 52 0;
#X connect 59 0 53 0;
#X connect 61 0 33 0;
#X connect 62 0 63 0;
#X connect 64 0 65 0;
#X connect 65 0 66 0;
#X connect 67 0 61 0;
#X restore 181 307 pd tube-dsp;
#X f 31;
#X obj 599 25 route souffle euler;
#X floatatom 567 92 5 0 0 0 - - -;
#X floatatom 718 528 5 0 0 0 - - -;
#X obj 768 402 + 30.1238;
#X obj 755 288 * 2.1237;
#X obj 939 411 hsl 128 15 0 1 0 0 empty empty transp -2 -8 0 10 -262144
-1 -1 7073 1;
#X floatatom 985 34 5 0 0 0 - - -;
#X obj 1004 88 abs;
#X obj 1004 130 clip 0 1;
#X obj 1004 109 / 45;
#X obj 702 144 - 90;
#X obj 702 165 / 60;
#X obj 702 186 clip 0 1;
#X obj 977 447 r \$2-transpo;
#X obj 702 121 abs;
#X connect 0 0 1 0;
#X connect 2 0 15 0;
#X connect 3 0 7 1;
#X connect 4 0 7 1;
#X connect 5 0 7 1;
#X connect 6 0 7 1;
#X connect 7 0 2 0;
#X connect 8 0 9 1;
#X connect 9 0 2 0;
#X connect 10 0 21 1;
#X connect 11 0 82 0;
#X connect 11 0 31 0;
#X connect 12 0 22 0;
#X connect 12 0 25 0;
#X connect 13 0 14 0;
#X connect 14 0 2 1;
#X connect 15 0 37 0;
#X connect 18 0 17 0;
#X connect 18 0 82 2;
#X connect 19 0 82 6;
#X connect 20 0 82 1;
#X connect 21 0 9 0;
#X connect 22 0 23 0;
#X connect 23 0 7 0;
#X connect 23 0 21 0;
#X connect 24 0 12 0;
#X connect 25 0 23 1;
#X connect 30 0 15 0;
#X connect 31 0 29 0;
#X connect 32 0 82 5;
#X connect 33 0 58 1;
#X connect 33 1 97 0;
#X connect 33 2 90 0;
#X connect 38 0 83 0;
#X connect 39 0 40 0;
#X connect 39 1 41 0;
#X connect 40 0 73 0;
#X connect 41 0 73 0;
#X connect 42 0 32 0;
#X connect 43 0 45 0;
#X connect 44 0 36 0;
#X connect 44 0 19 0;
#X connect 45 0 44 0;
#X connect 46 0 87 0;
#X connect 47 0 52 0;
#X connect 48 0 49 0;
#X connect 49 0 54 0;
#X connect 50 0 74 0;
#X connect 51 0 55 0;
#X connect 52 0 86 0;
#X connect 53 0 52 0;
#X connect 53 1 52 1;
#X connect 54 0 47 1;
#X connect 55 0 53 0;
#X connect 56 0 63 0;
#X connect 57 0 58 0;
#X connect 58 0 59 0;
#X connect 59 0 60 0;
#X connect 60 0 61 0;
#X connect 60 0 68 0;
#X connect 61 0 60 1;
#X connect 63 0 65 0;
#X connect 63 1 70 0;
#X connect 64 0 65 1;
#X connect 64 0 69 0;
#X connect 65 0 67 0;
#X connect 66 0 11 0;
#X connect 67 0 66 0;
#X connect 68 0 63 0;
#X connect 69 0 64 1;
#X connect 70 0 64 0;
#X connect 71 0 82 7;
#X connect 72 0 42 0;
#X connect 73 0 72 0;
#X connect 74 0 51 0;
#X connect 74 1 57 0;
#X connect 75 0 76 1;
#X connect 76 0 66 1;
#X connect 77 0 79 0;
#X connect 77 1 80 0;
#X connect 78 0 87 1;
#X connect 79 0 76 0;
#X connect 80 0 76 0;
#X connect 81 0 76 0;
#X connect 82 0 24 0;
#X connect 83 0 82 3;
#X connect 83 0 84 0;
#X connect 83 1 33 0;
#X connect 86 0 76 0;
#X connect 87 0 47 0;
#X connect 88 0 55 0;
#X connect 90 0 92 0;
#X connect 92 0 91 0;
#X connect 93 0 94 0;
#X connect 94 0 95 0;
#X connect 95 0 18 0;
#X connect 96 0 88 0;
#X connect 97 0 93 0;
