#N canvas 721 233 1163 658 12;
#X declare -path ../../quaternion;
#X obj 15 21 r fromArduinoDriver;
#X obj 14 146 route 0;
#X obj 60 73 loadbang;
#X obj 60 97 f \$1;
#X obj 60 121 + 48;
#X obj 39 74 bng 15 250 50 0 empty empty empty 17 7 0 10 -262144 -1
-1;
#X obj 14 232 * 2;
#X obj 14 280 * 3.3;
#X floatatom 7 579 5 0 0 1 V - -;
#X obj 14 201 change;
#X obj 823 31 getint;
#X obj 877 31 getint;
#X obj 932 31 getint;
#X obj 249 170 getint;
#X obj 304 170 getint;
#X obj 359 170 getint;
#X obj 414 170 getint;
#X obj 823 55 pack f f f, f 16;
#X obj 249 241 pack f f f f, f 24;
#X obj 249 265 toEuler;
#X obj 309 335 unpack f f f;
#X floatatom 401 375 5 0 0 0 - - -;
#X floatatom 303 378 5 0 0 0 - - -;
#X obj 249 205 / 16384;
#X obj 304 205 / 16384;
#X obj 359 205 / 16384;
#X obj 414 205 / 16384;
#X obj 249 298 rad2deg3;
#X floatatom 351 379 5 0 0 0 - - -;
#X obj 14 338 t b f b, f 15;
#X obj 14 313 spigot 1;
#X obj 14 362 del 250;
#X msg 14 386 1;
#X msg 117 361 0;
#X obj 141 407 t b b;
#X obj 141 431 del 250;
#X msg 141 455 0;
#X msg 173 455 1;
#X obj 103 118 nbx 3 20 -1e+37 1e+37 0 0 empty empty %batt 55 12 0
14 -262144 -1 -1 0 256;
#X obj 141 509 * 15;
#X msg 141 532 color \$1 22 22;
#X obj 40 464 * 100;
#X obj 40 520 i;
#X obj 40 544 change;
#X obj 40 416 - 3.4;
#X obj 49 439 / 0.7;
#X obj 40 492 clip 0 100;
#X obj 168 321 loadbang;
#X obj 141 480 change -1;
#X obj 814 112 s accel\$1;
#X obj 894 88 list prepend \$1;
#X obj 894 112 s ACCEL;
#X obj 329 60 declare -path ../../quaternion;
#X obj 14 170 getchr;
#X obj 14 256 / 256;
#X msg 297 488 on \$1;
#X msg 358 476 euler \$1 \$2 \$3;
#X obj 471 571 outlet;
#X obj 693 304 change;
#X obj 693 328 * -1;
#X obj 693 352 + 255;
#N canvas 188 177 546 300 key 0;
#X obj 53 16 inlet;
#X obj 53 40 t f f f f f f f f, f 53;
#X obj 53 64 & 1;
#X obj 53 88 change;
#X obj 105 87 change;
#X obj 158 89 change;
#X obj 210 88 change;
#X obj 263 90 change;
#X obj 315 89 change;
#X obj 368 91 change;
#X obj 420 90 change;
#X obj 104 63 & 2;
#X obj 158 65 & 4;
#X obj 210 64 & 8;
#X obj 263 66 & 16;
#X obj 315 65 & 32;
#X obj 368 67 & 64;
#X obj 420 66 & 128;
#X msg 263 148 4 \$1;
#X obj 53 226 outlet;
#X obj 53 117 != 0;
#X obj 105 116 != 0;
#X obj 158 118 != 0;
#X obj 210 116 != 0;
#X obj 263 119 != 0;
#X obj 314 118 != 0;
#X obj 368 120 != 0;
#X obj 420 119 != 0;
#X msg 314 147 0 \$1;
#X msg 210 145 1 \$1;
#X msg 53 146 2 \$1;
#X msg 158 147 3 \$1;
#X msg 106 145 5 \$1;
#X msg 420 148 6 \$1;
#X msg 368 149 7 \$1;
#X connect 0 0 1 0;
#X connect 1 0 2 0;
#X connect 1 1 11 0;
#X connect 1 2 12 0;
#X connect 1 3 13 0;
#X connect 1 4 14 0;
#X connect 1 5 15 0;
#X connect 1 6 16 0;
#X connect 1 7 17 0;
#X connect 2 0 3 0;
#X connect 3 0 20 0;
#X connect 4 0 21 0;
#X connect 5 0 22 0;
#X connect 6 0 23 0;
#X connect 7 0 24 0;
#X connect 8 0 25 0;
#X connect 9 0 26 0;
#X connect 10 0 27 0;
#X connect 11 0 4 0;
#X connect 12 0 5 0;
#X connect 13 0 6 0;
#X connect 14 0 7 0;
#X connect 15 0 8 0;
#X connect 16 0 9 0;
#X connect 17 0 10 0;
#X connect 18 0 19 0;
#X connect 20 0 30 0;
#X connect 21 0 32 0;
#X connect 22 0 31 0;
#X connect 23 0 29 0;
#X connect 24 0 18 0;
#X connect 25 0 28 0;
#X connect 26 0 34 0;
#X connect 27 0 33 0;
#X connect 28 0 19 0;
#X connect 29 0 19 0;
#X connect 30 0 19 0;
#X connect 31 0 19 0;
#X connect 32 0 19 0;
#X connect 33 0 19 0;
#X connect 34 0 19 0;
#X restore 693 375 pd key;
#X msg 696 435 key \$1 \$2;
#X obj 240 70 print;
#X obj 474 207 change;
#X msg 474 257 0 \$1;
#X obj 524 207 change;
#X obj 575 207 change;
#X obj 629 293 change;
#X msg 524 257 1 \$1;
#X msg 575 257 2 \$1;
#X msg 572 473 bend \$1;
#X msg 484 476 knob \$1 \$2;
#X floatatom 719 244 5 0 0 0 - - -;
#X obj 629 206 clip 20 70;
#X obj 629 232 - 20;
#X obj 629 262 / 50;
#X obj 474 231 / 255;
#X obj 524 232 / 255;
#X obj 575 232 / 255;
#X floatatom 797 225 5 0 0 0 - - -;
#X floatatom 867 227 5 0 0 0 - - -;
#X obj 967 390 unpack f f;
#X floatatom 967 414 5 0 0 0 - - -;
#X obj 1037 417 tgl 15 0 empty empty empty 17 7 0 10 -262144 -1 -1
0 1;
#X msg 838 427 switch \$1;
#X obj 473 172 unpack f f f f f f f f, f 51;
#X floatatom 916 229 5 0 0 0 - - -;
#X floatatom 586 348 5 0 0 0 - - -;
#X obj 841 279 t f f;
#X obj 841 303 & 64;
#X obj 874 303 & 128;
#X obj 841 327 / 64;
#X obj 874 327 / 64;
#X obj 841 351 +;
#X obj 841 375 - 1;
#X obj 841 399 change -1;
#X obj 694 404 route 7 8, f 17;
#N canvas 994 170 546 300 key 0;
#X obj 53 16 inlet;
#X obj 53 40 t f f f f f f f f, f 53;
#X obj 53 64 & 1;
#X obj 53 88 change;
#X obj 105 87 change;
#X obj 158 89 change;
#X obj 210 88 change;
#X obj 263 90 change;
#X obj 315 89 change;
#X obj 368 91 change;
#X obj 420 90 change;
#X obj 104 63 & 2;
#X obj 158 65 & 4;
#X obj 210 64 & 8;
#X obj 263 66 & 16;
#X obj 315 65 & 32;
#X obj 368 67 & 64;
#X obj 420 66 & 128;
#X msg 263 148 4 \$1;
#X obj 53 226 outlet;
#X obj 53 117 != 0;
#X obj 105 116 != 0;
#X obj 158 118 != 0;
#X obj 210 116 != 0;
#X obj 263 119 != 0;
#X obj 314 118 != 0;
#X obj 368 120 != 0;
#X obj 420 119 != 0;
#X msg 314 147 0 \$1;
#X msg 420 148 6 \$1;
#X msg 368 149 7 \$1;
#X msg 210 145 0 \$1;
#X msg 158 147 1 \$1;
#X msg 106 145 2 \$1;
#X msg 53 146 3 \$1;
#X connect 0 0 1 0;
#X connect 1 0 2 0;
#X connect 1 1 11 0;
#X connect 1 2 12 0;
#X connect 1 3 13 0;
#X connect 1 4 14 0;
#X connect 1 5 15 0;
#X connect 1 6 16 0;
#X connect 1 7 17 0;
#X connect 2 0 3 0;
#X connect 3 0 20 0;
#X connect 4 0 21 0;
#X connect 5 0 22 0;
#X connect 6 0 23 0;
#X connect 7 0 24 0;
#X connect 8 0 25 0;
#X connect 9 0 26 0;
#X connect 10 0 27 0;
#X connect 11 0 4 0;
#X connect 12 0 5 0;
#X connect 13 0 6 0;
#X connect 14 0 7 0;
#X connect 15 0 8 0;
#X connect 16 0 9 0;
#X connect 17 0 10 0;
#X connect 18 0 19 0;
#X connect 20 0 34 0;
#X connect 21 0 33 0;
#X connect 22 0 32 0;
#X connect 23 0 31 0;
#X connect 24 0 18 0;
#X connect 25 0 28 0;
#X connect 26 0 30 0;
#X connect 27 0 29 0;
#X connect 28 0 19 0;
#X connect 29 0 19 0;
#X connect 30 0 19 0;
#X connect 31 0 19 0;
#X connect 32 0 19 0;
#X connect 33 0 19 0;
#X connect 34 0 19 0;
#X restore 944 352 pd key;
#X msg 918 450 corde \$1 \$2;
#X connect 0 0 1 0;
#X connect 1 0 34 0;
#X connect 1 0 53 0;
#X connect 2 0 3 0;
#X connect 3 0 4 0;
#X connect 4 0 1 1;
#X connect 5 0 3 0;
#X connect 6 0 54 0;
#X connect 7 0 30 0;
#X connect 9 0 6 0;
#X connect 10 0 17 0;
#X connect 10 1 11 0;
#X connect 11 0 17 1;
#X connect 11 1 12 0;
#X connect 12 0 17 2;
#X connect 13 0 23 0;
#X connect 13 1 14 0;
#X connect 14 0 24 0;
#X connect 14 1 15 0;
#X connect 15 0 25 0;
#X connect 15 1 16 0;
#X connect 16 0 26 0;
#X connect 16 1 86 0;
#X connect 17 0 49 0;
#X connect 17 0 50 0;
#X connect 18 0 19 0;
#X connect 19 0 27 0;
#X connect 20 0 22 0;
#X connect 20 1 28 0;
#X connect 20 2 21 0;
#X connect 23 0 18 0;
#X connect 24 0 18 1;
#X connect 25 0 18 2;
#X connect 26 0 18 3;
#X connect 27 0 56 0;
#X connect 29 0 31 0;
#X connect 29 1 8 0;
#X connect 29 1 44 0;
#X connect 29 2 33 0;
#X connect 30 0 29 0;
#X connect 31 0 32 0;
#X connect 32 0 30 1;
#X connect 33 0 30 1;
#X connect 34 0 35 0;
#X connect 34 1 37 0;
#X connect 35 0 36 0;
#X connect 36 0 48 0;
#X connect 37 0 48 0;
#X connect 39 0 40 0;
#X connect 40 0 38 0;
#X connect 41 0 46 0;
#X connect 42 0 43 0;
#X connect 43 0 38 0;
#X connect 44 0 45 0;
#X connect 45 0 41 0;
#X connect 46 0 42 0;
#X connect 47 0 36 0;
#X connect 48 0 39 0;
#X connect 48 0 55 0;
#X connect 50 0 51 0;
#X connect 53 0 9 0;
#X connect 53 1 13 0;
#X connect 54 0 7 0;
#X connect 55 0 57 0;
#X connect 56 0 57 0;
#X connect 58 0 59 0;
#X connect 59 0 60 0;
#X connect 60 0 61 0;
#X connect 60 0 89 0;
#X connect 61 0 97 0;
#X connect 62 0 57 0;
#X connect 64 0 77 0;
#X connect 65 0 72 0;
#X connect 66 0 78 0;
#X connect 67 0 79 0;
#X connect 68 0 71 0;
#X connect 69 0 72 0;
#X connect 70 0 72 0;
#X connect 71 0 57 0;
#X connect 72 0 57 0;
#X connect 74 0 75 0;
#X connect 75 0 76 0;
#X connect 76 0 68 0;
#X connect 77 0 65 0;
#X connect 78 0 69 0;
#X connect 79 0 70 0;
#X connect 82 0 83 0;
#X connect 82 1 84 0;
#X connect 85 0 57 0;
#X connect 86 0 64 0;
#X connect 86 1 66 0;
#X connect 86 2 67 0;
#X connect 86 3 74 0;
#X connect 86 4 73 0;
#X connect 86 4 58 0;
#X connect 86 5 80 0;
#X connect 86 5 98 0;
#X connect 86 6 81 0;
#X connect 86 7 87 0;
#X connect 89 0 90 0;
#X connect 89 1 91 0;
#X connect 90 0 92 0;
#X connect 91 0 93 0;
#X connect 92 0 94 0;
#X connect 93 0 94 1;
#X connect 94 0 95 0;
#X connect 95 0 96 0;
#X connect 96 0 85 0;
#X connect 97 2 62 0;
#X connect 98 0 82 0;
#X connect 98 0 99 0;
#X connect 99 0 57 0;
#X coords 0 -1 1 1 100 40 1 100 100;
