#N canvas 728 163 450 300 12;
#X obj 82 18 inlet;
#X obj 122 66 outlet;
#X obj 82 244 outlet;
#X obj 165 127 moses 32768;
#X obj 239 151 - 65536;
#X obj 82 42 list split 1;
#X connect 0 0 5 0;
#X connect 3 0 2 0;
#X connect 3 1 4 0;
#X connect 4 0 2 0;
#X connect 5 0 2 0;
#X connect 5 1 1 0;
