#N canvas 41 81 1152 658 12;
#X declare -path ../../quaternion;
#X obj 15 21 r fromArduinoDriver;
#X obj 14 146 route 0;
#X obj 60 73 loadbang;
#X obj 60 97 f \$1;
#X obj 60 121 + 48;
#X obj 39 74 bng 15 250 50 0 empty empty empty 17 7 0 10 -262144 -1
-1;
#X obj 14 232 * 2;
#X obj 14 280 * 3.3;
#X floatatom 7 579 5 0 0 1 V - -;
#X obj 14 201 change;
#X obj 823 31 getint;
#X obj 877 31 getint;
#X obj 932 31 getint;
#X obj 249 170 getint;
#X obj 304 170 getint;
#X obj 359 170 getint;
#X obj 414 170 getint;
#X obj 823 55 pack f f f, f 16;
#X obj 249 241 pack f f f f, f 24;
#X obj 249 265 toEuler;
#X obj 309 335 unpack f f f;
#X floatatom 401 375 5 0 0 0 - - -;
#X floatatom 303 378 5 0 0 0 - - -;
#X obj 249 205 / 16384;
#X obj 304 205 / 16384;
#X obj 359 205 / 16384;
#X obj 414 205 / 16384;
#X obj 249 298 rad2deg3;
#X floatatom 351 379 5 0 0 0 - - -;
#X obj 14 338 t b f b, f 15;
#X obj 14 313 spigot 1;
#X obj 14 362 del 250;
#X msg 14 386 1;
#X msg 117 361 0;
#X obj 141 407 t b b;
#X obj 141 431 del 250;
#X msg 141 455 0;
#X msg 173 455 1;
#X obj 104 137 nbx 5 20 -1e+37 1e+37 0 0 empty empty %battery 0 -8
0 14 -241291 -1 -1 100 256;
#X obj 141 509 * 15;
#X msg 141 532 color \$1 22 22;
#X obj 40 464 * 100;
#X obj 40 520 i;
#X obj 40 544 change;
#X obj 40 416 - 3.4;
#X obj 49 439 / 0.7;
#X obj 40 492 clip 0 100;
#X obj 168 321 loadbang;
#X obj 141 480 change -1;
#X obj 814 112 s accel\$1;
#X obj 894 88 list prepend \$1;
#X obj 894 112 s ACCEL;
#X obj 329 60 declare -path ../../quaternion;
#X obj 14 170 getchr;
#X obj 14 256 / 256;
#X msg 297 488 on \$1;
#X msg 358 476 euler \$1 \$2 \$3;
#X obj 471 571 outlet;
#X obj 625 294 change;
#N canvas 809 369 546 300 key 0;
#X obj 53 16 inlet;
#X obj 53 40 t f f f f f f f f, f 53;
#X obj 53 64 & 1;
#X obj 53 88 change;
#X obj 105 87 change;
#X obj 158 89 change;
#X obj 210 88 change;
#X obj 263 90 change;
#X obj 315 89 change;
#X obj 368 91 change;
#X obj 420 90 change;
#X obj 104 63 & 2;
#X obj 158 65 & 4;
#X obj 210 64 & 8;
#X obj 263 66 & 16;
#X obj 315 65 & 32;
#X obj 368 67 & 64;
#X obj 420 66 & 128;
#X msg 263 148 4 \$1;
#X obj 53 226 outlet;
#X obj 53 117 != 0;
#X obj 105 116 != 0;
#X obj 158 118 != 0;
#X obj 210 116 != 0;
#X obj 263 119 != 0;
#X obj 314 118 != 0;
#X obj 368 120 != 0;
#X obj 420 119 != 0;
#X msg 53 146 0 \$1;
#X msg 106 145 1 \$1;
#X msg 158 147 2 \$1;
#X msg 210 145 3 \$1;
#X msg 314 147 5 \$1;
#X msg 368 149 6 \$1;
#X msg 420 148 7 \$1;
#X connect 0 0 1 0;
#X connect 1 0 2 0;
#X connect 1 1 11 0;
#X connect 1 2 12 0;
#X connect 1 3 13 0;
#X connect 1 4 14 0;
#X connect 1 5 15 0;
#X connect 1 6 16 0;
#X connect 1 7 17 0;
#X connect 2 0 3 0;
#X connect 3 0 20 0;
#X connect 4 0 21 0;
#X connect 5 0 22 0;
#X connect 6 0 23 0;
#X connect 7 0 24 0;
#X connect 8 0 25 0;
#X connect 9 0 26 0;
#X connect 10 0 27 0;
#X connect 11 0 4 0;
#X connect 12 0 5 0;
#X connect 13 0 6 0;
#X connect 14 0 7 0;
#X connect 15 0 8 0;
#X connect 16 0 9 0;
#X connect 17 0 10 0;
#X connect 18 0 19 0;
#X connect 20 0 28 0;
#X connect 21 0 29 0;
#X connect 22 0 30 0;
#X connect 23 0 31 0;
#X connect 24 0 18 0;
#X connect 25 0 32 0;
#X connect 26 0 33 0;
#X connect 27 0 34 0;
#X connect 28 0 19 0;
#X connect 29 0 19 0;
#X connect 30 0 19 0;
#X connect 31 0 19 0;
#X connect 32 0 19 0;
#X connect 33 0 19 0;
#X connect 34 0 19 0;
#X restore 624 334 pd key;
#X obj 240 70 print;
#X obj 474 207 change;
#X msg 474 257 0 \$1;
#X obj 524 207 change;
#X obj 575 207 change;
#X obj 637 129 change;
#X msg 524 257 1 \$1;
#X msg 575 257 2 \$1;
#X msg 484 476 knob \$1 \$2;
#X floatatom 730 94 5 0 0 0 - - -;
#X obj 637 42 clip 20 70;
#X obj 637 68 - 20;
#X obj 637 98 / 50;
#X obj 474 231 / 255;
#X obj 524 232 / 255;
#X obj 575 232 / 255;
#X obj 836 556 unpack f f;
#X floatatom 836 580 5 0 0 0 - - -;
#X obj 906 583 tgl 15 0 empty empty empty 17 7 0 10 -262144 -1 -1 0
1;
#X msg 1032 418 switch \$1;
#X obj 473 172 unpack f f f f f f f f, f 51;
#X floatatom 1029 226 5 0 0 0 - - -;
#X obj 1032 337 & 128;
#X obj 1032 387 change -1;
#X obj 242 45 spigot;
#X obj 288 22 tgl 15 0 empty empty empty 17 7 0 10 -262144 -1 -1 0
1;
#X obj 785 313 change;
#X obj 730 555 unpack f f;
#X floatatom 730 579 5 0 0 0 - - -;
#X obj 800 582 tgl 15 0 empty empty empty 17 7 0 10 -262144 -1 -1 0
1;
#X obj 1032 363 != 0;
#N canvas 809 369 546 300 key 0;
#X obj 53 16 inlet;
#X obj 53 40 t f f f f f f f f, f 53;
#X obj 53 64 & 1;
#X obj 53 88 change;
#X obj 105 87 change;
#X obj 158 89 change;
#X obj 210 88 change;
#X obj 263 90 change;
#X obj 315 89 change;
#X obj 368 91 change;
#X obj 420 90 change;
#X obj 104 63 & 2;
#X obj 158 65 & 4;
#X obj 210 64 & 8;
#X obj 263 66 & 16;
#X obj 315 65 & 32;
#X obj 368 67 & 64;
#X obj 420 66 & 128;
#X msg 263 148 4 \$1;
#X obj 53 226 outlet;
#X obj 53 117 != 0;
#X obj 105 116 != 0;
#X obj 158 118 != 0;
#X obj 210 116 != 0;
#X obj 263 119 != 0;
#X obj 314 118 != 0;
#X obj 368 120 != 0;
#X obj 420 119 != 0;
#X msg 53 146 0 \$1;
#X msg 106 145 1 \$1;
#X msg 158 147 2 \$1;
#X msg 210 145 3 \$1;
#X msg 314 147 5 \$1;
#X msg 368 149 6 \$1;
#X msg 420 148 7 \$1;
#X connect 0 0 1 0;
#X connect 1 0 2 0;
#X connect 1 1 11 0;
#X connect 1 2 12 0;
#X connect 1 3 13 0;
#X connect 1 4 14 0;
#X connect 1 5 15 0;
#X connect 1 6 16 0;
#X connect 1 7 17 0;
#X connect 2 0 3 0;
#X connect 3 0 20 0;
#X connect 4 0 21 0;
#X connect 5 0 22 0;
#X connect 6 0 23 0;
#X connect 7 0 24 0;
#X connect 8 0 25 0;
#X connect 9 0 26 0;
#X connect 10 0 27 0;
#X connect 11 0 4 0;
#X connect 12 0 5 0;
#X connect 13 0 6 0;
#X connect 14 0 7 0;
#X connect 15 0 8 0;
#X connect 16 0 9 0;
#X connect 17 0 10 0;
#X connect 18 0 19 0;
#X connect 20 0 28 0;
#X connect 21 0 29 0;
#X connect 22 0 30 0;
#X connect 23 0 31 0;
#X connect 24 0 18 0;
#X connect 25 0 32 0;
#X connect 26 0 33 0;
#X connect 27 0 34 0;
#X connect 28 0 19 0;
#X connect 29 0 19 0;
#X connect 30 0 19 0;
#X connect 31 0 19 0;
#X connect 32 0 19 0;
#X connect 33 0 19 0;
#X connect 34 0 19 0;
#X restore 786 339 pd key;
#X obj 944 511 tgl 15 0 empty empty empty 17 7 0 10 -262144 -1 -1 0
1;
#X obj 968 511 tgl 15 0 empty empty empty 17 7 0 10 -262144 -1 -1 0
1;
#X obj 986 511 tgl 15 0 empty empty empty 17 7 0 10 -262144 -1 -1 0
1;
#X obj 1004 511 tgl 15 0 empty empty empty 17 7 0 10 -262144 -1 -1
0 1;
#X obj 1022 511 tgl 15 0 empty empty empty 17 7 0 10 -262144 -1 -1
0 1;
#X obj 1040 512 tgl 15 0 empty empty empty 17 7 0 10 -262144 -1 -1
0 1;
#X obj 1059 511 tgl 15 0 empty empty empty 17 7 0 10 -262144 -1 -1
0 1;
#X obj 1083 511 tgl 15 0 empty empty empty 17 7 0 10 -262144 -1 -1
0 1;
#X obj 944 481 route 0 1 2 3 4 5 6 7;
#X obj 624 361 route 0 1 2 3 4 5 6 7;
#X obj 949 584 tgl 15 0 empty empty empty 17 7 0 10 -262144 -1 -1 0
1;
#X obj 973 584 tgl 15 0 empty empty empty 17 7 0 10 -262144 -1 -1 0
1;
#X obj 991 584 tgl 15 0 empty empty empty 17 7 0 10 -262144 -1 -1 0
1;
#X obj 1009 584 tgl 15 0 empty empty empty 17 7 0 10 -262144 -1 -1
0 1;
#X obj 1027 584 tgl 15 0 empty empty empty 17 7 0 10 -262144 -1 -1
1 1;
#X obj 1045 585 tgl 15 0 empty empty empty 17 7 0 10 -262144 -1 -1
1 1;
#X obj 1064 584 tgl 15 0 empty empty empty 17 7 0 10 -262144 -1 -1
1 1;
#X obj 1088 584 tgl 15 0 empty empty empty 17 7 0 10 -262144 -1 -1
1 1;
#X obj 949 554 route 0 1 2 3 4 5 6 7;
#X obj 787 363 route 0 1 2 3 4 5 6 7;
#X msg 786 393 0 \$1;
#X msg 824 394 1 \$1;
#X msg 751 440 manche \$1 \$2;
#X msg 943 395 5 \$1;
#X msg 982 394 6 \$1;
#X msg 863 393 2 \$1;
#X msg 905 394 3 \$1;
#X msg 697 395 4 \$1;
#X msg 659 396 5 \$1;
#X msg 733 396 6 \$1;
#X msg 540 397 1 \$1;
#X msg 577 396 2 \$1;
#X msg 615 394 0 \$1;
#X msg 596 446 pizz \$1 \$2;
#X obj 911 272 mod 128;
#X obj 911 296 change;
#X obj 975 272 mod 128;
#X obj 975 296 change;
#N canvas 1 81 598 335 incr3 0;
#X obj 39 14 inlet key1;
#X obj 177 15 inlet key2;
#X obj 309 18 inlet incr1;
#X obj 461 21 inlet incr2;
#X obj 39 66 & 128;
#X obj 39 90 != 0;
#X obj 39 114 * 64;
#X obj 39 40 t f f, f 8;
#X obj 177 40 mod 128;
#X obj 177 64 div 16;
#X obj 177 88 * 4;
#X obj 92 91 != 0;
#X obj 92 67 & 8;
#X obj 92 115 * 32;
#X obj 309 42 & 128;
#X obj 461 45 & 128;
#X obj 39 138 +;
#X obj 92 139 +;
#X obj 177 112 +;
#X obj 309 90 +;
#X obj 309 66 / 128;
#X obj 461 69 / 64;
#X obj 39 162 change;
#X obj 39 186 outlet;
#X connect 0 0 7 0;
#X connect 1 0 8 0;
#X connect 2 0 14 0;
#X connect 3 0 15 0;
#X connect 4 0 5 0;
#X connect 5 0 6 0;
#X connect 6 0 16 0;
#X connect 7 0 4 0;
#X connect 7 1 12 0;
#X connect 8 0 9 0;
#X connect 9 0 10 0;
#X connect 10 0 18 0;
#X connect 11 0 13 0;
#X connect 12 0 11 0;
#X connect 13 0 17 0;
#X connect 14 0 20 0;
#X connect 15 0 21 0;
#X connect 16 0 22 0;
#X connect 17 0 16 1;
#X connect 18 0 17 1;
#X connect 19 0 18 1;
#X connect 20 0 19 0;
#X connect 21 0 19 1;
#X connect 22 0 23 0;
#X restore 843 269 pd incr3;
#X msg 843 293 1 \$1;
#X msg 911 319 2 \$1;
#X msg 975 319 0 \$1;
#X msg 878 440 corde \$1 \$2;
#X connect 0 0 1 0;
#X connect 1 0 34 0;
#X connect 1 0 53 0;
#X connect 1 0 84 0;
#X connect 2 0 3 0;
#X connect 3 0 4 0;
#X connect 4 0 1 1;
#X connect 5 0 3 0;
#X connect 6 0 54 0;
#X connect 7 0 30 0;
#X connect 9 0 6 0;
#X connect 10 0 17 0;
#X connect 10 1 11 0;
#X connect 11 0 17 1;
#X connect 11 1 12 0;
#X connect 12 0 17 2;
#X connect 13 0 23 0;
#X connect 13 1 14 0;
#X connect 14 0 24 0;
#X connect 14 1 15 0;
#X connect 15 0 25 0;
#X connect 15 1 16 0;
#X connect 16 0 26 0;
#X connect 16 1 80 0;
#X connect 17 0 49 0;
#X connect 17 0 50 0;
#X connect 18 0 19 0;
#X connect 19 0 27 0;
#X connect 20 0 22 0;
#X connect 20 1 28 0;
#X connect 20 2 21 0;
#X connect 23 0 18 0;
#X connect 24 0 18 1;
#X connect 25 0 18 2;
#X connect 26 0 18 3;
#X connect 27 0 56 0;
#X connect 29 0 31 0;
#X connect 29 1 8 0;
#X connect 29 1 44 0;
#X connect 29 2 33 0;
#X connect 30 0 29 0;
#X connect 31 0 32 0;
#X connect 32 0 30 1;
#X connect 33 0 30 1;
#X connect 34 0 35 0;
#X connect 34 1 37 0;
#X connect 35 0 36 0;
#X connect 36 0 48 0;
#X connect 37 0 48 0;
#X connect 39 0 40 0;
#X connect 40 0 38 0;
#X connect 41 0 46 0;
#X connect 42 0 43 0;
#X connect 43 0 38 0;
#X connect 44 0 45 0;
#X connect 45 0 41 0;
#X connect 46 0 42 0;
#X connect 47 0 36 0;
#X connect 48 0 39 0;
#X connect 48 0 55 0;
#X connect 50 0 51 0;
#X connect 53 0 9 0;
#X connect 53 1 13 0;
#X connect 54 0 7 0;
#X connect 55 0 57 0;
#X connect 56 0 57 0;
#X connect 58 0 59 0;
#X connect 59 0 101 0;
#X connect 61 0 73 0;
#X connect 62 0 68 0;
#X connect 63 0 74 0;
#X connect 64 0 75 0;
#X connect 66 0 68 0;
#X connect 67 0 68 0;
#X connect 68 0 57 0;
#X connect 70 0 71 0;
#X connect 71 0 72 0;
#X connect 72 0 65 0;
#X connect 73 0 62 0;
#X connect 74 0 66 0;
#X connect 75 0 67 0;
#X connect 76 0 77 0;
#X connect 76 1 78 0;
#X connect 79 0 57 0;
#X connect 80 0 61 0;
#X connect 80 1 63 0;
#X connect 80 2 64 0;
#X connect 80 3 58 0;
#X connect 80 3 130 0;
#X connect 80 4 86 0;
#X connect 80 4 130 1;
#X connect 80 4 82 0;
#X connect 80 5 126 0;
#X connect 80 5 130 2;
#X connect 80 6 128 0;
#X connect 80 6 130 3;
#X connect 82 0 90 0;
#X connect 83 0 79 0;
#X connect 84 0 60 0;
#X connect 85 0 84 1;
#X connect 86 0 91 0;
#X connect 87 0 88 0;
#X connect 87 1 89 0;
#X connect 90 0 83 0;
#X connect 91 0 111 0;
#X connect 100 0 92 0;
#X connect 100 1 93 0;
#X connect 100 2 94 0;
#X connect 100 3 95 0;
#X connect 100 4 96 0;
#X connect 100 5 97 0;
#X connect 100 6 98 0;
#X connect 100 7 99 0;
#X connect 101 0 122 0;
#X connect 101 1 123 0;
#X connect 101 2 124 0;
#X connect 101 4 120 0;
#X connect 101 5 119 0;
#X connect 101 6 121 0;
#X connect 110 0 102 0;
#X connect 110 1 103 0;
#X connect 110 2 104 0;
#X connect 110 3 105 0;
#X connect 110 4 106 0;
#X connect 110 5 107 0;
#X connect 110 6 108 0;
#X connect 110 7 109 0;
#X connect 111 0 112 0;
#X connect 111 1 113 0;
#X connect 111 2 117 0;
#X connect 111 3 118 0;
#X connect 112 0 114 0;
#X connect 113 0 114 0;
#X connect 114 0 57 0;
#X connect 117 0 114 0;
#X connect 118 0 114 0;
#X connect 119 0 114 0;
#X connect 120 0 114 0;
#X connect 121 0 114 0;
#X connect 122 0 125 0;
#X connect 123 0 125 0;
#X connect 124 0 125 0;
#X connect 125 0 57 0;
#X connect 126 0 127 0;
#X connect 127 0 132 0;
#X connect 128 0 129 0;
#X connect 129 0 133 0;
#X connect 130 0 131 0;
#X connect 131 0 134 0;
#X connect 132 0 134 0;
#X connect 133 0 134 0;
#X connect 134 0 57 0;
#X coords 0 -1 1 1 120 60 1 100 100;
