#N canvas 152 81 1063 662 10;
#X declare -path cyclone -lib cyclone;
#X declare -path iemlib -lib iemlib;
#X declare -path creb -lib creb;
#X obj 85 34 * 100;
#X obj 85 54 + 18;
#X obj 180 458 mull~ 0 50;
#X msg 322 388 1000;
#X msg 321 407 3000;
#X msg 321 426 5000;
#X msg 321 445 8000;
#X obj 181 432 lop~ 5000;
#X obj 38 478 hsl 128 15 0.08 8 1 0 empty empty empty -2 -6 0 8 -262144
-1 -1 0 1;
#X obj 84 458 *~ 8;
#X floatatom 30 335 5 0 0 0 - - -;
#N canvas 38 138 854 509 violon-dsp 0;
#X obj 156 479 outlet~;
#X obj 135 310 pow;
#X obj 239 470 outlet~;
#X msg 55 224 1000 \$1;
#X obj 55 300 /;
#X obj 137 171 max 1;
#X obj 137 194 t b f;
#X obj 135 266 /;
#X msg 135 288 0.01 \$1;
#X obj 18 155 init 440;
#N canvas 461 90 799 643 corde 0;
#X obj 56 442 outlet~;
#X obj 129 392 delwrite~ \$0-corde 100;
#X obj 127 229 *~ 0;
#X obj 141 13 inlet;
#X obj 370 35 inlet~;
#X floatatom 261 219 5 0 0 0 - - -;
#X obj 264 314 outlet~;
#X floatatom 349 116 5 0 0 0 - - -;
#X floatatom 248 129 5 0 0 0 - - -;
#X floatatom 307 225 5 0 0 0 - - -;
#X obj 79 99 vd~ \$0-corde 100;
#X obj 211 89 vd~ \$0-corde 100;
#X obj 210 151 lop~ 8000;
#X obj 210 47 / 3;
#X obj 238 6 inlet;
#X obj 192 13 t b f;
#X obj 35 66 line~;
#X msg 35 46 \$1 5;
#X obj 211 122 *~ 4;
#X msg 513 198 0;
#X obj 345 605 delwrite~ \$0-caisse 100;
#X obj 209 247 lop~ 20000;
#X msg 289 142 8000;
#X obj 246 600 hip~ 1000;
#X obj 365 467 delread~ \$0-caisse 3.21211;
#X obj 377 491 delread~ \$0-caisse 0.53143;
#X obj 246 577 lop~ 4000;
#X obj 55 420 lp4_butt~ 18000;
#X obj 356 562 *~ 0.3;
#X obj 396 513 delread~ \$0-caisse 11.743;
#X obj 400 444 unpack f f f f;
#X msg 423 537 0.1;
#X msg 454 538 0.2;
#X msg 486 537 0.3;
#X msg 516 537 0.33;
#X msg 395 538 0;
#X msg 307 243 20000;
#X msg 340 243 5000;
#X msg 400 365 3.21121 0.53143 0.757 0.2;
#X obj 128 358 lop~ 12000;
#X obj 24 155 /;
#X obj 24 176 min 20000;
#X msg 24 135 30000 \$1;
#X obj 403 317 line~;
#X obj 247 548 *~;
#X obj 264 476 +~ 0;
#X msg 403 298 \$1 20;
#X obj 54 391 hip~ 15;
#X obj 193 337 f;
#X obj 430 337 loadbang;
#X obj 131 157 lop~ 100;
#X msg 409 387 5.21121 0.63143 7.757 0.1;
#X floatatom 578 516 5 0 0 0 - - -;
#X floatatom 564 495 5 0 0 0 - - -;
#X floatatom 552 470 5 0 0 0 - - -;
#X obj 602 464 bng 15 250 50 0 empty empty empty 0 -6 0 8 -262144 -1
-1;
#X msg 419 409 7.21121 0.93143 14.757 0.1;
#N canvas 66 233 283 224 caisse 0;
#X obj 52 113 maxlib/scale 0 1 0.53143 0.93143;
#X obj 78 23 hsl 128 15 0 1 0 0 empty empty empty -2 -6 0 8 -262144
-1 -1 0 1;
#X obj 78 93 maxlib/scale 0 1 0.757 14.757 1;
#X obj 26 136 maxlib/scale 0 1 3.2113 7.211 1;
#X obj 26 53 t f f;
#X obj 105 69 maxlib/scale 0 1 0.2 0.1;
#X obj 26 23 inlet;
#X obj 26 166 pack f f f f;
#X obj 26 190 outlet;
#X connect 0 0 7 1;
#X connect 1 0 4 0;
#X connect 2 0 7 2;
#X connect 3 0 7 0;
#X connect 4 0 3 0;
#X connect 4 1 0 0;
#X connect 4 1 2 0;
#X connect 4 1 5 0;
#X connect 5 0 7 3;
#X connect 6 0 4 0;
#X connect 7 0 8 0;
#X restore 522 310 pd caisse;
#X obj 128 310 clip~ -10 10;
#X obj 310 272 bp~ 800 0.25;
#X obj 209 273 bp~ 800 0.1;
#X obj 251 60 line~;
#X floatatom 460 102 5 0 0 0 - - -;
#X msg 251 40 \$1 5;
#X obj 526 154 fexpr~ if ( abs($y+$x) >= $f3 \, 0 \, $y+$x2 );
#X obj 479 53 inlet~;
#X obj 503 25 block~ 8 1 2;
#X obj 80 12 inlet;
#X obj 723 56 inlet~ vibra;
#X obj 547 55 inlet force;
#X obj 621 57 inlet caisse;
#X obj 201 184 *~ 0;
#X connect 2 0 58 0;
#X connect 3 0 2 1;
#X connect 4 0 20 0;
#X connect 4 0 18 0;
#X connect 4 0 58 0;
#X connect 5 0 71 1;
#X connect 8 0 18 1;
#X connect 9 0 21 1;
#X connect 10 0 2 0;
#X connect 10 0 47 0;
#X connect 11 0 18 0;
#X connect 12 0 71 0;
#X connect 13 0 63 0;
#X connect 14 0 15 0;
#X connect 15 0 13 0;
#X connect 15 1 13 1;
#X connect 16 0 10 0;
#X connect 17 0 16 0;
#X connect 18 0 12 0;
#X connect 18 0 50 0;
#X connect 19 0 64 2;
#X connect 21 0 6 0;
#X connect 21 0 60 0;
#X connect 22 0 12 1;
#X connect 23 0 18 0;
#X connect 23 0 47 0;
#X connect 24 0 45 0;
#X connect 25 0 45 0;
#X connect 26 0 23 0;
#X connect 27 0 0 0;
#X connect 28 0 20 0;
#X connect 29 0 45 0;
#X connect 30 0 24 0;
#X connect 30 1 25 0;
#X connect 30 2 29 0;
#X connect 30 3 28 1;
#X connect 31 0 28 1;
#X connect 32 0 28 1;
#X connect 33 0 28 1;
#X connect 34 0 28 1;
#X connect 35 0 28 1;
#X connect 36 0 9 0;
#X connect 37 0 9 0;
#X connect 38 0 30 0;
#X connect 39 0 1 0;
#X connect 39 0 20 0;
#X connect 40 0 41 0;
#X connect 41 0 48 0;
#X connect 41 0 21 1;
#X connect 42 0 40 0;
#X connect 43 0 44 1;
#X connect 44 0 26 0;
#X connect 45 0 28 0;
#X connect 45 0 44 0;
#X connect 46 0 43 0;
#X connect 47 0 27 0;
#X connect 48 0 39 1;
#X connect 48 0 26 1;
#X connect 49 0 38 0;
#X connect 50 0 71 0;
#X connect 51 0 30 0;
#X connect 52 0 29 0;
#X connect 53 0 25 0;
#X connect 54 0 24 0;
#X connect 55 0 54 0;
#X connect 55 0 53 0;
#X connect 55 0 52 0;
#X connect 56 0 30 0;
#X connect 57 0 30 0;
#X connect 58 0 39 0;
#X connect 60 0 20 0;
#X connect 60 0 58 0;
#X connect 61 0 11 0;
#X connect 63 0 61 0;
#X connect 67 0 13 0;
#X connect 67 0 17 0;
#X connect 67 0 42 0;
#X connect 69 0 46 0;
#X connect 69 0 64 2;
#X connect 70 0 57 0;
#X connect 71 0 21 0;
#X restore 189 441 pd corde;
#X f 25;
#X obj 216 256 b;
#X obj 247 229 bng 15 250 50 0 empty empty empty 0 -6 0 8 -262144 -1
-1;
#X obj 18 137 bng 15 250 50 0 empty empty empty 0 -6 0 8 -262144 -1
-1;
#X floatatom 114 98 5 0 0 0 - - -;
#X obj 308 71 f;
#X obj 308 31 tgl 15 1 empty empty empty 0 -6 0 8 -262144 -1 -1 1 1
;
#X obj 308 164 t f f;
#X obj 465 50 hsl 128 15 0 127 0 0 empty empty empty -2 -6 0 8 -262144
-1 -1 0 1;
#X obj 308 191 -;
#X obj 345 350 change;
#X obj 308 50 metro 8;
#X obj 308 93 mavg 3;
#X obj 308 213 mavg 3;
#X obj 308 136 mavg 3;
#X obj 308 239 mavg 4;
#X obj 112 75 init 15;
#X obj 179 60 pow 4;
#X obj 381 203 pow 2;
#X obj 382 239 * 10;
#X obj 228 128 pow 3;
#X obj 228 168 + 1;
#X obj 228 147 * 30;
#X obj 308 266 +;
#X floatatom 140 137 5 0 0 0 - - -;
#X obj 179 132 * 10;
#X obj 178 82 * -12;
#X obj 179 102 + 15;
#X floatatom 348 415 5 0 0 0 - - -;
#X obj 28 38 inlet note;
#X obj 422 85 hsl 128 15 0 1 0 0 empty empty empty -2 -6 0 8 -262144
-1 -1 0 1;
#X obj 436 114 hsl 128 15 0 1 0 0 empty empty empty -2 -6 0 8 -262144
-1 -1 0 1;
#X obj 428 135 pow 4;
#X obj 435 174 hsl 128 15 0 1 0 0 empty empty empty -2 -6 0 8 -262144
-1 -1 0 1;
#X obj 433 198 pow 2;
#X obj 347 11 inlet bow_pos;
#X obj 660 15 inlet caisse;
#X floatatom 250 198 5 0 0 0 - - -;
#X obj 476 302 tgl 15 0 empty empty empty 17 7 0 10 -262144 -1 -1 0
1;
#X obj 466 338 metro 600;
#X floatatom 91 252 5 0 0 0 - - -;
#X obj 120 30 inlet sustain;
#X obj 430 416 print;
#X obj 264 330 / 1000;
#X obj 264 370 line~;
#X msg 264 350 \$1 5;
#X floatatom 364 169 5 0 0 0 - - -;
#X obj 452 17 inlet bow_speed;
#X obj 570 13 inlet force;
#X obj 135 361 * 1;
#X floatatom 248 254 5 0 0 0 - - -;
#X floatatom 302 307 5 0 0 0 - - -;
#X obj 679 50 inlet pizz;
#X obj 225 10 inlet string_pos;
#X floatatom 110 334 5 0 0 0 - - -;
#X obj 40 375 mtof;
#X floatatom 40 396 8 0 0 0 - - -;
#X floatatom 42 347 5 0 0 0 - - -;
#X floatatom 36 458 5 0 0 0 - - -;
#X obj 84 461 *~ 3;
#X obj 84 422 bp~ 3000 10;
#X obj 764 120 inlet~ exc;
#X obj 667 146 bng 15 250 50 0 empty empty empty 17 7 0 10 -262144
-1 -1;
#X obj 176 352 lop~ 1000;
#X obj 216 280 ead~ 0 1.5;
#X obj 676 97 sel 1;
#X connect 1 0 59 0;
#X connect 1 0 64 0;
#X connect 3 0 4 0;
#X connect 4 0 7 0;
#X connect 4 0 10 0;
#X connect 5 0 6 0;
#X connect 6 0 7 0;
#X connect 6 1 7 1;
#X connect 7 0 8 0;
#X connect 8 0 1 0;
#X connect 9 0 3 0;
#X connect 10 0 0 0;
#X connect 10 1 2 0;
#X connect 11 0 74 0;
#X connect 12 0 11 0;
#X connect 13 0 9 0;
#X connect 14 0 35 0;
#X connect 15 0 22 0;
#X connect 16 0 21 0;
#X connect 17 0 19 1;
#X connect 17 1 19 0;
#X connect 18 0 15 1;
#X connect 19 0 23 0;
#X connect 21 0 15 0;
#X connect 22 0 24 0;
#X connect 23 0 25 0;
#X connect 24 0 17 0;
#X connect 25 0 33 0;
#X connect 26 0 14 0;
#X connect 27 0 36 0;
#X connect 28 0 29 0;
#X connect 30 0 32 0;
#X connect 31 0 10 2;
#X connect 31 0 47 0;
#X connect 32 0 31 0;
#X connect 33 0 20 0;
#X connect 33 0 53 0;
#X connect 35 0 5 0;
#X connect 36 0 37 0;
#X connect 37 0 34 0;
#X connect 37 0 35 0;
#X connect 38 0 20 0;
#X connect 39 0 3 0;
#X connect 40 0 30 0;
#X connect 41 0 42 0;
#X connect 42 0 36 0;
#X connect 43 0 44 0;
#X connect 44 0 29 0;
#X connect 45 0 15 1;
#X connect 48 0 49 0;
#X connect 49 0 12 0;
#X connect 50 0 5 0;
#X connect 51 0 5 0;
#X connect 53 0 55 0;
#X connect 54 0 10 4;
#X connect 55 0 54 0;
#X connect 56 0 33 1;
#X connect 57 0 33 1;
#X connect 58 0 28 0;
#X connect 59 0 10 1;
#X connect 60 0 74 1;
#X connect 61 0 74 2;
#X connect 62 0 75 0;
#X connect 63 0 30 0;
#X connect 65 0 66 0;
#X connect 66 0 70 1;
#X connect 67 0 65 0;
#X connect 68 0 69 1;
#X connect 69 0 10 3;
#X connect 70 0 69 0;
#X connect 71 0 10 3;
#X connect 73 0 10 3;
#X connect 74 0 70 0;
#X connect 74 0 73 0;
#X connect 75 0 12 0;
#X connect 75 0 72 0;
#X restore 181 307 pd violon-dsp;
#X obj 727 508 mtof;
#X obj 180 358 mull~ 1;
#X obj 397 350 hsl 128 15 0 1 0 1 empty empty empty -2 -8 0 10 -262144
-1 -1 4500 1;
#X obj 393 371 pow 2;
#X obj 181 489 hip~ 100;
#X obj 257 128 hsl 128 15 0 127 0 0 empty empty bow_pos -2 -8 0 10
-262144 -1 -1 0 1;
#X floatatom 217 84 5 0 0 0 - - -;
#X obj 223 59 hsl 128 15 0 1 0 0 empty empty string_pos -2 -8 0 10
-262144 -1 -1 0 1;
#X obj 342 210 hsl 128 15 0 1 0 1 empty empty caisse -2 -8 0 10 -262144
-1 -1 12700 1;
#X obj 36 134 hsl 128 15 10 10000 1 1 empty empty sustain -2 -8 0 10
-262144 -1 -1 12500 1;
#X obj 84 436 lop~ 600;
#X obj 179 384 z~ 64;
#X obj 180 409 *~;
#X obj 181 329 hip~ 30;
#X obj 224 385 limiter~ 5;
#X obj 429 421 declare -path cyclone -lib cyclone;
#X obj 429 399 declare -path iemlib -lib iemlib;
#X obj 429 443 declare -path creb -lib creb;
#X obj 467 560 osc~;
#X obj 467 585 *~ 0.02;
#X obj 472 539 * 1;
#X obj 286 167 hsl 128 15 0 1 0 0 empty empty force -2 -8 0 10 -262144
-1 -1 0 1;
#X obj 784 87 unpack f f f, f 28;
#X floatatom 825 111 5 0 0 0 - - -;
#X floatatom 876 121 5 0 0 0 - - -;
#X floatatom 950 234 5 0 0 0 - - -;
#X obj 180 528 outlet~;
#X obj 599 4 r \$2-ctl;
#X obj 857 143 moses 0;
#X obj 857 165 + 180;
#X obj 898 165 - 180;
#X obj 857 228 clip 0 1;
#X obj 949 121 / 40;
#X obj 949 205 clip 0 1;
#X obj 949 156 + 0.7;
#X obj 768 260 r \$2-mancheNote;
#X obj 768 315 +;
#X obj 868 295 loadbang;
#X obj 868 316 f \$1;
#X obj 933 294 r \$2-ctl;
#X obj 933 336 route 2;
#X obj 768 381 +;
#X obj 790 351 t b f;
#X obj 868 337 * 7;
#X obj 933 357 * 40;
#X obj 990 361 metro 10;
#X obj 918 419 f;
#X obj 918 461 +;
#X obj 946 461 * 0.8;
#X floatatom 840 628 8 0 0 0 - - -;
#X obj 917 528 t f f;
#X obj 945 571 +;
#X obj 917 595 -;
#X obj 727 460 +;
#X obj 679 463 * 0.4;
#X obj 917 484 / 1.5;
#X obj 973 571 * 0.8;
#X obj 945 550 * 0.2;
#X obj 667 59 route \$1;
#X obj 857 207 + 1;
#X obj 857 186 / 30;
#X msg 378 243 0;
#X floatatom 716 560 5 0 0 0 - - -;
#X obj 933 314 route knob run;
#X obj 591 59 route \$1;
#X obj 966 437 * 0.2;
#X obj 113 160 == 0;
#X obj 81 265 f;
#X obj 135 301 f;
#X msg 135 272 200;
#X obj 538 218 inlet~;
#X obj 917 507 +;
#X floatatom 711 142 5 0 0 0 - - -;
#X obj 728 484 +;
#X obj 918 440 * 0.06;
#X obj 625 263 * -18;
#X msg 625 284 \$1 50;
#X obj 625 305 line;
#X floatatom 726 341 5 0 0 0 - - -;
#X floatatom 843 398 5 0 0 0 - - -;
#X floatatom 801 479 5 0 0 0 - - -;
#X obj 599 25 route corde euler pizz bend switch;
#X floatatom 772 56 5 0 0 0 - - -;
#X obj 768 287 *;
#X obj 758 225 + 1;
#X obj 797 287 t b f;
#X msg 647 190 set /DODECA;
#X msg 685 210 set /GAMME;
#X obj 784 126 / 180;
#X obj 784 147 * 3.14159;
#X obj 784 168 cos;
#X obj 784 189 * 180;
#X obj 616 131 tgl 15 0 empty empty empty 17 7 0 10 -262144 -1 -1 0
1;
#X obj 646 167 sel 0 1 2;
#X msg 698 234 set /CHORD;
#X obj 746 430 gammeRound /GAMME 100;
#X obj 768 402 + 20.01;
#X obj 43 102 r \$2-sustain;
#X floatatom 85 334 8 0 0 0 - - -;
#X obj 81 286 spigot;
#X obj 113 184 t f f;
#X obj 113 208 sel 1 0;
#X msg 99 240 stop;
#X obj 133 240 del 100;
#X connect 0 0 1 0;
#X connect 2 0 16 0;
#X connect 3 0 7 1;
#X connect 4 0 7 1;
#X connect 5 0 7 1;
#X connect 6 0 7 1;
#X connect 7 0 2 0;
#X connect 8 0 9 1;
#X connect 9 0 2 0;
#X connect 10 0 22 1;
#X connect 11 0 25 0;
#X connect 12 0 11 0;
#X connect 12 0 32 0;
#X connect 12 0 74 0;
#X connect 13 0 23 0;
#X connect 13 0 26 0;
#X connect 14 0 15 0;
#X connect 15 0 2 1;
#X connect 16 0 38 0;
#X connect 17 0 11 3;
#X connect 19 0 18 0;
#X connect 20 0 11 6;
#X connect 21 0 79 0;
#X connect 22 0 9 0;
#X connect 23 0 24 0;
#X connect 24 0 7 0;
#X connect 24 0 22 0;
#X connect 25 0 13 0;
#X connect 26 0 24 1;
#X connect 31 0 16 0;
#X connect 32 0 30 0;
#X connect 33 0 11 5;
#X connect 34 0 35 0;
#X connect 34 0 100 0;
#X connect 34 1 36 0;
#X connect 34 1 40 0;
#X connect 34 2 44 0;
#X connect 39 0 93 0;
#X connect 40 0 41 0;
#X connect 40 1 42 0;
#X connect 41 0 72 0;
#X connect 42 0 72 0;
#X connect 44 0 46 0;
#X connect 45 0 37 0;
#X connect 46 0 45 0;
#X connect 47 0 90 0;
#X connect 47 0 95 0;
#X connect 48 0 53 0;
#X connect 49 0 50 0;
#X connect 50 0 55 0;
#X connect 51 0 75 0;
#X connect 52 0 56 0;
#X connect 53 0 108 0;
#X connect 54 0 53 0;
#X connect 54 1 53 1;
#X connect 55 0 48 1;
#X connect 56 0 54 0;
#X connect 57 0 58 0;
#X connect 58 0 86 0;
#X connect 59 0 60 0;
#X connect 59 0 67 0;
#X connect 60 0 59 1;
#X connect 62 0 64 0;
#X connect 62 1 69 0;
#X connect 63 0 64 1;
#X connect 63 0 68 0;
#X connect 64 0 66 0;
#X connect 65 0 85 0;
#X connect 66 0 65 0;
#X connect 67 0 83 0;
#X connect 68 0 63 1;
#X connect 69 0 63 0;
#X connect 70 0 11 7;
#X connect 71 0 43 0;
#X connect 72 0 71 0;
#X connect 73 0 11 7;
#X connect 75 0 52 0;
#X connect 75 1 57 0;
#X connect 76 0 11 7;
#X connect 76 0 104 0;
#X connect 76 0 78 0;
#X connect 78 0 112 0;
#X connect 79 0 111 0;
#X connect 80 0 11 1;
#X connect 81 0 80 0;
#X connect 82 0 11 8;
#X connect 83 0 62 0;
#X connect 85 0 12 0;
#X connect 86 0 59 0;
#X connect 87 0 88 0;
#X connect 88 0 89 0;
#X connect 89 0 85 1;
#X connect 91 0 107 1;
#X connect 93 0 76 0;
#X connect 93 1 34 0;
#X connect 93 2 70 0;
#X connect 93 3 87 0;
#X connect 93 4 96 0;
#X connect 93 4 94 0;
#X connect 93 4 105 0;
#X connect 95 0 48 0;
#X connect 96 0 97 0;
#X connect 97 0 95 0;
#X connect 97 1 95 1;
#X connect 98 0 107 0;
#X connect 99 0 107 0;
#X connect 100 0 101 0;
#X connect 101 0 102 0;
#X connect 102 0 103 0;
#X connect 103 0 58 1;
#X connect 105 0 98 0;
#X connect 105 1 99 0;
#X connect 105 2 106 0;
#X connect 106 0 107 0;
#X connect 107 0 65 1;
#X connect 107 0 92 0;
#X connect 108 0 107 0;
#X connect 109 0 79 0;
#X connect 111 0 80 0;
#X connect 112 0 113 0;
#X connect 112 1 111 1;
#X connect 113 0 79 0;
#X connect 113 0 114 0;
#X connect 113 1 115 0;
#X connect 114 0 115 0;
#X connect 115 0 81 0;
