#N canvas 282 81 954 618 12;
#X declare -lib creb;
#X obj 124 148 spigot;
#X obj 167 43 tgl 15 0 empty empty empty 17 7 0 10 -262144 -1 -1 1
1;
#X obj 263 145 switch~;
#X obj 180 171 s \$0-ctl;
#X obj 146 576 throw~ outR;
#X obj 504 283 r \$0-ctl;
#X obj 652 420 table \$0-keys 10;
#X obj 538 453 s \$0-keys;
#X obj 536 356 unpack f f;
#X obj 536 380 t f f;
#X obj 610 429 *;
#X obj 538 429 pack f f;
#X obj 504 496 array max \$0-keys 0 8;
#X obj 504 333 t b a;
#X obj 568 403 + 1;
#X obj 504 520 s \$0-mancheNote;
#X obj 58 174 spigot;
#X obj 110 175 tgl 15 0 empty empty empty 17 7 0 10 -262144 -1 -1 0
1;
#X obj 367 343 r \$0-ctl;
#X obj 367 367 route knob;
#X obj 367 415 pow 2;
#X obj 367 439 * 0.3;
#X msg 367 463 \$1 20;
#X obj 367 487 line~;
#X obj 88 389 *~;
#X obj 111 489 rev1~, f 10;
#X obj 194 483 loadbang;
#X msg 194 507 60;
#X obj 107 460 lop~ 3000;
#X obj 319 274 pow 2;
#X msg 319 322 \$1 20;
#X obj 319 346 line~;
#X obj 107 424 *~;
#X obj 367 391 route 0 1, f 18;
#X obj 88 525 +~;
#X obj 58 123 r Guitare-ctl;
#X obj 60 224 route 0 1 2;
#X floatatom 60 248 5 0 0 0 - - -;
#X floatatom 100 249 5 0 0 0 - - -;
#X floatatom 140 250 5 0 0 0 - - -;
#X floatatom 155 225 5 0 0 0 - - -;
#X obj 201 251 tgl 15 0 empty empty empty 17 7 0 10 -262144 -1 -1 0
1;
#X obj 220 251 tgl 15 0 empty empty empty 17 7 0 10 -262144 -1 -1 0
1;
#X obj 239 251 tgl 15 0 empty empty empty 17 7 0 10 -262144 -1 -1 0
1;
#X obj 258 251 tgl 15 0 empty empty empty 17 7 0 10 -262144 -1 -1 0
1;
#X obj 201 227 route 0 1 2 3 4 5;
#X obj 276 251 tgl 15 0 empty empty empty 17 7 0 10 -262144 -1 -1 0
1;
#X obj 294 251 tgl 15 0 empty empty empty 17 7 0 10 -262144 -1 -1 0
1;
#X obj 331 253 tgl 15 0 empty empty empty 17 7 0 10 -262144 -1 -1 0
1;
#X obj 355 253 tgl 15 0 empty empty empty 17 7 0 10 -262144 -1 -1 0
1;
#X obj 380 252 tgl 15 0 empty empty empty 17 7 0 10 -262144 -1 -1 0
1;
#X obj 436 228 hradio 15 1 0 3 empty empty empty 0 -8 0 10 -262144
-1 -1 1;
#X obj 60 200 route knob bend key corde switch euler, f 68;
#X obj 504 307 route key;
#X floatatom 473 551 5 0 0 0 - - -;
#X msg 179 144 run \$1;
#X obj 89 308 clone 4 corde_guitelec \$0;
#X obj 330 227 route 0 1 2 3;
#X obj 407 252 tgl 15 0 empty empty empty 17 7 0 10 -262144 -1 -1 0
1;
#N canvas 693 219 539 468 amp 0;
#X obj 120 30 inlet~;
#X obj 118 272 outlet~;
#X obj 230 41 declare -lib creb;
#X floatatom 239 126 5 0 0 0 - - -;
#X obj 158 80 bp~ 800 5;
#X obj 238 81 bp~ 1900 5;
#X obj 120 192 dist~ 9;
#X obj 254 245 delwrite~ \$0-ampdel 1000;
#X obj 381 134 loadbang;
#X msg 381 158 11;
#X obj 348 78 bp~ 8000 50;
#X obj 345 108 *~ 50;
#X msg 253 180 1;
#X obj 312 181 r \$0-disto;
#X connect 0 0 4 0;
#X connect 0 0 5 0;
#X connect 0 0 6 0;
#X connect 0 0 10 0;
#X connect 3 0 6 1;
#X connect 4 0 6 0;
#X connect 5 0 6 0;
#X connect 6 0 1 0;
#X connect 6 0 7 0;
#X connect 8 0 9 0;
#X connect 10 0 11 0;
#X connect 11 0 6 0;
#X connect 12 0 3 0;
#X connect 13 0 3 0;
#X restore 89 335 pd amp;
#N canvas 1 81 548 333 retouramp 0;
#X obj 52 52 vd~ \$0-ampdel;
#X obj 55 17 sig~ 50;
#X obj 52 76 *~;
#X obj 52 173 outlet~;
#X obj 183 33 hsl 128 15 0 1 0 0 empty empty empty -2 -8 0 10 -262144
-1 -1 0 1;
#X obj 180 53 pow 5;
#X obj 180 77 * 0.1;
#X msg 180 101 \$1 20;
#X obj 180 125 line~;
#X obj 332 28 r \$0-ctl;
#X obj 332 52 route euler;
#X obj 332 76 unpack f f f;
#X floatatom 404 142 5 0 0 0 - - -;
#X obj 367 196 max 0;
#X floatatom 334 300 5 0 0 0 - - -;
#X obj 367 220 / 80;
#X obj 367 244 clip 0 0.5;
#X floatatom 281 209 5 0 0 0 - - -;
#X obj 324 121 + 180;
#X obj 324 145 / 360;
#X msg 199 209 \$1 20;
#X obj 199 233 line~;
#X obj 324 169 * 100;
#X obj 52 124 lop~ 2000;
#X connect 0 0 2 0;
#X connect 2 0 23 0;
#X connect 4 0 5 0;
#X connect 5 0 6 0;
#X connect 6 0 7 0;
#X connect 7 0 8 0;
#X connect 8 0 2 1;
#X connect 9 0 10 0;
#X connect 10 0 11 0;
#X connect 11 1 18 0;
#X connect 11 2 13 0;
#X connect 13 0 15 0;
#X connect 15 0 16 0;
#X connect 16 0 4 0;
#X connect 18 0 19 0;
#X connect 19 0 22 0;
#X connect 20 0 21 0;
#X connect 21 0 0 0;
#X connect 22 0 20 0;
#X connect 23 0 3 0;
#X restore 88 283 pd retouramp;
#X floatatom 522 249 5 0 0 0 - - -;
#X floatatom 562 250 5 0 0 0 - - -;
#X floatatom 602 251 5 0 0 0 - - -;
#X obj 522 225 unpack f f f;
#X obj 149 425 delwrite~ \$0-del 1000;
#X obj 242 572 delread~ \$0-del 200;
#X obj 242 520 loadbang;
#X msg 242 544 250;
#X obj 319 298 * 1;
#X obj 272 280 pow 2;
#X msg 272 328 \$1 20;
#X obj 272 352 line~;
#X obj 89 362 *~;
#X obj 109 64 hsl 80 15 0 1 0 1 empty empty volume 5 8 0 10 -258113
-1 -257985 5700 1;
#X obj 109 85 hsl 80 15 0 1 0 1 empty empty reverb 5 8 0 10 -4034 -1
-258113 1600 1;
#X obj 272 304 * 0.5;
#X obj 351 80 * 10;
#X obj 351 104 + 1;
#X obj 351 128 s \$0-disto;
#X obj 646 50 unpack f f f, f 28;
#X obj 599 25 route corde euler pizz bend switch;
#X obj 599 4 r \$0-ctl;
#X floatatom 716 93 5 0 0 0 - - -;
#X obj 765 92 + 30;
#X obj 765 165 clip 0 1;
#X obj 765 189 pow 4;
#X obj 765 213 * 40000;
#X floatatom 680 306 5 0 0 0 - - -;
#X obj 765 266 s \$0-sustain;
#X obj 765 116 / -90;
#X obj 765 140 + 1;
#X obj 765 239 + 200;
#X obj 89 553 throw~ out\$1;
#X obj 247 23 loadbang;
#X msg 247 47 1;
#X connect 0 0 3 0;
#X connect 1 0 0 1;
#X connect 1 0 2 0;
#X connect 1 0 55 0;
#X connect 5 0 53 0;
#X connect 8 0 9 0;
#X connect 8 1 10 1;
#X connect 9 0 11 0;
#X connect 9 1 14 0;
#X connect 10 0 11 1;
#X connect 11 0 7 0;
#X connect 12 0 15 0;
#X connect 12 0 54 0;
#X connect 13 0 12 0;
#X connect 13 1 8 0;
#X connect 14 0 10 0;
#X connect 16 0 52 0;
#X connect 17 0 16 1;
#X connect 18 0 19 0;
#X connect 19 0 33 0;
#X connect 20 0 21 0;
#X connect 21 0 22 0;
#X connect 22 0 23 0;
#X connect 23 0 24 1;
#X connect 24 0 32 0;
#X connect 24 0 34 0;
#X connect 25 0 34 0;
#X connect 26 0 27 0;
#X connect 27 0 25 1;
#X connect 28 0 25 0;
#X connect 28 0 34 0;
#X connect 29 0 69 0;
#X connect 30 0 31 0;
#X connect 31 0 32 1;
#X connect 32 0 65 0;
#X connect 33 0 20 0;
#X connect 33 1 77 0;
#X connect 34 0 93 0;
#X connect 35 0 0 0;
#X connect 35 0 16 0;
#X connect 36 0 37 0;
#X connect 36 1 38 0;
#X connect 36 2 39 0;
#X connect 45 0 41 0;
#X connect 45 1 42 0;
#X connect 45 2 43 0;
#X connect 45 3 44 0;
#X connect 45 4 46 0;
#X connect 45 5 47 0;
#X connect 52 0 36 0;
#X connect 52 1 40 0;
#X connect 52 2 45 0;
#X connect 52 3 57 0;
#X connect 52 4 51 0;
#X connect 52 5 64 0;
#X connect 53 0 13 0;
#X connect 55 0 3 0;
#X connect 56 0 59 0;
#X connect 57 0 48 0;
#X connect 57 1 49 0;
#X connect 57 2 50 0;
#X connect 57 3 58 0;
#X connect 59 0 73 0;
#X connect 60 0 56 0;
#X connect 64 0 61 0;
#X connect 64 1 62 0;
#X connect 64 2 63 0;
#X connect 66 0 28 0;
#X connect 67 0 68 0;
#X connect 68 0 66 0;
#X connect 69 0 30 0;
#X connect 70 0 76 0;
#X connect 71 0 72 0;
#X connect 72 0 73 1;
#X connect 73 0 24 0;
#X connect 74 0 70 0;
#X connect 75 0 29 0;
#X connect 76 0 71 0;
#X connect 77 0 78 0;
#X connect 78 0 79 0;
#X connect 80 1 84 0;
#X connect 81 1 80 0;
#X connect 82 0 81 0;
#X connect 84 0 90 0;
#X connect 85 0 86 0;
#X connect 86 0 87 0;
#X connect 87 0 92 0;
#X connect 90 0 91 0;
#X connect 91 0 85 0;
#X connect 92 0 89 0;
#X connect 94 0 95 0;
#X connect 95 0 1 0;
#X coords 0 -1 1 1 100 85 1 100 20;
