#N canvas 1 81 859 554 12;
#X obj 57 175 route 0 1 2, f 15;
#X floatatom 57 199 5 0 0 0 - - -;
#X floatatom 97 200 5 0 0 0 - - -;
#X floatatom 137 201 5 0 0 0 - - -;
#X obj 181 209 tgl 15 0 empty empty empty 17 7 0 10 -262144 -1 -1 0
1;
#X obj 205 209 tgl 15 0 empty empty empty 17 7 0 10 -262144 -1 -1 0
1;
#X obj 223 209 tgl 15 0 empty empty empty 17 7 0 10 -262144 -1 -1 0
1;
#X obj 241 209 tgl 15 0 empty empty empty 17 7 0 10 -262144 -1 -1 0
1;
#X obj 259 209 tgl 15 0 empty empty empty 17 7 0 10 -262144 -1 -1 0
1;
#X obj 277 210 tgl 15 0 empty empty empty 17 7 0 10 -262144 -1 -1 0
1;
#X obj 329 210 tgl 15 0 empty empty empty 17 7 0 10 -262144 -1 -1 0
1;
#X obj 353 210 tgl 15 0 empty empty empty 17 7 0 10 -262144 -1 -1 0
1;
#X obj 378 211 tgl 15 0 empty empty empty 17 7 0 10 -262144 -1 -1 0
1;
#X obj 296 209 tgl 15 0 empty empty empty 17 7 0 10 -262144 -1 -1 0
1;
#X obj 417 180 tgl 15 0 empty empty empty 17 7 0 10 -262144 -1 -1 0
1;
#X obj 181 179 route 0 1 2 3 4 5 6;
#X obj 329 180 route 0 1 2;
#X obj 440 181 route 0 1 2, f 15;
#X floatatom 440 205 5 0 0 0 - - -;
#X floatatom 480 206 5 0 0 0 - - -;
#X floatatom 520 207 5 0 0 0 - - -;
#X obj 57 151 route knob manche pizz switch corde euler, f 100;
#X floatatom 602 205 5 0 0 0 - - -;
#X floatatom 642 206 5 0 0 0 - - -;
#X floatatom 682 207 5 0 0 0 - - -;
#X obj 602 181 unpack f f f, f 15;
#X obj 56 88 spigot;
#X obj 167 43 tgl 15 0 empty empty empty 17 7 0 10 -262144 -1 -1 0
1;
#X obj 261 96 switch~;
#X obj 56 42 r Violon-ctl;
#X obj 88 292 clone 3 corde_frottee \$0;
#X obj 178 122 s \$0-ctl;
#X obj 143 512 throw~ outR;
#X obj 502 234 r \$0-ctl;
#X obj 650 371 table \$0-keys 10;
#X obj 536 404 s \$0-keys;
#X obj 534 307 unpack f f;
#X obj 534 331 t f f;
#X obj 608 380 *;
#X obj 536 380 pack f f;
#X obj 502 447 array max \$0-keys 0 8;
#X obj 502 284 t b a;
#X obj 566 354 + 1;
#X obj 502 258 route manche;
#X obj 502 471 s \$0-mancheNote;
#X obj 56 125 spigot;
#X obj 108 126 tgl 15 0 empty empty empty 17 7 0 10 -262144 -1 -1 0
1;
#X obj 329 272 r \$0-ctl;
#X obj 329 296 route knob;
#X obj 329 344 pow 2;
#X obj 329 368 * 0.3;
#X msg 329 392 \$1 20;
#X obj 329 416 line~;
#X obj 88 316 *~;
#X obj 107 395 rev1~, f 10;
#X obj 182 412 loadbang;
#X msg 182 436 60;
#X obj 106 372 lop~ 3000;
#X obj 415 368 pow 2;
#X msg 415 416 \$1 20;
#X obj 415 440 line~;
#X obj 107 346 *~;
#X obj 329 320 route 0 1, f 18;
#X obj 415 392 * 2;
#X obj 87 437 +~;
#X msg 177 97 run \$1;
#X obj 87 470 throw~ out\$1;
#X obj 247 23 loadbang;
#X msg 247 47 1;
#X connect 0 0 1 0;
#X connect 0 1 2 0;
#X connect 0 2 3 0;
#X connect 15 0 4 0;
#X connect 15 1 5 0;
#X connect 15 2 6 0;
#X connect 15 3 7 0;
#X connect 15 4 8 0;
#X connect 15 5 9 0;
#X connect 15 6 13 0;
#X connect 16 0 10 0;
#X connect 16 1 11 0;
#X connect 16 2 12 0;
#X connect 17 0 18 0;
#X connect 17 1 19 0;
#X connect 17 2 20 0;
#X connect 21 0 0 0;
#X connect 21 1 15 0;
#X connect 21 2 16 0;
#X connect 21 3 14 0;
#X connect 21 4 17 0;
#X connect 21 5 25 0;
#X connect 25 0 22 0;
#X connect 25 1 23 0;
#X connect 25 2 24 0;
#X connect 26 0 31 0;
#X connect 26 0 45 0;
#X connect 27 0 26 1;
#X connect 27 0 28 0;
#X connect 27 0 65 0;
#X connect 29 0 26 0;
#X connect 30 0 53 0;
#X connect 33 0 43 0;
#X connect 36 0 37 0;
#X connect 36 1 38 1;
#X connect 37 0 39 0;
#X connect 37 1 42 0;
#X connect 38 0 39 1;
#X connect 39 0 35 0;
#X connect 40 0 44 0;
#X connect 41 0 40 0;
#X connect 41 1 36 0;
#X connect 42 0 38 0;
#X connect 43 0 41 0;
#X connect 45 0 21 0;
#X connect 46 0 45 1;
#X connect 47 0 48 0;
#X connect 48 0 62 0;
#X connect 49 0 50 0;
#X connect 50 0 51 0;
#X connect 51 0 52 0;
#X connect 52 0 53 1;
#X connect 53 0 61 0;
#X connect 53 0 64 0;
#X connect 54 0 64 0;
#X connect 55 0 56 0;
#X connect 56 0 54 1;
#X connect 57 0 54 0;
#X connect 58 0 63 0;
#X connect 59 0 60 0;
#X connect 60 0 61 1;
#X connect 61 0 57 0;
#X connect 62 0 49 0;
#X connect 62 1 58 0;
#X connect 63 0 59 0;
#X connect 64 0 66 0;
#X connect 65 0 31 0;
#X connect 67 0 68 0;
#X connect 68 0 27 0;
#X coords 0 -1 1 1 85 40 1 100 20;
